<?xml version="1.0" encoding="utf-8"?>
<!-- Generator: Adobe Illustrator 24.1.1, SVG Export Plug-In . SVG Version: 6.00 Build 0)  -->
<svg version="1.1" id="Слой_1" xmlns="http://www.w3.org/2000/svg" xmlns:xlink="http://www.w3.org/1999/xlink" x="0px" y="0px"
	 viewBox="0 0 32 13" enable-background="new 0 0 32 13" xml:space="preserve" width="32" height="13">
<g>
	<path fill="#282839" d="M21.5196781,6.488667c0,1.0347762-0.0002232,2.0695519,0.0009079,3.1043267
		c0.0000401,0.0370369-0.0097504,0.0563555-0.0430565,0.0749722c-0.1747379,0.0976763-0.3472252,0.1993675-0.5211143,0.2985764
		c-0.1142311,0.0651731-0.2300644,0.1275377-0.3441925,0.1928844c-0.1720352,0.0985003-0.3453121,0.1950951-0.5160351,0.2954445
		c-0.0779495,0.0458183-0.1588669,0.0866213-0.2363567,0.1334381c-0.1754894,0.1060219-0.3564701,0.2029181-0.5335712,0.3059826
		c-0.0795727,0.0463085-0.1651077,0.0828056-0.240118,0.1362085c-0.0762711,0.0543032-0.162632,0.089797-0.2417755,0.1382866
		c-0.1746635,0.1070127-0.3568802,0.2008829-0.532486,0.3060007c-0.0783806,0.0469198-0.1604004,0.0867796-0.2382202,0.1342115
		c-0.1619358,0.0987043-0.3309269,0.1851454-0.4938335,0.2817917c-0.1728802,0.1025629-0.3504944,0.1966829-0.5225182,0.300292
		c-0.0797043,0.0480061-0.1631641,0.0887136-0.2423077,0.137167c-0.1747017,0.1069584-0.3576794,0.1995859-0.5324554,0.3060532
		c-0.0849819,0.0517673-0.1763401,0.0914669-0.258955,0.1467142c-0.0129299,0.0086451-0.0220127,0.0097742-0.0355244,0.001605
		c-0.0691853-0.0418186-0.143858-0.0745611-0.2124023-0.1164589c-0.169507-0.1036148-0.3446236-0.196929-0.5165348-0.295949
		c-0.0859108-0.0494852-0.174017-0.0953236-0.2586632-0.1467724c-0.1676989-0.1019316-0.3406239-0.1944666-0.5106297-0.2921047
		c-0.1636095-0.0939608-0.3280249-0.1865273-0.4913034-0.2809486c-0.1739101-0.1005688-0.3490591-0.1990194-0.5222187-0.3007889
		c-0.0759106-0.0446148-0.1550875-0.0831375-0.2299099-0.128993c-0.1719494-0.1053829-0.350214-0.1996021-0.5238409-0.3018713
		c-0.0654392-0.0385456-0.1318436-0.0749846-0.1980362-0.1120501c-0.1366796-0.0765362-0.2716837-0.1560822-0.4066839-0.2355642
		c-0.0139847-0.008234-0.0278988-0.015974-0.0424633-0.0230875c-0.1264982-0.0617867-0.2442026-0.1394119-0.3666153-0.2084589
		c-0.0876522-0.0494413-0.1765795-0.0972414-0.2635326-0.1482477c-0.1473312-0.0864229-0.2959757-0.1706085-0.4438448-0.2561188
		c-0.0992966-0.0574207-0.2006311-0.1114731-0.2998142-0.1685791c-0.0640154-0.0368576-0.1294241-0.0728598-0.1923294-0.1123867
		c-0.0122719-0.0077114-0.021244-0.0129328-0.0191956-0.0290499c0.0014591-0.0114784,0.0002737-0.0232935,0.0002737-0.0349569
		c-0.0000019-2.0678864,0.0001431-4.1357718-0.0010195-6.2036572c-0.0000248-0.0420232,0.0118809-0.0633616,0.0500383-0.081717
		C10.660718,3.2464733,10.7756424,3.1750851,10.8910809,3.1066c0.0877342-0.0520494,0.1800489-0.0952418,0.2665329-0.1490016
		c0.1638651-0.1018612,0.3344212-0.1921198,0.5013514-0.2885637c0.1628103-0.0940638,0.3286076-0.1831117,0.4891682-0.2805576
		c0.0892496-0.0541668,0.1833096-0.0986381,0.2720337-0.152977c0.1636896-0.1002517,0.3348827-0.1877961,0.4984245-0.2876134
		c0.0886621-0.0541153,0.1829643-0.0964758,0.2708206-0.151185c0.1624146-0.1011354,0.3311443-0.1914369,0.4971228-0.2864629
		c0.1687841-0.0966314,0.3384418-0.1917415,0.5069265-0.2888001c0.1647978-0.0949351,0.3316975-0.1862106,0.4956961-0.2822505
		c0.1748085-0.1023696,0.3520451-0.2003289,0.5268259-0.3025125c0.0787821-0.0460592,0.1606407-0.0865284,0.2380371-0.1346453
		c0.1701794-0.1057979,0.3483782-0.1975249,0.5206766-0.2995457c0.0222445-0.0131712,0.0411701-0.0104961,0.0630131,0.0013254
		c0.1478176,0.0799982,0.2929382,0.1649445,0.4386311,0.2485024c0.1798534,0.1031485,0.3607578,0.2045113,0.5399246,0.3088369
		c0.0655804,0.0381874,0.1337128,0.0722224,0.1977615,0.1121918c0.1273689,0.0794843,0.2630291,0.1442788,0.3891125,0.2256717
		c0.0109158,0.0070469,0.021183,0.0156007,0.0329285,0.020786c0.1385212,0.0611447,0.2627754,0.1481128,0.3952236,0.2203227
		c0.1648769,0.0898898,0.3267956,0.1857407,0.4902039,0.2786889c0.1731739,0.0985017,0.3454742,0.1983919,0.5194569,0.2955164
		c0.0828762,0.0462652,0.1667137,0.0925515,0.2482338,0.1418548c0.1670704,0.1010451,0.3390846,0.1932273,0.5081997,0.2904296
		c0.1663723,0.0956271,0.3340855,0.1889534,0.4997749,0.2855649c0.1702042,0.0992439,0.3429279,0.194113,0.5119095,0.2952006
		c0.0840111,0.0502596,0.1725025,0.0918894,0.2554684,0.143142c0.14217,0.0878253,0.2878513,0.1693127,0.4344044,0.249346
		c0.0156727,0.0085583,0.0216999,0.0179935,0.0208435,0.0344865c-0.0006065,0.0116327-0.0001106,0.0233221-0.0001106,0.0349863
		C21.5196781,4.4224472,21.5196781,5.4555569,21.5196781,6.488667z"/>
	<path fill="#818181" d="M16.7396431,11.8589783c0.301363-0.3662338,0.6027985-0.7324114,0.9040604-1.0987282
		c0.1479874-0.179944,0.2955933-0.3602018,0.4435482-0.5401716c0.0201473-0.0245066,0.0429802-0.0450821,0.0717678-0.0607109
		c0.1227665-0.0666475,0.2443333-0.1355,0.3665409-0.2031822c0.1002979-0.0555496,0.2010689-0.1102514,0.3013039-0.1659164
		c0.19767-0.1097708,0.3947906-0.220541,0.5927696-0.3297501c0.1294899-0.0714293,0.2607155-0.1397228,0.3900566-0.2114172
		c0.1846752-0.1023664,0.3677616-0.2076149,0.5529804-0.3089743c0.0323696-0.0177135,0.0385799-0.0387001,0.0385494-0.0714197
		c-0.0006695-0.7148428-0.0005131-1.4296851-0.0005131-2.1445279c0-0.86481-0.0003109-1.7296205,0.0008831-2.594429
		c0.000061-0.0448327-0.0115356-0.0687156-0.0537281-0.0916982c-0.2524357-0.1374998-0.500742-0.2826111-0.7537498-0.4190152
		c-0.1186256-0.0639555-0.235487-0.1310935-0.3546314-0.1941335c-0.1262951-0.0668218-0.2495975-0.1392765-0.3747692-0.2082477
		c-0.1935635-0.1066554-0.3879833-0.2117558-0.5813332-0.3187938c-0.1833248-0.1014881-0.3655128-0.2050312-0.5486488-0.3068643
		c-0.0972424-0.0540717-0.195612-0.1061087-0.2931557-0.1596425c-0.1297073-0.0711865-0.2590122-0.1431093-0.3886585-0.2144077
		c-0.2008896-0.1104791-0.4021225-0.2203354-0.6028252-0.3311527c-0.1396942-0.0771314-0.2788925-0.1551676-0.4179173-0.2334991
		c-0.0198536-0.0111861-0.0363102-0.0100001-0.0557013,0.0008253c-0.2205868,0.1231475-0.4410982,0.2464374-0.6624212,0.3682526
		C15.114542,2.1311824,14.9117794,2.2352922,14.7149,2.3495789c-0.1078444,0.0626023-0.2199154,0.1171098-0.326767,0.1814437
		c-0.0953388,0.0574014-0.1945524,0.1083672-0.2920427,0.1621971c-0.2241926,0.12379-0.4481773,0.2479596-0.6726284,0.3712771
		c-0.1776228,0.0975888-0.3563519,0.193171-0.5336056,0.2914217c-0.1759453,0.0975261-0.3502712,0.1979713-0.5260458,0.2958105
		c-0.1263838,0.0703473-0.2542238,0.1380703-0.3809624,0.2077847c-0.1164474,0.0640528-0.2319584,0.1298113-0.3486948,0.1933248
		c-0.0216808,0.011796-0.0254564,0.0271263-0.0251446,0.0486202c0.0008211,0.0566425,0.0002842,0.1133046,0.0002842,0.1699591
		c0,0.6315279,0.0000324,1.2630558-0.0001392,1.8945837c-0.0000048,0.0215673-0.0020695,0.0431347-0.0031738,0.064702
		c-0.0415354,0.0265775-0.0872383,0.0153656-0.1309471,0.0116181c-0.0414915-0.0035577-0.0828209-0.0075116-0.124404-0.0062437
		c-0.1646891,0.0050249-0.3287897-0.0165668-0.4935026-0.0106111c-0.0199394,0.0007215-0.0402517-0.0006719-0.0555182-0.0168934
		c-0.0004349-0.0183091-0.0012493-0.0366178-0.0012512-0.0549269c-0.0000639-0.8331289,0.000309-1.6662579-0.0010271-2.4993846
		c-0.0000744-0.0461292,0.0146561-0.0665574,0.0560856-0.0896049c0.121047-0.0673401,0.2462664-0.1273267,0.3624439-0.2038851
		c0.0592251-0.0390277,0.1269579-0.0648994,0.1893148-0.0994778c0.1376753-0.076345,0.2740335-0.1550674,0.4115982-0.2316139
		c0.1025972-0.0570879,0.2064896-0.1118407,0.30937-0.1684258c0.159173-0.0875468,0.3182039-0.1753578,0.4768648-0.2638288
		c0.1416111-0.0789638,0.2823391-0.1595149,0.4240246-0.2383409c0.1011477-0.0562727,0.2037849-0.1098742,0.3047848-0.1664038
		c0.1731548-0.0969148,0.3449774-0.1962185,0.5184431-0.2925696c0.1449499-0.0805128,0.2944403-0.1532719,0.4363403-0.2387286
		c0.1188698-0.0715877,0.2448015-0.1293986,0.3636169-0.2008107c0.1119232-0.0672711,0.2291222-0.1257001,0.3422565-0.1910366
		c0.1651344-0.0953664,0.3352013-0.1818115,0.500452-0.2766968c0.1623116-0.0931979,0.3279181-0.1801822,0.4910975-0.2716575
		c0.0159378-0.0089335,0.0297108-0.0094356,0.0465565-0.000828c0.1491146,0.0761923,0.2942448,0.1598386,0.4412842,0.2397627
		c0.1586285,0.0862255,0.3167534,0.1737001,0.4742012,0.2620673c0.163044,0.0915082,0.3261509,0.1828799,0.489275,0.2742369
		c0.0765324,0.0428615,0.1569672,0.0786862,0.2310696,0.124961c0.1418114,0.0885577,0.2914524,0.1627907,0.4364052,0.2455209
		c0.0920258,0.0525222,0.1869431,0.1012179,0.2781467,0.1543493c0.1085148,0.0632167,0.223423,0.1151049,0.3280945,0.1850357
		c0.0246353,0.0164585,0.0534515,0.0265136,0.0795212,0.0409966c0.1677589,0.0931993,0.3348751,0.1875596,0.5030518,0.2799969
		c0.0956802,0.0525913,0.1932964,0.1029208,0.2865715,0.1584229c0.106411,0.0633197,0.2215786,0.1107466,0.323122,0.1824875
		c0.0281162,0.0198643,0.0632629,0.0294666,0.0930214,0.0473704c0.11339,0.0682116,0.2315445,0.127862,0.3450031,0.1961553
		c0.1206665,0.0726304,0.2469196,0.1359415,0.3702507,0.2041888c0.1270256,0.0702877,0.2534771,0.1416059,0.3801537,0.212518
		c0.0130157,0.0072856,0.0250206,0.0184836,0.0389271,0.0217302c0.0809841,0.0189095,0.0907326,0.0726783,0.0906487,0.1475122
		c-0.0020771,1.8762038-0.0017986,3.7524097-0.0006447,5.6286144c0.0000305,0.0464773-0.0100136,0.0721083-0.0547981,0.0955076
		c-0.1876965,0.0980759-0.3736458,0.1997261-0.5575218,0.3048124c-0.1624756,0.0928555-0.3268814,0.1821775-0.4894657,0.2746906
		c-0.0749416,0.0426426-0.1563797,0.074976-0.2260265,0.1242867c-0.0939903,0.0665464-0.2023544,0.1046696-0.2981129,0.1678925
		c-0.0823994,0.0544004-0.1743164,0.0951624-0.2607079,0.1447325c-0.1839638,0.1055555-0.3703747,0.2069035-0.5568752,0.3079634
		c-0.1074505,0.0582228-0.2132969,0.1192808-0.3210239,0.1770878c-0.1677933,0.0900412-0.3330021,0.1850138-0.4994678,0.2775993
		c-0.1488857,0.0828066-0.3009491,0.1603298-0.4470387,0.2474651c-0.1789303,0.1067219-0.3692265,0.1928511-0.543148,0.3085833
		c-0.0672894,0.044776-0.1438465,0.0756235-0.2161789,0.1128187C16.7398777,11.8729744,16.7372379,11.8684845,16.7396431,11.8589783
		z"/>
	<path fill="#FEFEFD" d="M15.8850927,9.5595636c-0.6782675,0-1.3565359-0.0004854-2.0347996,0.0011168
		c-0.0441265,0.0001049-0.0543184-0.0105772-0.0539885-0.0542068c0.0021915-0.2899303-0.0044556-0.5800228,0.0026093-0.8697977
		c0.0093575-0.3837423,0.1452885-0.7270374,0.359746-1.0412312c0.1658926-0.2430439,0.379694-0.4421678,0.6007872-0.631999
		c0.3170853-0.2722507,0.6445045-0.5324659,0.9616356-0.8046646c0.2312984-0.1985288,0.4528561-0.4080477,0.6222153-0.665812
		c0.2257423-0.3435774,0.3424816-0.7181458,0.3262348-1.1309609c-0.0035992-0.0914531-0.0156536-0.1820827-0.0389709-0.2711406
		c-0.0505466-0.1930556-0.1701374-0.3217251-0.3604164-0.3794172c-0.2321835-0.0703981-0.4672451-0.0705411-0.6979542,0.0029545
		c-0.231801,0.0738432-0.3544121,0.2436275-0.3825331,0.4816082c-0.0219555,0.185802-0.0058737,0.372808-0.0093241,0.5592399
		c-0.0016642,0.0899529-0.001049,0.1799726,0.0002012,0.2699389c0.0003481,0.0250306-0.0053959,0.034533-0.0328302,0.0344806
		c-0.4382896-0.0008364-0.8765793-0.0007329-1.3148708-0.0001979c-0.023922,0.0000296-0.0362549-0.0033984-0.0359182-0.0319748
		c0.0032101-0.2714911-0.0140114-0.5437737,0.0067625-0.8143663c0.0477629-0.6221647,0.3631926-1.0604055,0.934556-1.3120422
		c0.2755709-0.1213655,0.5671616-0.1772945,0.8657923-0.2003531c0.2795248-0.0215833,0.5590897-0.0213323,0.8377399,0.0110528
		c0.4035816,0.0469038,0.7871437,0.1515121,1.1141453,0.4076624c0.3179893,0.2490909,0.492012,0.5806289,0.5428314,0.9771354
		c0.0917244,0.7156343-0.1351929,1.335041-0.5848923,1.8824153c-0.3390179,0.4126511-0.7406731,0.760201-1.155283,1.0936923
		c-0.2361698,0.1899624-0.4750471,0.3771858-0.6896191,0.5919976c-0.1463242,0.1464882-0.2774343,0.3053617-0.3632669,0.4971247
		c-0.0553255,0.1236057-0.066246,0.2523432-0.0566044,0.3853121c0.0031157,0.042984,0.0284872,0.0400925,0.0580521,0.0400829
		c0.8682489-0.000267,1.7364988-0.0002842,2.6047468-0.0000963c0.073761,0.0000162,0.0645809-0.0088263,0.0646591,0.0626974
		C17.9768543,8.93643,17.975626,9.223052,17.9777794,9.5096512c0.0003262,0.0432301-0.0127068,0.0509014-0.0528851,0.050827
		C17.2449627,9.5592003,16.5650272,9.5595636,15.8850927,9.5595636z"/>
	<path fill="#818181" d="M15.9926109,10.8282785c0.1804619-0.0991936,0.3598881-0.2003317,0.5416832-0.2970238
		c0.1731796-0.0921116,0.3421555-0.1916943,0.5158234-0.2830362c0.1764107-0.0927877,0.3472862-0.1960497,0.5215359-0.2930145
		c0.1277218-0.0710735,0.2569542-0.1394377,0.3855782-0.2088881c0.0345917-0.0186787,0.0648804-0.0458279,0.1179581-0.0578842
		c-0.0663643,0.0810432-0.1253891,0.1533747-0.184679,0.2254896c-0.3191414,0.3881779-0.6381359,0.7764769-0.9576721,1.1643276
		c-0.08992,0.1091461-0.186533,0.2131882-0.2706718,0.3265505c-0.0631599,0.0850954-0.1117916,0.1810493-0.1659737,0.2727108
		c-0.1566772,0.2650585-0.3127918,0.5304508-0.469593,0.7954359c-0.0072956,0.012331-0.0119133,0.027812-0.0272131,0.0341911
		c-0.0083599-0.0217924-0.0155334-0.0437412-0.0154982-0.0675831c0.0005369-0.3659906-0.0019121-0.7319832,0.0012512-1.0979576
		c-0.0023899-0.1547937-0.0004749-0.3096066-0.0010939-0.4644165C15.9839792,10.8602524,15.9873724,10.844161,15.9926109,10.8282785
		z"/>
	<path fill="#38F3B5" d="M13.608489,10.942852c-0.1257133-0.0543766-0.2402868-0.12959-0.3610363-0.1932678
		c-0.0751314-0.0396252-0.1488743-0.0818806-0.2234631-0.1225443c-0.1500435-0.0817966-0.2997332-0.1641998-0.4450674-0.2542372
		c-0.0098886-0.0263882,0.0088778-0.0319901,0.0273724-0.0362167c0.0228548-0.0052242,0.0463409-0.0033369,0.0695839-0.0033922
		c0.4405394-0.001049,0.8810844,0.0019073,1.32162-0.0016184c0.0151157-0.0001202,0.0299416-0.00002,0.0436296,0.0074883
		c0.1198893,0.1467152,0.2399836,0.2932625,0.3595371,0.4402514c0.0345621,0.0424919,0.0675669,0.0862522,0.101285,0.1294308
		c-0.0237188,0.0321341-0.0591288,0.0261469-0.0914602,0.0262556c-0.2309332,0.0007782-0.4618692,0.0004921-0.6928043,0.0002661
		C13.6810484,10.9352322,13.6446266,10.9365368,13.608489,10.942852z"/>
	<path fill="#36F2AE" d="M12.0512371,9.1673813c0.2547693,0.1395082,0.5095558,0.2789841,0.764183,0.4187508
		c0.0052691,0.0028915,0.0086899,0.0091496,0.0129728,0.0138388c-0.0075054,0.0249128-0.0275373,0.0314016-0.0501423,0.033927
		c-0.0182486,0.002039-0.0365934,0.0016594-0.0549088,0.0016394c-0.4813433-0.0005169-0.9626875,0.0011854-1.4440289-0.000865
		c-0.0099678-0.000042-0.0200443-0.0012255-0.0290804,0.0045223c-0.091114-0.0658293-0.2022123-0.0958138-0.2921543-0.1648064
		c-0.0362825-0.027832-0.0803003-0.0469332-0.1230555-0.0645218c-0.0309277-0.0127211-0.0401115-0.0306282-0.0330067-0.0607452
		c0.0074415-0.0462723,0.0035467-0.0929089,0.0027323-0.1392717c-0.0005322-0.0303087,0.0124378-0.042346,0.0400782-0.0445948
		c0.0182829-0.0014868,0.0365753-0.0014772,0.0548744-0.0014467c0.3573503,0.0005894,0.7146988-0.0002298,1.0720482-0.0004215
		C11.998435,9.1633711,12.0245876,9.1695662,12.0512371,9.1673813z"/>
	<path fill="#37F2B0" d="M11.2502327,9.6391945c-0.0012331-0.0073528-0.0079679-0.0173769,0.0056973-0.0190029
		c0.0131359-0.0015631,0.0265799-0.0006247,0.0398903-0.0006256c0.4860859-0.0000153,0.9721737-0.0000525,1.4582596,0.0000963
		c0.0267143,0.0000086,0.0536127,0.0022755,0.0743141-0.0196924c0.0405722,0.0213089,0.0814419,0.0420713,0.121666,0.0640202
		c0.1846704,0.100771,0.3693371,0.2015505,0.5535202,0.3032074c0.0270844,0.0149498,0.0515594,0.034626,0.0772429,0.0521154
		c-0.0176096,0.030777-0.0482912,0.0255928-0.0756702,0.025753c-0.1564054,0.0009212-0.3128185,0.0004082-0.4692287,0.0004263
		c-0.3111572,0.0000353-0.6223135-0.0000648-0.9334717,0.0001135c-0.0314465,0.0000181-0.06353-0.0026321-0.0923433,0.0146189
		c-0.1059418-0.0576801-0.2120256-0.1150999-0.3177595-0.1731615c-0.0458803-0.0251961-0.0908699-0.0520086-0.1365538-0.0775709
		C11.4540396,9.7525539,11.3520985,9.69594,11.2502327,9.6391945z"/>
	<path fill="#39F3B8" d="M15.9926109,10.8282785c0.00245,0.0093575,0.0070372,0.0187178,0.0070333,0.0280743
		c-0.000062,0.1609869-0.0006895,0.3219748-0.001194,0.4829617c-0.0222092,0.0203362-0.049964,0.0156031-0.0760679,0.015686
		c-0.1647596,0.0005255-0.329525,0.0003119-0.4942865,0.000226c-0.0565453-0.0000305-0.1131153-0.0011902-0.1693544,0.0065145
		c-0.0953388-0.1150665-0.191124-0.2297678-0.285882-0.3453102c-0.0850964-0.1037626-0.1691341-0.2083912-0.253355-0.3128662
		c-0.0049076-0.0060863-0.0072775-0.0142164-0.010829-0.0213947c-0.0022125-0.0278692,0.0183525-0.0322609,0.0382833-0.036005
		c0.0196819-0.0036993,0.0398092-0.0024204,0.0597639-0.0024633c0.2495756-0.0005426,0.4991751,0.0022383,0.7487125-0.00177
		c0.0558052-0.0008965,0.0964813,0.0322752,0.1448908,0.0473604c0.0808201,0.0435276,0.1614885,0.0873432,0.2425976,0.1303253
		C15.958004,10.82761,15.9731808,10.842206,15.9926109,10.8282785z"/>
	<path fill="#2EEF97" d="M10.8016081,6.2085733c0.2682972,0.0014009,0.5363054,0.0133524,0.8043852,0.0221395
		c0.0008669,0.0215735,0.0025139,0.0431561,0.0025196,0.0647397c0.0002012,0.8746963,0.0002575,1.749393,0.0003309,2.6240897
		c-0.030179-0.011899-0.0259113-0.0394268-0.0250854-0.0623703c0.002552-0.0707817-0.0000582-0.1415625,0.0018959-0.2123432
		c-0.0024366-0.1650753-0.002244-0.3301191-0.0002594-0.4951696c-0.0020723-0.2092743-0.0023727-0.4185419,0.0000172-0.6277838
		c-0.0023956-0.1746206-0.000288-0.3492756-0.0011215-0.5239248c-0.0003347-0.0700731-0.0022058-0.0719872-0.0735016-0.0720401
		c-0.2062864-0.0001526-0.4125748-0.0003276-0.6188622,0.0001059c-0.0618353,0.0001297-0.0648794,0.003737-0.0656538,0.0647087
		c-0.0005064,0.0399175,0.0014248,0.0799036-0.0010376,0.1197348c-0.0011444,0.0185394,0.0030642,0.0415578-0.0232172,0.0490031
		C10.8018808,6.8424997,10.8017445,6.5255365,10.8016081,6.2085733z"/>
	<path fill="#38F2B3" d="M12.0101089,10.0602245c-0.0085335-0.0185699-0.0021629-0.0288944,0.0177565-0.0302992
		c0.0132713-0.0009356,0.0266495-0.0004187,0.0399799-0.0004196c0.481616-0.0000124,0.9632311-0.0000029,1.4448471-0.0000401
		c0.0231838-0.0000019,0.0468712,0.0029612,0.0681286-0.0101528c0.1238031,0.0482635,0.2346144,0.1212273,0.3482084,0.1880665
		c0.0494041,0.0290699,0.0786762,0.084219,0.1120987,0.1316843c-0.0271482,0.0085573-0.0548401,0.0107174-0.0833502,0.0106897
		c-0.4407701-0.0004349-0.8815403-0.0004702-1.3223095,0.0002222c-0.020359,0.0000315-0.0493355-0.0131416-0.0565443,0.0228252
		c-0.0725441-0.0316906-0.1393881-0.073966-0.2088833-0.1112528C12.2488384,10.1965141,12.1289673,10.1293364,12.0101089,10.0602245
		z"/>
	<path fill="#31F0A1" d="M11.5993567,7.5199633c-0.0000172,0.2099767-0.0000353,0.4199538-0.0000525,0.6299305
		c-0.0223064,0.0197563-0.0498638,0.015501-0.0759516,0.0155563c-0.2073145,0.0004482-0.4146299,0.0000648-0.6219444,0.0003223
		c-0.0733337,0.0000916-0.0747576,0.0019007-0.0751839,0.0752687c-0.0002108,0.0364809,0.001482,0.0730333-0.0009623,0.1094179
		c-0.0012407,0.0185089,0.0029831,0.0414553-0.023243,0.0488386c0.0000057-0.2399893,0.0000114-0.4799781,0.0000162-0.7199669
		c0.0073786-0.0429087,0.0035038-0.0862017,0.0027666-0.1292114c-0.000514-0.030045,0.0124493-0.0425558,0.0400953-0.0448499
		c0.0099535-0.0008264,0.019906-0.00143,0.0298853-0.001442c0.219511-0.0002589,0.4390211-0.0002875,0.6585321,0.0000949
		C11.5563755,7.503963,11.5803871,7.5021505,11.5993567,7.5199633z"/>
	<path fill="#2FF09C" d="M11.5993567,7.5199633c-0.2456579-0.0000367-0.4913235,0.0008454-0.7369671-0.0010028
		c-0.0415125-0.0003119-0.0548286,0.011682-0.0532598,0.0531473c0.0013399,0.0354218,0.0103521,0.0725999-0.0070944,0.107223
		c-0.0000067-0.1732888-0.0000124-0.3465781-0.0000172-0.5198674c0.0181055-0.0651565,0.0071087-0.1316814,0.00704-0.1973991
		c-0.000042-0.0416799,0.0123339-0.0533466,0.0536642-0.0530105c0.2279625,0.0018554,0.4559536,0.0017333,0.683919,0.0000849
		c0.0397215-0.0002875,0.0551443,0.0083494,0.0545425,0.0517797C11.5986061,7.1472392,11.5996399,7.3336105,11.5993567,7.5199633z"
		/>
	<path fill="#34F1A9" d="M11.5992661,8.6497498c-0.000762,0.0710821,0.0040178,0.1421261-0.0023899,0.2133446
		c-0.0015574,0.0173082-0.0031891,0.0401211,0.0119724,0.0564499c0.1474581,0.082612,0.2949219,0.165226,0.4423866,0.247839
		c-0.0150995,0.0198832-0.0368376,0.0118504-0.0557194,0.0118847c-0.2749434,0.0005083-0.5499601-0.0033064-0.8247938,0.0021935
		c-0.1060705,0.0021229-0.2116756-0.0066328-0.317605-0.0026798c-0.0318489,0.0011883-0.0435686,0.0094175-0.0437622,0.0426493
		c-0.000246,0.0424919,0.010107,0.0860825-0.0073385,0.1276903c0.0000067-0.1499853,0.0000124-0.2999697,0.0000191-0.449954
		c0.0075741-0.0662546,0.0020647-0.1327343,0.0032206-0.1990995c0.0010576-0.0607367,0.0037127-0.0656013,0.0643291-0.0660896
		c0.1580009-0.0012741,0.3160133-0.00037,0.47402-0.0004635c0.0632029-0.0000372,0.1264086-0.0004158,0.1896086,0.0002317
		C11.5562725,8.6339827,11.5803003,8.6318874,11.5992661,8.6497498z"/>
	<path fill="#3AF3B9" d="M13.608489,10.942852c0.0058937-0.0327673,0.032033-0.0231209,0.0516844-0.0231581
		c0.2528162-0.0004921,0.5056324-0.0005703,0.7584486,0.0000095c0.0285578,0.0000648,0.0561657-0.0025969,0.0833273-0.0109577
		c0.1155663,0.1413355,0.2316113,0.2822809,0.3465729,0.4241056c0.1391163,0.1716213,0.2773142,0.3439865,0.4159107,0.5160284
		c-0.0081949,0.0065403-0.0166712,0.0061455-0.0253372,0.0010233c-0.071682-0.0328884-0.1412373-0.0693798-0.2083893-0.1111479
		c-0.0560541-0.0348644-0.1160288-0.0633945-0.1739817-0.0952473c-0.1699696-0.0934229-0.3412571-0.1845837-0.5090008-0.2818518
		c-0.0734234-0.0425749-0.1497593-0.0790348-0.2234564-0.1205645c-0.1685877-0.0950022-0.3340483-0.1955967-0.5074253-0.2819748
		C13.6096296,10.9555235,13.6085386,10.9496727,13.608489,10.942852z"/>
	<path fill="#38F3B5" d="M15.700326,10.689292c-0.0066061-0.0004282-0.0151377,0.0016718-0.0195246-0.0016699
		c-0.0552673-0.0420933-0.119133-0.0279512-0.1805382-0.0280523c-0.243885-0.0004015-0.4877682-0.0002365-0.7316532-0.0000467
		c-0.0225134,0.0000191-0.0479784-0.0060644-0.0599346,0.022646c-0.1116982-0.1363926-0.2237968-0.2724619-0.3349924-0.4092655
		c-0.1343832-0.1653271-0.2680168-0.3312635-0.4019356-0.4969673c-0.0162716-0.020133-0.0323114-0.0404501-0.0456133-0.0644875
		c0.0781975,0.0471334,0.1612692,0.0833483,0.2402792,0.1274233c0.1465054,0.081728,0.2938671,0.1619177,0.4403934,0.2436094
		c0.2467337,0.1375608,0.4928741,0.276186,0.7397041,0.4135733C15.4639263,10.5614071,15.5823555,10.6249361,15.700326,10.689292z"
		/>
	<path fill="#3BF3BC" d="M15.2587414,11.3617411c0.0122585-0.0286837,0.0378847-0.0222731,0.0604067-0.022295
		c0.2264366-0.000226,0.4528742-0.0001345,0.679306-0.0001316c0.0003042,0.3892775,0.0006132,0.7785559,0.0009279,1.1678276
		c-0.0674896-0.0843039-0.1192083-0.1790457-0.1773958-0.269453c-0.1755657-0.2727747-0.349803-0.5464058-0.5237675-0.8202076
		C15.2859106,11.3981085,15.2616329,11.3874626,15.2587414,11.3617411z"/>
	<path fill="#33F1A6" d="M11.5992661,8.6497498c-0.2457228-0.0000191-0.4914541,0.0009089-0.7371626-0.0009708
		c-0.0419493-0.0003195-0.0529461,0.0125809-0.0530081,0.0534382c-0.0001001,0.0655794,0.0110073,0.1319437-0.0070601,0.19695
		c-0.0000048-0.1666231-0.0000114-0.3332462-0.0000172-0.4998693c0.0181065-0.065012,0.0069609-0.1313848,0.0070782-0.1969728
		c0.0000725-0.0408154,0.0109797-0.0538015,0.0529804-0.0534763c0.2457361,0.0019064,0.4914951,0.0009995,0.737236,0.0010443
		C11.5992918,8.3165121,11.5992785,8.4831314,11.5992661,8.6497498z"/>
	<path fill="#35BB98" d="M15.2390957,11.8499031c0.0084391-0.0003424,0.0168772-0.0006838,0.0253267-0.0010242
		c0.0094671,0.0062065,0.0179796,0.0130558,0.0180187,0.0314722C15.2663145,11.8690224,15.2527037,11.8594637,15.2390957,11.8499031
		z"/>
	<path fill="#5E5E65" d="M16.7396431,11.8589783c0.0035572,0.0035791,0.0071144,0.0071592,0.0106716,0.0107403
		c-0.0092983,0.0087776-0.0185947,0.0175533-0.0293808,0.0277309
		C16.7129383,11.8755617,16.7276363,11.8679533,16.7396431,11.8589783z"/>
</g>
</svg>
