<?xml version="1.0" encoding="utf-8"?>
<!-- Generator: Adobe Illustrator 24.1.1, SVG Export Plug-In . SVG Version: 6.00 Build 0)  -->
<svg version="1.1" id="Слой_1" xmlns="http://www.w3.org/2000/svg" xmlns:xlink="http://www.w3.org/1999/xlink" x="0px" y="0px"
	 viewBox="0 0 32 13" enable-background="new 0 0 32 13" xml:space="preserve" width="32" height="13">
<g>
	<path fill="#282839" d="M10.4903193,6.4891324c0-1.0331087,0.0004511-2.0662179-0.0014286-3.0993233
		c-0.0000868-0.0477631,0.0170946-0.0698504,0.0560513-0.0885587c0.1200123-0.0576341,0.2335339-0.1281006,0.3476772-0.1955411
		c0.0863924-0.0510452,0.1771564-0.0936482,0.2623405-0.146292c0.1655083-0.1022825,0.3379669-0.1926923,0.5047903-0.2921863
		c0.0806799-0.0481169,0.1684914-0.0833578,0.2446575-0.1380203c0.0760756-0.0545995,0.1626139-0.0898175,0.2417402-0.1383448
		c0.1746187-0.1070907,0.3569994-0.2007027,0.5323753-0.3061934c0.0727701-0.0437722,0.150032-0.0787394,0.2215757-0.1240981
		c0.1739473-0.1102824,0.3602972-0.199242,0.5340919-0.3094543c0.0685625-0.0434799,0.1416483-0.0776972,0.2116499-0.1180083
		c0.1838531-0.1058747,0.369173-0.209522,0.5526295-0.3158318c0.080101-0.0464176,0.1634569-0.0872681,0.2426062-0.1356862
		c0.1677666-0.1026258,0.3416328-0.1950962,0.5111837-0.2944707c0.0865402-0.0507216,0.1792574-0.0907338,0.261529-0.1477316
		c0.0768948-0.0532713,0.1616812-0.0912982,0.2419653-0.1378335c0.1732454-0.1004195,0.3471584-0.1996844,0.5204477-0.300028
		c0.0208025-0.0120455,0.0383396-0.0101533,0.0587139,0.0006788c0.1512299,0.0803967,0.2993336,0.1668091,0.4474697,0.25224
		c0.1782532,0.1027997,0.3581505,0.2028258,0.5355301,0.3071114c0.0654736,0.0384947,0.1319275,0.0748878,0.197998,0.1121651
		c0.1305466,0.0736536,0.2590981,0.1508443,0.3884945,0.2265379c0.016777,0.0098128,0.0330372,0.0207982,0.0506153,0.0288993
		c0.1314926,0.0605968,0.2509041,0.1428236,0.3778515,0.2117618c0.163599,0.0888418,0.3239117,0.1841624,0.4860096,0.2760911
		c0.1747189,0.0990866,0.3481483,0.2003108,0.5236912,0.2980721c0.0814896,0.0453824,0.1639614,0.0907475,0.2439117,0.1393713
		c0.1682625,0.102335,0.3420849,0.1946862,0.5123615,0.2931616c0.1647549,0.0952826,0.3310776,0.1877959,0.4954262,0.283633
		c0.1715679,0.1000464,0.3452892,0.1962726,0.5164051,0.2969215c0.0815105,0.0479434,0.1670475,0.0884719,0.2471828,0.1377037
		c0.1451912,0.0892024,0.2929268,0.1735587,0.4426975,0.2545586c0.0133705,0.007231,0.0197964,0.0157933,0.0192108,0.0306895
		c-0.0005245,0.0133097-0.0000935,0.0266566-0.0000935,0.0399871c0.0000038,2.0662172-0.0001392,4.1324348,0.0010471,6.1986513
		c0.0000229,0.0390806-0.0099106,0.0604391-0.0446186,0.0791998c-0.1263676,0.0683031-0.2529259,0.1367025-0.3752975,0.2117748
		c-0.0746326,0.0457859-0.155447,0.0806246-0.2274208,0.1295261c-0.0879879,0.059783-0.1874332,0.0985079-0.27528,0.156909
		c-0.081686,0.054307-0.172966,0.0910072-0.2539024,0.1451836c-0.0721779,0.048315-0.1519947,0.0821323-0.2250881,0.127759
		c-0.1755219,0.1095676-0.3610516,0.201745-0.536747,0.3105392c-0.0676308,0.0418768-0.1391354,0.0755892-0.2074375,0.1157465
		c-0.1786861,0.1050606-0.3604259,0.2051001-0.5400047,0.3084755c-0.0859356,0.0494671-0.1748695,0.0937243-0.2594242,0.1454887
		c-0.1664867,0.1019239-0.339817,0.1922016-0.5067158,0.2927055c-0.087532,0.0527124-0.1801491,0.0949621-0.2666817,0.1488123
		c-0.1643124,0.1022482-0.334486,0.1944504-0.5027924,0.2898664c-0.0813675,0.0461292-0.1665611,0.0867748-0.2438087,0.1395159
		c-0.0772247,0.0527229-0.1654778,0.085721-0.2413559,0.1387091c-0.0874157,0.0610476-0.1882477,0.0969267-0.2756557,0.1562672
		c-0.0811424,0.0550861-0.1734829,0.0902967-0.2536507,0.1455755c-0.0836353,0.0576715-0.178896,0.0936995-0.2625408,0.1504011
		c-0.0111809,0.0075788-0.0208397,0.0093508-0.031785,0.0023623c-0.0737505-0.0470905-0.1563234-0.0794125-0.2288504-0.1270037
		c-0.1229696-0.0806894-0.2529087-0.1488676-0.3807917-0.2201118c-0.1276073-0.0710878-0.2533531-0.1456194-0.3811035-0.216486
		c-0.1699467-0.0942726-0.3386278-0.1911917-0.5072498-0.2878971c-0.1664572-0.0954676-0.3338366-0.189374-0.499753-0.2856236
		c-0.1709948-0.0991964-0.3437099-0.195425-0.5137739-0.2960787c-0.07722-0.0457029-0.1578856-0.0849247-0.2340727-0.1317549
		c-0.1704445-0.1047668-0.3475857-0.1977272-0.5195827-0.2996273c-0.0652952-0.0386858-0.1317072-0.0750399-0.1980085-0.1118422
		c-0.1383781-0.0768108-0.2742014-0.1582184-0.4111042-0.2376871c-0.0125475-0.0072842-0.0250006-0.0148373-0.0380192-0.0211954
		c-0.1279612-0.0625124-0.2471104-0.1408358-0.3709908-0.210556c-0.0848475-0.0477524-0.1732407-0.0902882-0.2544622-0.1439133
		c-0.080636-0.0532379-0.1695299-0.0908651-0.2510548-0.1410341c-0.1630716-0.1003494-0.3312321-0.1912823-0.4973211-0.2860823
		c-0.0655527-0.0374165-0.1319637-0.0746822-0.1965971-0.1143637c-0.0138397-0.0084953-0.0185833-0.0154448-0.0176125-0.0298853
		c0.0007792-0.0116119,0.0001497-0.0233173,0.0001497-0.0349817C10.4903193,8.5553503,10.4903193,7.5222416,10.4903193,6.4891324z"
		/>
	<path fill="#FEFEFD" d="M16.7190819,6.8601313c-0.0545158,0.0759134-0.1061249,0.1420989-0.1666641,0.2008128
		c-0.1899872,0.1842613-0.4199142,0.2909184-0.6762991,0.3416343c-0.3776512,0.0747032-0.7551804,0.0731015-1.127346-0.031179
		c-0.5170336-0.1448708-0.8161554-0.4941115-0.9269705-1.0125442C13.79076,6.2136307,13.779192,6.066288,13.7796526,5.9175348
		c0.0013399-0.4332504-0.0008402-0.8665123,0.0007715-1.2997608c0.0026693-0.7175255,0.3775959-1.2482755,1.0533762-1.4964592
		c0.2853498-0.1047959,0.5815649-0.1542804,0.8834496-0.1685877c0.2946711-0.0139654,0.5893373-0.0091927,0.8816595,0.0384641
		c0.403944,0.0658548,0.7808456,0.1948252,1.0906258,0.475738c0.2651043,0.2403965,0.4103355,0.5433218,0.4600887,0.8950045
		c0.0156689,0.1107478,0.0195103,0.2219348,0.0194607,0.3336663c-0.0005302,1.1681418,0.0015411,2.3362889-0.0015507,3.5044227
		c-0.000843,0.3188591-0.0675278,0.6246653-0.2367363,0.9006929c-0.2053947,0.3350544-0.5152035,0.5304728-0.8806114,0.6487885
		c-0.2806396,0.0908689-0.5701752,0.1289225-0.8638554,0.1416941c-0.358963,0.0156126-0.7155962,0.0004101-1.0666475-0.0827169
		c-0.2966623-0.0702477-0.5711708-0.1875181-0.8051395-0.3886356c-0.2719021-0.2337227-0.4242907-0.5325861-0.4837065-0.8825512
		c-0.0274401-0.161622-0.0286961-0.3246984-0.0280724-0.4879827c0.0001097-0.0286036,0.0093737-0.0368481,0.0374012-0.0368013
		c0.429966,0.0007133,0.859931,0.0007763,1.289896-0.0000963c0.0303516-0.000061,0.0395088,0.0083418,0.0396585,0.0392418
		c0.0005074,0.1048412-0.0081072,0.2100754,0.0061779,0.3144875c0.0432348,0.3160238,0.191987,0.4775505,0.5063562,0.5376177
		c0.1848888,0.035327,0.3716755,0.0309114,0.5550022-0.0156212c0.2526379-0.0641222,0.4026585-0.226716,0.4533863-0.4824047
		c0.0221405-0.1115961,0.030407-0.2241135,0.0304108-0.3375349c0.0000114-0.3916025,0.0000229-0.783205-0.0000362-1.1748075
		C16.7210159,6.8856702,16.72015,6.8779473,16.7190819,6.8601313z"/>
	<path fill="#818181" d="M21.2179756,9.3478365c0.0038967,0.0258598,0.0024261,0.0450315-0.026825,0.060668
		c-0.1955357,0.1045294-0.3912144,0.2089653-0.5838242,0.318737c-0.1625404,0.0926352-0.3269138,0.1819162-0.4893875,0.2745199
		c-0.0719948,0.0410337-0.1499195,0.0725565-0.2171631,0.1196594c-0.0968857,0.0678701-0.2080612,0.1079054-0.3067627,0.1725426
		c-0.0826073,0.0540962-0.1742764,0.0951595-0.260685,0.1446342c-0.182579,0.1045408-0.3681717,0.2038221-0.5525036,0.3053045
		c-0.1041126,0.0573177-0.2082634,0.114563-0.3122406,0.1721249c-0.169508,0.0938387-0.3412247,0.18402-0.5072117,0.2837276
		c-0.0699406,0.0420122-0.1436825,0.0755053-0.2139282,0.1161289c-0.1184349,0.0684929-0.236269,0.1382494-0.3570499,0.202405
		c-0.1433125,0.0761242-0.2859802,0.1528225-0.4237804,0.238883c-0.0687237,0.0429211-0.1439915,0.0753632-0.2162991,0.112545
		c-0.0104389,0.0032663-0.0130711-0.0012293-0.0106697-0.0107298c0.3013763-0.36625,0.6028233-0.7324429,0.9040985-1.098774
		c0.147995-0.1799507,0.2956066-0.3602171,0.4435635-0.5401993c0.0201492-0.0245094,0.0430126-0.0450497,0.0717983-0.0606785
		c0.1227703-0.0666504,0.2443352-0.1355171,0.3665466-0.2032042c0.1003036-0.0555506,0.2010841-0.1102428,0.3013248-0.1659088
		c0.1976814-0.1097755,0.394825-0.22052,0.5927944-0.3297691c0.1192799-0.0658245,0.2401962-0.128685,0.359499-0.1944733
		c0.2008514-0.1107588,0.4010067-0.2227879,0.6014538-0.334281c0.0189285-0.0001955,0.0355034,0.007225,0.0519886,0.0154867
		c0.2441025,0.1223354,0.4917145,0.2375479,0.7346115,0.3623276C21.1863575,9.3192921,21.2078228,9.3261805,21.2179756,9.3478365z"
		/>
	<path fill="#03BCC4" d="M20.3969555,4.0611038c-0.1318188-0.0722601-0.2641354-0.1436341-0.3951378-0.2173419
		c-0.0372658-0.0209682-0.0795784-0.0327203-0.1124592-0.0615451c-0.0113869-0.0102019-0.0186005-0.0222085-0.022686-0.0375335
		c-0.0848465-0.3182111-0.1825981-0.6327398-0.2715416-0.9497869c-0.0062866-0.0224037-0.0152512-0.0445821-0.0143719-0.0680447
		c0.0005741-0.015312-0.000267-0.0372591,0.0275497-0.0262349c0.0038395,0.0186946,0.0206947,0.0282612,0.033947,0.0339849
		c0.1391773,0.0601153,0.269083,0.1383841,0.403265,0.2079306c0.1817055,0.0941765,0.3566456,0.2013958,0.5345936,0.3028357
		c0.0288086,0.0164232,0.0579185,0.0323575,0.087307,0.0477221c0.1488533,0.0778241,0.2902107,0.1713135,0.4415684,0.2415562
		c0.101532,0.0471184,0.112772,0.106555,0.1124783,0.2016382c-0.0029507,0.9562676-0.0017929,1.9125478-0.0018883,2.8688247
		c0,0.0182848-0.0011806,0.0365696-0.0018063,0.0548544c-0.0773277,0.0415483-0.1631107,0.0552502-0.2473679,0.072753
		c-0.0330925,0.0068741-0.0396481-0.0243897-0.0464535-0.0480313c-0.042366-0.1471782-0.0854645-0.2941465-0.1282501-0.4411993
		c-0.1278877-0.4395609-0.2511806-0.8804598-0.3836193-1.3186922c-0.0064602-0.0213771-0.0072899-0.042408-0.007164-0.0639887
		c0.0015049-0.2596431-0.0031872-0.5193067,0.0025177-0.778934C20.4076385,4.0726948,20.4048119,4.0658274,20.3969555,4.0611038z"/>
	<path fill="#03BDC2" d="M20.3969555,4.0611038c0.0112381,0.0014687,0.0224781,0.0029378,0.0389099,0.0050855
		c-0.0236206,0.0158844-0.0266743,0.0377603-0.0265942,0.062819c0.0007839,0.2447863-0.0012035,0.4895949,0.0015812,0.7343521
		c0.0007515,0.0660152,0.0379276,0.12502,0.0556335,0.1882157c0.0898647,0.3207364,0.1829071,0.6405864,0.2753181,0.9606071
		c0.0657482,0.2276797,0.1329117,0.4549537,0.1976738,0.6829109c0.0087261,0.0307055,0.0254364,0.0297003,0.047617,0.0237374
		c0.0591927-0.015914,0.1182919-0.0321879,0.1772499-0.0489464c0.0175915-0.0050001,0.0345879-0.0120993,0.0534325-0.0099216
		c0.0006332,0.0149512,0.0018158,0.0299034,0.0018196,0.0448546c0.0000801,0.8660455,0.0000725,1.7320914-0.0000095,2.5981374
		c0,0.0149612-0.0010509,0.0299225-0.0016098,0.0448828c-0.2790852-0.1387196-0.5581684-0.2774363-0.8372517-0.4161463
		c0.0290661-0.0153742,0.0203037-0.0429153,0.0203075-0.0666723c0.0002651-1.0970521,0.0002232-2.1941042,0.0002117-3.2911558
		c-0.0000057-0.4844356,0.0000267-0.9688711-0.0002136-1.4533067C20.401022,4.100739,20.3983727,4.0809212,20.3969555,4.0611038z"/>
	<path fill="#01CDAA" d="M10.8025293,6.2000175c-0.0001602-0.0301776-0.0003195-0.0603552-0.0004787-0.0905328
		c0.0078354-0.1080055,0.0009756-0.2161679,0.003623-0.3242216c0.0004349-0.0177622-0.0048485-0.0363712,0.0064735-0.0565572
		c0.0295982,0.0120125,0.0319214,0.040029,0.0389271,0.0638299c0.0926056,0.3146882,0.1823769,0.6301975,0.273592,0.9452882
		c0.148654,0.5135012,0.2944632,1.0278535,0.4482479,1.5398107c0.0242014,0.0805674,0.0322294,0.1579504,0.0321989,0.23909
		c-0.0000372,0.0999317-0.0001545,0.1998644,0.0000782,0.2997952c0.0000706,0.0299606-0.0070896,0.0597725-0.0002937,0.0899696
		c0.0024424,0.0108461,0.006669,0.0182943,0.0164804,0.0227938c0.0636015,0.0264282,0.1185551,0.0682087,0.1787615,0.1006641
		c0.0380917,0.0925894,0.0590096,0.1905308,0.086935,0.2861567c0.0690746,0.2365274,0.1382475,0.4730492,0.2048903,0.7102861
		c0.0070066,0.0249472,0.0199718,0.0508909-0.0023308,0.0752878c-0.0564842-0.0256062-0.1120901-0.0518951-0.164505-0.0863342
		c-0.0589714-0.0387449-0.1235991-0.0688553-0.1856346-0.1029606c-0.167964-0.0923424-0.3347893-0.1867418-0.5029421-0.27876
		c-0.0739117-0.0404463-0.1498594-0.077652-0.2218904-0.1208c-0.0652552-0.0390863-0.1308022-0.0772581-0.1981974-0.1123257
		c-0.012496-0.0065012-0.0163383-0.0147743-0.0159798-0.0274229c0.0003309-0.0116482-0.0000973-0.0233164-0.0000973-0.034976
		c-0.0000114-1.0260744-0.0000248-2.0521493,0.0000734-3.0782242c0.0000019-0.0166025,0.0013485-0.0332055,0.0020685-0.0498085
		c0.0436592-0.0113134,0.0881386-0.0009332,0.1262436-0.0050793C10.8906546,6.2013922,10.8461962,6.2110214,10.8025293,6.2000175z"
		/>
	<path fill="#02CCAB" d="M11.6213779,8.9292831c-0.0322514-0.0037279-0.0126734-0.0341721-0.0238237-0.0462875
		c-0.013216-0.0143566-0.0278273-0.0215464-0.0003452-0.0355053c0.0046473-0.0023613,0.0029192-0.0186796,0.0029316-0.0285511
		c0.0001602-0.1398392-0.0018492-0.2797241,0.00144-0.4194851c0.000864-0.036725-0.0269089-0.0552006-0.0352116-0.0852566
		c-0.0269136-0.0974178-0.0574741-0.193819-0.0856304-0.2909021c-0.0766001-0.2641172-0.1528435-0.5283389-0.2289362-0.792603
		c-0.0806808-0.2801952-0.1608429-0.5605392-0.2415743-0.8407207c-0.061408-0.2131205-0.1233253-0.426095-0.1852694-0.6390605
		c-0.0011845-0.0040722-0.0055208-0.0072265-0.014658-0.0186462c0,0.113904,0.0002947,0.2192335-0.000289,0.3245587
		c-0.0000973,0.0176601,0.0061083,0.0368824-0.0079622,0.0526614c-0.0005541-0.016603-0.0015926-0.033205-0.0015955-0.0498075
		c-0.0000801-0.803504,0.0002728-1.6070094-0.0010309-2.4105117c-0.0000696-0.0426867,0.0121241-0.0644689,0.0520439-0.0816774
		c0.0551443-0.023772,0.1062021-0.0570219,0.1590099-0.0862129c0.0382986,0.0547481,0.0436859,0.1210277,0.0623102,0.1823912
		c0.0651731,0.2147329,0.1254759,0.4309154,0.1875696,0.6465621c0.1084127,0.3765125,0.2186556,0.7524996,0.325489,1.1269102
		c-0.0001049-0.4281044-0.0002947-0.8589439,0.0006084-1.2897811c0.0000544-0.0258079-0.0121031-0.0575442,0.0202837-0.0757918
		c0.0006819,0.029942,0.0019617,0.0598845,0.0019617,0.0898266c-0.0000343,1.5671344-0.0002069,3.1342688-0.0000153,4.7014022
		C11.6086874,8.8853445,11.6024055,8.9099808,11.6213779,8.9292831z"/>
	<path fill="#02C7B2" d="M15.9996977,12.5069704c-0.0850859-0.1107941-0.1534891-0.2325697-0.2290888-0.3495703
		c-0.1581268-0.2447252-0.3078585-0.495122-0.4728174-0.7350941c-0.1062765-0.1546059-0.233161-0.2950888-0.3513918-0.4414301
		c-0.3348989-0.4145269-0.6701012-0.8288088-1.005146-1.2432184c-0.0059414-0.007349-0.0113964-0.0150881-0.0145874-0.0263433
		c0.0778008,0.0472527,0.1608238,0.0834007,0.2398119,0.1274118c0.1495323,0.0833168,0.2998705,0.1651897,0.4493742,0.248559
		c0.2425251,0.1352425,0.4841223,0.2721539,0.7271013,0.4065695c0.1978674,0.1094608,0.3971405,0.216383,0.5959339,0.3241663
		c0.0186682,0.0101223,0.037549,0.023283,0.0604382,0.0101032c0.0191927,0.0183372,0.0166903,0.042635,0.0167112,0.0655098
		c0.0004902,0.5120792,0.0003242,1.0241585,0.000351,1.5362377C16.0163898,12.4569569,16.0116558,12.4826546,15.9996977,12.5069704z
		"/>
	<path fill="#818181" d="M15.9996977,12.5069704c-0.0001221-0.5596113-0.0002422-1.1192207-0.0003672-1.6788397
		c0.1137505-0.0619469,0.2251987-0.1279287,0.3400345-0.1881142c0.0910912-0.0477409,0.1799908-0.0998697,0.270834-0.1484289
		c0.1303997-0.069705,0.2585316-0.1436558,0.3875389-0.2159624c0.1334133-0.0747786,0.2652359-0.1525631,0.4004707-0.2238817
		c0.1410732-0.0743971,0.2788448-0.1545267,0.418745-0.2307949c0.0809174-0.0441122,0.1606789-0.0914192,0.2509212-0.1238508
		c-0.0569973,0.0699215-0.1137333,0.1400576-0.1710377,0.2097282c-0.2916698,0.3546114-0.5832272,0.7093153-0.8753777,1.063529
		c-0.1195965,0.1450024-0.2462711,0.2845917-0.3589554,0.4347258c-0.0754814,0.1005669-0.1325703,0.2150259-0.1969051,0.3238487
		c-0.1464977,0.2477951-0.2922859,0.4960089-0.4388447,0.7437649
		C16.0194645,12.4850149,16.0148849,12.5004749,15.9996977,12.5069704z"/>
	<path fill="#03C1BD" d="M17.8799191,2.6699538c-0.0936337-0.0500679-0.1876907-0.0993617-0.2808018-0.1503811
		c-0.1471825-0.0806472-0.2943954-0.1612802-0.4403801-0.2440658c-0.1749229-0.0991967-0.3534069-0.1919444-0.5262432-0.2950008
		c-0.0796986-0.0475217-0.169632-0.0773075-0.2432842-0.1361157c-0.0282936-0.0139211-0.0420284-0.037149-0.0506191-0.0674083
		c-0.0888481-0.312966-0.1817951-0.6247586-0.2697124-0.9379861c-0.0081043-0.0288742-0.0320511-0.0622233,0.0025387-0.0915942
		c0.0931702,0.0318078,0.1719532,0.0907916,0.2576523,0.1366955c0.1235867,0.0661993,0.2489395,0.1296158,0.3689289,0.2018738
		c0.121851,0.0733787,0.2507572,0.1333264,0.3725185,0.2068125c0.1113873,0.0672249,0.2282639,0.1253017,0.3418121,0.189027
		c0.0495739,0.0278211,0.0968819,0.0596771,0.1452198,0.0897014c0.0370998,0.1726894,0.0947762,0.3396636,0.141861,0.5095812
		c0.0369034,0.1331656,0.0754738,0.2658818,0.1153107,0.3982172c0.0078926,0.0262139,0.0116673,0.0570533,0.050951,0.0299406
		c0.006813-0.0047026,0.0168018-0.0054388,0.0224686,0.002676c0.0054321,0.0077794,0.0002861,0.0158296-0.0036983,0.0229747
		c-0.0040684,0.0072927-0.0094337,0.0137696-0.0152626,0.0197062c-0.0272179,0.0277209-0.0247059,0.0559182-0.0019264,0.08476
		C17.8743153,2.6483107,17.8839512,2.6563489,17.8799191,2.6699538z"/>
	<path fill="#02CCAC" d="M12.0896339,10.1016779c-0.0000582-0.0728025-0.0307932-0.1384525-0.0499458-0.2065125
		c-0.0762157-0.2708349-0.1547823-0.5410099-0.2332563-0.811204c-0.00527-0.0181513-0.0057526-0.03584-0.0062923-0.0540152
		c0.1426687,0.0782452,0.2852573,0.1566334,0.428031,0.2346859c0.1078033,0.0589333,0.2163181,0.1165819,0.3236685,0.1763239
		c0.1784849,0.099329,0.3566217,0.1992979,0.5341597,0.3003044c0.0475636,0.0270586,0.1012411,0.0428829,0.1438627,0.0788212
		c-0.0043879,0.097517,0.0375948,0.1848564,0.0630827,0.2753105c0.0655184,0.2325058,0.134202,0.4641342,0.2007389,0.6963663
		c0.0050669,0.0176878,0.0105515,0.0355434,0.0072527,0.0540199c-0.0029697,0.016633-0.0062351,0.0353451-0.0313997,0.0238342
		c-0.0843287-0.026001-0.1485395-0.0883179-0.2272635-0.1253452c-0.0832262-0.0391445-0.1622753-0.0872202-0.2428646-0.1319075
		c-0.1675167-0.092885-0.3342667-0.187171-0.5024862-0.2787619c-0.088295-0.0480747-0.1708212-0.1068478-0.2647495-0.1444397
		C12.1795425,10.1680975,12.1409683,10.1245823,12.0896339,10.1016779z"/>
	<path fill="#02CAAF" d="M13.4695358,10.8696127c0.0344286-0.0108614,0.0217619-0.0372906,0.0160332-0.0573978
		c-0.0576181-0.2022343-0.1163712-0.4041481-0.1750298-0.6060867c-0.0318747-0.1097307-0.063776-0.2194557-0.0966063-0.3289003
		c-0.0070877-0.0236311-0.0034914-0.0420189,0.0159283-0.057147c0.0948772,0.0508299,0.1901312,0.1009703,0.2845345,0.1526642
		c0.1165133,0.0638008,0.2317734,0.1299076,0.3486967,0.1929369c0.0476208,0.025672,0.0880032,0.0568533,0.1224022,0.0995102
		c0.4134092,0.5126333,0.8279848,1.0243263,1.2421837,1.5363226c0.012538,0.0154972,0.024312,0.0316133,0.0364408,0.0474396
		c-0.0080948,0.0064363-0.0164413,0.0061054-0.0249681,0.0009251c-0.0751114-0.0339136-0.1467295-0.0740662-0.21772-0.1159925
		c-0.106739-0.0630379-0.2143707-0.1249676-0.3245459-0.1816931c-0.1419916-0.0731106-0.2783661-0.1560211-0.4186115-0.2320805
		c-0.1336403-0.0724773-0.2701931-0.1401272-0.400156-0.2186785c-0.1158638-0.0700312-0.23878-0.1270895-0.3527346-0.2001181
		C13.5073853,10.8897839,13.4881811,10.8801336,13.4695358,10.8696127z"/>
	<path fill="#03BEC1" d="M19.6083088,2.7006168c-0.0287647,0.0077529-0.0169353,0.0267262-0.0120602,0.0437326
		c0.0538902,0.1880071,0.1092148,0.3756185,0.1612587,0.5641353c0.0436211,0.1580026,0.0978031,0.3130715,0.1318512,0.4737284
		c-0.2482853-0.1382523-0.4995728-0.2710333-0.7456379-0.4133854c-0.1337872-0.0773973-0.2721004-0.1469469-0.4079628-0.2207942
		c-0.0393696-0.0213997-0.0773125-0.0454266-0.1159096-0.0682485C18.596941,3.0157139,18.5817261,2.9493465,18.562849,2.884115
		c-0.0713272-0.2464828-0.143055-0.4928524-0.2141266-0.7394097c-0.0164471-0.0570533,0.0042381-0.0912802,0.0627441-0.104902
		c0.1532249,0.0797312,0.3036766,0.1647868,0.4550095,0.2478149c0.141407,0.0775816,0.281826,0.1575201,0.4229374,0.2359626
		C19.3956795,2.5826528,19.5020084,2.6416092,19.6083088,2.7006168z"/>
	<path fill="#02C7B4" d="M12.7687397,2.5061667c0.1196136-0.0754874,0.2492638-0.1332428,0.3676872-0.2113657
		c0.0616636-0.0406799,0.1328068-0.0666783,0.1977043-0.1028333c0.1738939-0.0968757,0.34659-0.1958933,0.5200949-0.2934707
		c0.0345335-0.0194215,0.0705414-0.0362204,0.1058683-0.054229c0.0321007,0.044451,0.0367756,0.0986966,0.0515652,0.1489946
		c0.0537529,0.1828101,0.1072273,0.365716,0.1585264,0.5492401c0.0084972,0.0303988,0.0215101,0.0591116,0.0320692,0.0887363
		c-0.0258627,0.0276115-0.0620308,0.0385606-0.094142,0.0548222c-0.1839247,0.093138-0.3607855,0.1991866-0.5417061,0.2977054
		c-0.1719093,0.0936115-0.345644,0.1847816-0.5128651,0.2871482c-0.0153265,0.0093818-0.0333881,0.0142984-0.0501785,0.0212884
		c-0.0368633-0.0020857-0.0364885-0.0342028-0.0430689-0.0574193c-0.0512152-0.1806996-0.1052494-0.3605814-0.1564045-0.5412951
		c-0.0117693-0.041579-0.0240002-0.0830333-0.0356159-0.1246552C12.762495,2.5481153,12.755724,2.5269444,12.7687397,2.5061667z"/>
	<path fill="#02C3B9" d="M16.0714169,0.7474019c-0.0124855,0.0620191,0.0184975,0.1162372,0.0343094,0.1721307
		c0.0818729,0.2894406,0.1679459,0.577692,0.2502575,0.8670114c0.006813,0.0239481,0.0202103,0.0397226,0.0332241,0.0578346
		c-0.0620403-0.0243345-0.1208458-0.0557005-0.1761341-0.0921224c-0.0600872-0.0395849-0.1285057-0.0629479-0.188036-0.1028053
		c-0.0191822-0.0128436-0.0344982-0.0032287-0.0506468,0.0056354c-0.2472372,0.1357104-0.4944954,0.2713823-0.7417479,0.4070635
		c-0.0369062-0.0034506-0.0334501-0.0367024-0.039793-0.0589802c-0.052206-0.183385-0.1071367-0.3659793-0.15909-0.5494337
		c-0.0117445-0.0414762-0.0241594-0.0827758-0.0353537-0.1243963c-0.0050192-0.0186666-0.0136614-0.0383781,0.0016613-0.056854
		c0.0338774-0.0231266,0.0651913-0.0520689,0.1020937-0.068337c0.1335487-0.0588747,0.2567587-0.1369003,0.3838129-0.2071568
		c0.1647158-0.0910821,0.330431-0.1805167,0.4939394-0.2737939C16.0223351,0.6989979,16.0433807,0.7305212,16.0714169,0.7474019z"/>
	<path fill="#02CAAE" d="M11.6067381,4.0715661c-0.0119219,0.0184002-0.0061903,0.0389652-0.0062056,0.0584478
		c-0.0003614,0.4328613-0.0002775,0.8657227-0.0002775,1.2985845c0,0.0175309,0,0.0350618,0,0.0525932
		c-0.036643-0.0417299-0.0435944-0.0927958-0.0574942-0.1403394c-0.0929842-0.3180499-0.1835136-0.6368155-0.2753649-0.9551969
		c-0.053277-0.1846766-0.1080084-0.3689342-0.1611681-0.5536442c-0.0335188-0.1164627-0.0708132-0.2319226-0.0957508-0.3507361
		c0.1280041-0.0709884,0.2562332-0.1415775,0.383955-0.2130718c0.1439676-0.0805881,0.2874575-0.1620264,0.4312897-0.2428572
		c0.0040607-0.0022814,0.0096416-0.0018618,0.014513-0.002702c0.065094,0.2383389,0.1355286,0.4751494,0.203845,0.7125666
		c0.007309,0.025399,0.0179577,0.05005,0.0191479,0.0769994c-0.0997896,0.0584815-0.1995964,0.1167667-0.3032293,0.1685302
		C11.7070093,4.0072083,11.6577063,4.0410547,11.6067381,4.0715661z"/>
	<path fill="#02C5B7" d="M15.0000677,1.2724851c0.0306749,0.1134937,0.0603037,0.2272836,0.0923052,0.3404024
		c0.0370007,0.1307918,0.0757751,0.2610868,0.1146088,0.3913504c0.0059929,0.0201061,0.0072966,0.0429904,0.0256548,0.0579073
		c-0.1669931,0.0953505-0.3367805,0.1857569-0.5041361,0.2803071c-0.1154499,0.0652244-0.2344475,0.1240473-0.3476095,0.1935091
		c-0.0574112,0.0352404-0.1189651,0.0637319-0.1786413,0.0952761c-0.0203428-0.0000625-0.0228109-0.0166852-0.0268373-0.0304608
		c-0.0717649-0.245492-0.1432657-0.491061-0.2145605-0.7366902c-0.0017881-0.0061618-0.0005713-0.0131959-0.0007572-0.0198209
		c0.1234941-0.0740516,0.2535906-0.1363953,0.3751183-0.2141809c0.0526991-0.0337303,0.1121159-0.0567759,0.1671686-0.0870587
		c0.1555758-0.0855774,0.3104267-0.172472,0.4657459-0.2585169C14.977973,1.2790548,14.9893847,1.2764273,15.0000677,1.2724851z"/>
	<path fill="#02C9B0" d="M12.0632277,3.8122101c-0.0360498-0.0405674-0.0366488-0.0943513-0.0510006-0.142463
		c-0.0595694-0.1996853-0.1158524-0.4003499-0.1742125-0.6004007c-0.0049229-0.016875-0.0095425-0.0316069,0.0022221-0.046706
		c0.0942688-0.0611446,0.1950865-0.1104729,0.2936773-0.163914c0.1606722-0.0870903,0.3198099-0.1770136,0.479557-0.2658081
		c0.0518179-0.0288024,0.1035175-0.0578127,0.1552696-0.0867398c0.0254793,0.1214886,0.0656519,0.2389662,0.0984926,0.3584499
		c0.0337381,0.1227453,0.0691414,0.2450452,0.1052551,0.3671148c0.0063276,0.0213928,0.0081911,0.0467072,0.0308666,0.0604546
		c-0.1083288,0.0609591-0.2165489,0.1221247-0.3250313,0.1828191c-0.186842,0.1045358-0.3737774,0.2089043-0.5608997,0.3129373
		C12.1001892,3.7975359,12.0813322,3.8041945,12.0632277,3.8122101z"/>
	<path fill="#03BFBF" d="M18.4114666,2.0398033c-0.065937,0.0505285-0.0641727,0.0500107-0.0419273,0.1258416
		c0.0830135,0.2830012,0.1650562,0.5662889,0.2463799,0.8497801c0.0057869,0.0201705,0.0028229,0.0428503,0.0039291,0.0643618
		c-0.1183376-0.0635974-0.2374935-0.1257293-0.3547821-0.1912019c-0.1174831-0.0655808-0.2325134-0.1355426-0.3527966-0.1961207
		c-0.0116158-0.0058501-0.0216045-0.0149288-0.0323505-0.0225096c-0.0075779-0.0206773-0.0321159-0.0236964-0.0415001-0.0470397
		c-0.0215931-0.0537045,0.0231285-0.072974,0.0461388-0.1038418c-0.00387-0.0022459-0.0075703-0.005445-0.0084953-0.0047808
		c-0.0527039,0.0378637-0.0533276,0.038084-0.0720253-0.0260563c-0.0834904-0.2864103-0.1666336-0.5729228-0.2497063-0.8594551
		c-0.0055656-0.0191896-0.009861-0.0388657,0.0032177-0.0572697c0.0961742,0.046764,0.1874332,0.1026245,0.2825203,0.1516455
		c0.1467533,0.0756556,0.2890873,0.1599509,0.4325294,0.2419224C18.3182983,1.9911948,18.3726101,2.0011783,18.4114666,2.0398033z"
		/>
	<path fill="#02CCAB" d="M10.8025293,6.2000175c0.0425453,0,0.0850906,0,0.127635,0
		c-0.0000095,0.0033498-0.0000191,0.0066986-0.0000286,0.0100484c-0.0425358,0-0.0850725,0-0.1276073,0
		C10.8025293,6.2067161,10.8025293,6.2033672,10.8025293,6.2000175z"/>
	<path fill="#0C9C90" d="M15.239151,11.8498793c0.0083113-0.0003099,0.0166225-0.0006189,0.024951-0.000926
		c0.0093651,0.0062323,0.0181446,0.0128641,0.0186167,0.0315866C15.2663536,11.8690224,15.2527514,11.8594513,15.239151,11.8498793z
		"/>
	<path fill="#5E5E65" d="M16.739645,11.8589869c0.0035553,0.0035753,0.0071125,0.0071497,0.0106678,0.0107279
		c-0.0092964,0.0087805-0.0185928,0.0175581-0.0293808,0.0277405C16.7129383,11.8755665,16.7276363,11.8679581,16.739645,11.8589869
		z"/>
	<path fill="#282839" d="M15.2289286,5.1978402c-0.0000057-0.2132087-0.0017366-0.4264326,0.0003805-0.6396184
		c0.0035887-0.3612213,0.2057152-0.5805383,0.5656767-0.6180801c0.1905298-0.0198712,0.379323-0.0169065,0.5612993,0.0508926
		c0.210741,0.0785162,0.3218822,0.2366869,0.3543243,0.4552143c0.0085888,0.0578485,0.0104866,0.1160059,0.0104389,0.1743097
		c-0.0003262,0.4081383,0.0025463,0.8163152-0.0023232,1.2243996C16.7158375,6.0869603,16.6292,6.2872095,16.3957596,6.3974214
		c-0.0804081,0.037961-0.1661835,0.059269-0.254364,0.0675974c-0.1529665,0.0144472-0.3058538,0.0171361-0.4564228-0.0214553
		c-0.2928534-0.075058-0.4528236-0.2776556-0.455636-0.5811319C15.2272835,5.6409192,15.2289343,5.419373,15.2289286,5.1978402z"/>
	<ellipse fill="#1CBCA3" cx="11.4562349" cy="6.2253146" rx="0.1745427" ry="0.0028102"/>
	<ellipse fill="#1BBDA3" cx="11.1198769" cy="6.2146788" rx="0.1678081" ry="0.0033322"/>
</g>
</svg>
