<?xml version="1.0" encoding="utf-8"?>
<!-- Generator: Adobe Illustrator 24.1.1, SVG Export Plug-In . SVG Version: 6.00 Build 0)  -->
<svg version="1.1" id="Слой_1" xmlns="http://www.w3.org/2000/svg" xmlns:xlink="http://www.w3.org/1999/xlink" x="0px" y="0px"
	 viewBox="0 0 32 13" enable-background="new 0 0 32 13" xml:space="preserve" width="32" height="13">
<g>
	<path fill="#282839" d="M21.5196781,6.4918127c0,1.0331068-0.0002842,2.0662136,0.0010777,3.0993185
		c0.0000515,0.0395889-0.0119705,0.0599194-0.0457935,0.0784693c-0.203804,0.1117649-0.4052868,0.2278719-0.6068649,0.3434248
		c-0.0888023,0.0509043-0.1806164,0.09692-0.2677898,0.1508808c-0.1618862,0.1002083-0.3290138,0.1913166-0.494854,0.2847004
		c-0.1744499,0.0982332-0.3485699,0.197216-0.5199547,0.3006401c-0.0707111,0.0426712-0.1451931,0.0776548-0.2160721,0.1196909
		c-0.176981,0.1049604-0.3579903,0.2031183-0.5355911,0.3067226c-0.0843239,0.0491915-0.1716728,0.0928669-0.2551422,0.1434822
		c-0.168211,0.1020041-0.342205,0.1942892-0.5111256,0.29459c-0.08634,0.0512695-0.1773453,0.0932159-0.2624416,0.1461554
		c-0.1657524,0.1031122-0.3374805,0.1958666-0.5070171,0.2924118c-0.0798702,0.0454817-0.1634941,0.0855627-0.2396011,0.1375256
		c-0.078371,0.0535107-0.1658401,0.0904541-0.2462311,0.1397057c-0.1747341,0.1070538-0.3579292,0.1993837-0.5322895,0.3066444
		c-0.0847454,0.0521297-0.1767483,0.0906334-0.25877,0.146904c-0.0132217,0.0090704-0.0224161,0.0050488-0.0355148-0.0024738
		c-0.0574408-0.0329933-0.1167631-0.0627098-0.1741896-0.0957289c-0.1285334-0.0739031-0.2563677-0.1490307-0.3844147-0.2237816
		c-0.0112095-0.0065432-0.021184-0.0155945-0.0329304-0.0207634c-0.138669-0.0610304-0.2631435-0.1477709-0.3956032-0.2200899
		c-0.1690893-0.0923185-0.3355598-0.1898422-0.5030241-0.2852688c-0.1681061-0.0957928-0.336628-0.1910019-0.5040865-0.2878399
		c-0.1697102-0.0981407-0.3404932-0.194478-0.509491-0.2937632c-0.0787516-0.0462646-0.1607065-0.0866213-0.2382536-0.134367
		c-0.1703739-0.1049032-0.3476448-0.1976414-0.5195379-0.2997198c-0.0652695-0.0387602-0.1318035-0.0748816-0.1981068-0.1116753
		c-0.1369801-0.0760117-0.2716427-0.1561937-0.4072819-0.234621c-0.0195732-0.0113182-0.0387859-0.0233955-0.0589972-0.0334501
		c-0.1216669-0.0605288-0.2355824-0.1349096-0.3536835-0.2016783c-0.0819483-0.0463295-0.1655607-0.0901775-0.2465582-0.1384029
		c-0.1690216-0.1006336-0.3413458-0.1955223-0.5119076-0.2933598c-0.075738-0.0434446-0.1548243-0.0814209-0.227972-0.1283503
		c-0.0695438-0.0446157-0.1416416-0.0841513-0.2130432-0.1251287c-0.0120125-0.0068941-0.017417-0.0123615-0.0164614-0.0255852
		c0.0008383-0.0116034,0.0001593-0.0233154,0.0001593-0.0349798c0-2.0678792,0.0001745-4.1357589-0.0011578-6.2036371
		c-0.0000296-0.0445366,0.0127888-0.0664959,0.05268-0.0854962c0.1201572-0.0572295,0.2339087-0.1275291,0.3475552-0.1957977
		c0.0917311-0.0551028,0.1879902-0.1010175,0.2794924-0.1559391c0.1417809-0.0851007,0.2852421-0.1674197,0.4284315-0.2501528
		c0.1542978-0.0891507,0.3088055-0.177948,0.4637909-0.2658958c0.1101217-0.0624895,0.221714-0.122391,0.3317022-0.1851087
		c0.1526709-0.087055,0.304203-0.1761076,0.4567032-0.2634629c0.1093225-0.0626217,0.2198086-0.123215,0.3291111-0.1858692
		c0.1714344-0.098269,0.3426561-0.1968895,0.5147781-0.2939445c0.079999-0.0451081,0.1635771-0.0853119,0.2396822-0.137048
		c0.0825968-0.0561486,0.1746311-0.0947142,0.2593794-0.1462948c0.1639004-0.099754,0.3340826-0.188489,0.4995003-0.2851398
		c0.1735468-0.1014005,0.3492832-0.1988288,0.5225573-0.3004735c0.0787382-0.0461884,0.1607857-0.0863423,0.2380486-0.13464
		c0.1699314-0.1062261,0.3483458-0.1975472,0.5205488-0.2997079c0.0217333-0.0128934,0.0406179-0.0126487,0.0630255-0.0006174
		c0.1523514,0.0818071,0.3016167,0.1693808,0.4516106,0.2550768c0.1335926,0.0763255,0.2655487,0.1567292,0.4004841,0.2305438
		c0.1261883,0.0690284,0.2487049,0.1444419,0.3748188,0.2135937c0.0852127,0.0467256,0.1734333,0.0901065,0.2543945,0.143925
		c0.0806141,0.0535886,0.1704712,0.0894946,0.2512341,0.1407453c0.166317,0.1055427,0.3414001,0.1952579,0.5111046,0.2945186
		c0.1645203,0.0962291,0.331749,0.1877695,0.495863,0.2843995c0.0857315,0.0504775,0.1758041,0.0927727,0.259861,0.1452947
		c0.1691856,0.1057183,0.3460102,0.1978899,0.5177307,0.2989184c0.0786705,0.046284,0.1638145,0.0823567,0.2380466,0.1333663
		c0.1069889,0.0735207,0.2290688,0.1196737,0.333231,0.1967239c0.012846,0.0095024,0.0281277,0.0157158,0.0422878,0.0234396
		c0.1531506,0.0835376,0.3053761,0.1685677,0.4532223,0.2614236c0.0518398,0.0325599,0.1103764,0.0544372,0.1623459,0.0868194
		c0.094017,0.0585811,0.1956825,0.1039951,0.2888184,0.1622708c0.0812397,0.0508318,0.1680355,0.0910246,0.2476349,0.14308
		c0.0577507,0.0377696,0.1169739,0.071722,0.1783772,0.102267c0.0156593,0.0077908,0.023407,0.0161984,0.0225639,0.0332758
		c-0.0005779,0.0116348-0.0000954,0.0233223-0.0000954,0.0349865C21.5196781,4.4222674,21.5196781,5.4570403,21.5196781,6.4918127z"
		/>
	<path fill="#FEFEFD" d="M15.2827454,5.9692049c0.0586843-0.0645823,0.1113348-0.132381,0.1734419-0.191896
		c0.193449-0.1853728,0.4273624-0.2918887,0.6871862-0.3413458c0.378088-0.0719676,0.7562141-0.0690832,1.1271687,0.039382
		c0.5045033,0.1475148,0.7981815,0.4926801,0.908144,1.0009422c0.0310726,0.1436205,0.044239,0.2892108,0.0440712,0.4362273
		c-0.0005074,0.4465976,0.003336,0.8932333-0.0012398,1.3397846c-0.0040207,0.3925209-0.1187992,0.7474194-0.3907528,1.0400696
		c-0.2298431,0.2473364-0.5188999,0.3954868-0.8398838,0.4865322c-0.2412891,0.0684423-0.4881325,0.1009798-0.7383709,0.1120787
		c-0.3708401,0.016448-0.7387552-0.0015917-1.1004925-0.0914536c-0.3366547-0.0836296-0.6421289-0.2265644-0.890563-0.4759407
		c-0.223959-0.2248087-0.3502121-0.4977684-0.4009275-0.8084755c-0.018301-0.112114-0.0233879-0.2248802-0.0233498-0.3383007
		c0.0003977-1.1764417-0.0011559-2.3528857,0.0011425-3.5293226c0.0006466-0.3315644,0.0712109-0.647567,0.2528658-0.9307864
		c0.2068605-0.3225179,0.5124111-0.5107291,0.8691196-0.6254232c0.2872324-0.0923553,0.5835781-0.1310062,0.8841629-0.1406302
		c0.2749777-0.0088036,0.5493536-0.0039077,0.8217936,0.0403845c0.3388157,0.0550838,0.6595402,0.1568961,0.9386959,0.3648999
		c0.3159847,0.2354467,0.4970951,0.5523896,0.5646763,0.9377675c0.0292072,0.1665554,0.0305767,0.334506,0.0297298,0.5027866
		c-0.0001373,0.0273499-0.0099144,0.0331011-0.0349369,0.0330658C17.73279,4.8289466,17.3011513,4.828723,16.8695183,4.8298726
		c-0.0342751,0.0000911-0.036541-0.0148373-0.0368443-0.0419259c-0.0012684-0.113112,0.0060711-0.2264032-0.0093498-0.339251
		c-0.0360909-0.2640996-0.1841412-0.428472-0.4416885-0.4916272c-0.212429-0.0520916-0.4258757-0.0479035-0.6372662,0.0075319
		c-0.256238,0.0671961-0.3898916,0.2428401-0.4356632,0.496742c-0.019618,0.1088238-0.0245047,0.2185001-0.0251093,0.3280621
		C15.2814264,5.1826611,15.2827454,5.5759368,15.2827454,5.9692049z"/>
	<path fill="#818181" d="M16.7396431,11.8589821c0.3012905-0.3661528,0.6026516-0.7322483,0.9038429-1.0984821
		c0.147953-0.1799011,0.2956104-0.3600464,0.4433632-0.5401154c0.0224171-0.0273237,0.0489826-0.0481367,0.0806503-0.0652418
		c0.1199493-0.0647888,0.2383118-0.1325064,0.3575554-0.1986074c0.1017094-0.0563822,0.2040386-0.1116476,0.3056965-0.1681204
		c0.1961555-0.1089697,0.3916931-0.2190504,0.5881405-0.3274889c0.1294403-0.0714512,0.2606277-0.1397381,0.3899422-0.2114124
		c0.1860943-0.1031427,0.3708134-0.2087727,0.5571365-0.311492c0.0279484-0.0154066,0.0352688-0.0334444,0.0352573-0.0631981
		c-0.0005875-1.5892854-0.0005264-3.1785707-0.0004044-4.7678561c0.0000019-0.0219984,0.0002136-0.04041-0.0244751-0.0539451
		c-0.2126732-0.1166008-0.4242706-0.2351642-0.6366787-0.3522565c-0.1776676-0.0979416-0.356226-0.1942713-0.5339699-0.2920778
		c-0.2270031-0.124913-0.4538822-0.250052-0.6802597-0.3760948c-0.230978-0.1286044-0.4595814-0.261493-0.6944771-0.3830137
		c-0.0188484-0.0097504-0.0348148-0.0250702-0.0521202-0.0378017c-0.0063248-0.0194175,0.0103474-0.0257699,0.0205231-0.0354791
		c0.1454945-0.1388001,0.2970009-0.271086,0.4432793-0.4090705c0.0422611-0.0398648,0.0869656-0.077234,0.1278324-0.1187196
		c0.0092926-0.0094335,0.0190296-0.0190518,0.0341816-0.0175896c0.0467243,0.0415101,0.1056252,0.062052,0.159174,0.0916901
		C18.6650829,2.178648,18.76894,2.2307503,18.86866,2.2886109c0.1445026,0.0838444,0.2917728,0.1627219,0.4365044,0.2460942
		c0.0930405,0.0535967,0.1912651,0.1003337,0.282835,0.155158c0.1034393,0.061929,0.2168522,0.1060371,0.3139629,0.1783695
		c0.0284729,0.0212073,0.0636864,0.0288625,0.0934601,0.0467706c0.1148186,0.069062,0.2344189,0.1295505,0.3492298,0.1988528
		c0.1191578,0.0719273,0.2441406,0.1341681,0.3660717,0.2015514c0.1270771,0.0702267,0.2535591,0.1415317,0.3802967,0.2123759
		c0.017374,0.0097117,0.033638,0.0238867,0.0522614,0.028441c0.068634,0.0167835,0.0779057,0.0612798,0.0778446,0.1254995
		c-0.0017643,1.884701-0.0015869,3.7694051-0.0004215,5.6541071c0.0000267,0.042284-0.0120144,0.0630856-0.050108,0.083251
		c-0.188673,0.0998707-0.3764839,0.2015562-0.5618973,0.3073416c-0.1625557,0.0927448-0.3269062,0.1822042-0.4895,0.2747355
		c-0.0749474,0.0426531-0.1564236,0.0749502-0.2260551,0.1242809c-0.0939846,0.0665855-0.199892,0.1099777-0.2984352,0.1670933
		c-0.1375065,0.0797033-0.2780647,0.1551647-0.4174366,0.2321777c-0.1638584,0.0905447-0.3288574,0.1790972-0.4922619,0.2702646
		c-0.1428108,0.0796757-0.2864056,0.1580238-0.4287796,0.2384577c-0.1832142,0.103507-0.3667355,0.206254-0.5517941,0.3064957
		c-0.1480026,0.0801668-0.2946911,0.1630974-0.4411507,0.2460785c-0.0991554,0.0561819-0.2026863,0.1047182-0.2971497,0.1704254
		c-0.0661869,0.0460367-0.1434841,0.0760946-0.2158203,0.1132889
		C16.7398796,11.8729763,16.7372379,11.8684874,16.7396431,11.8589821z"/>
	<path fill="#05BFE6" d="M14.0298872,1.8100488c0.0642462-0.0577884,0.1469259-0.0829759,0.2205353-0.1241777
		c0.1720495-0.0963033,0.3470869-0.187433,0.5170994-0.2871608c0.1638756-0.0961274,0.3311481-0.1857977,0.4970722-0.2780765
		c0.155776-0.0866339,0.3115959-0.1732196,0.4670162-0.2604254c0.082077-0.0460521,0.1668634-0.0871385,0.2473869-0.1359004
		c0.0179567-0.0108739,0.0341501-0.0151939,0.0553865-0.0042068c0.1482887,0.0767217,0.2928448,0.1603498,0.4395351,0.2399514
		c0.1566448,0.0850032,0.3129368,0.1711429,0.4677219,0.2593151c0.1425037,0.0811763,0.2840576,0.1650373,0.4266491,0.2461092
		c0.0977783,0.0555941,0.1901855,0.1239469,0.299593,0.1583022c0.0152626,0.0047939,0.022438,0.0174913,0.031477,0.0286094
		c-0.0039692,0.0257336-0.0250607,0.0285484-0.044529,0.0319402c-0.0230007,0.0040069-0.0464554,0.0025159-0.0697308,0.0025196
		c-0.4723988,0.0000734-0.9447975-0.0001043-1.4171963,0.0002923c-0.0267372,0.0000224-0.0529938-0.0037957-0.0794868-0.005633
		c-0.0612946-0.0491689-0.116847-0.03089-0.1771698,0.0072914c-0.0764408,0.0483848-0.1577444,0.0891269-0.2373333,0.132465
		c-0.0157232,0.0085613-0.0331736,0.0139492-0.0498276,0.0208006c-0.039258,0.0112923-0.0793343,0.0046124-0.1189737,0.0046489
		c-0.458786,0.000421-0.9175701,0.0002964-1.3763561,0.0002192c-0.0232468-0.0000038-0.0468397,0.0022163-0.0695829-0.0030985
		C14.0425453,1.8399483,14.0195169,1.8386086,14.0298872,1.8100488z"/>
	<path fill="#818181" d="M15.9992647,10.8280544c0.1153898-0.0623789,0.2283697-0.1289949,0.3445921-0.1900835
		c0.0895271-0.0470562,0.1771832-0.0981445,0.266386-0.1462526c0.1301479-0.0701904,0.2584667-0.1437759,0.3874664-0.2160826
		c0.1334133-0.0747776,0.2652302-0.1525736,0.4004707-0.223875c0.1410789-0.0743809,0.2789822-0.1542387,0.4186802-0.2309084
		c0.080801-0.0443459,0.1615639-0.0897179,0.2510109-0.1237574c-0.0569859,0.0699091-0.1137066,0.1400347-0.1709976,0.2096901
		c-0.291666,0.3546066-0.5832195,0.7093039-0.8753662,1.0635128c-0.1195965,0.1450014-0.2462654,0.2845898-0.3589478,0.4347191
		c-0.0754833,0.100565-0.1325779,0.2150173-0.1969166,0.3238382c-0.1464939,0.2477894-0.2922859,0.4959965-0.4388294,0.7437563
		c-0.007309,0.0123606-0.0120354,0.027709-0.0270681,0.03438c-0.0099602-0.0231333-0.016017-0.0469437-0.0160122-0.0724688
		c0.0000744-0.4428301-0.0004721-0.8856583,0.0004082-1.3284883c0.0000105-0.0049849,0.0006752-0.009963,0.0009747-0.0149384
		c-0.0025091-0.0690002-0.0008593-0.1380224-0.0009098-0.207036C15.9841909,10.8641043,15.9862299,10.8445663,15.9992647,10.8280544
		z"/>
	<path fill="#04C2DD" d="M14.4637909,2.4821265c-0.0648823,0.056329-0.1456738,0.0853746-0.219429,0.1261876
		c-0.2277832,0.1260438-0.4544048,0.2541807-0.6835527,0.3778505c-0.1032228,0.0557086-0.2088327,0.1087203-0.3073006,0.1736348
		c-0.0275555,0.0181661-0.0569715,0.0340195-0.0897245,0.0418599c-0.0141678,0.0043018-0.0267897,0.0126693-0.0427732,0.0121455
		c-0.4960747-0.0162649-0.9923-0.0025146-1.4884357-0.0073628C11.6175995,3.2062953,11.602479,3.206332,11.5881205,3.201246
		c-0.0111475-0.0039492-0.0225801-0.0081787-0.0194674-0.0239475c0.0970211-0.0676081,0.203661-0.1185515,0.3065491-0.175899
		c0.1649075-0.0919149,0.3333626-0.1776607,0.4961767-0.2730787c0.1621571-0.0950329,0.3282633-0.1826766,0.491785-0.2750785
		c0.1606398-0.0907731,0.3197212-0.1843715,0.4847984-0.2671015c0.0214014-0.0107255,0.035162-0.0346551,0.0620022-0.0361464
		c0.0576086,0.0708325,0.1079588,0.1473575,0.1515083,0.2267399c0.0408564,0.074476,0.0907631,0.1043105,0.1779404,0.1013529
		c0.230547-0.0078211,0.4614687,0.0012691,0.6922083-0.0047696C14.443264,2.4730129,14.4550505,2.4719453,14.4637909,2.4821265z"/>
	<path fill="#04C0E3" d="M16.0884171,1.6815073c0.0210667-0.0134025,0.0446796-0.0108199,0.0678825-0.0108199
		c0.4894028,0.0000002,0.9788055,0.000008,1.4682083-0.0000216c0.0264015-0.0000015,0.0538292,0.0038786,0.0748539-0.0182781
		c0.0931549,0.0381835,0.1792965,0.0895643,0.2667427,0.1389c0.1450672,0.0818408,0.2922421,0.159941,0.4385414,0.2396241
		c-0.1610317,0.1495137-0.322073,0.2990243-0.4831219,0.4485238c-0.0475388,0.0441294-0.095108,0.0882266-0.1426735,0.1323404
		c-0.1135254-0.0482566-0.2164879-0.1163266-0.325098-0.1738195c-0.1719398-0.0910182-0.3443069-0.1817145-0.5118351-0.2804503
		c-0.1777267-0.1047475-0.3621387-0.1971438-0.5397739-0.3019025C16.2991619,1.7948706,16.1930943,1.7393652,16.0884171,1.6815073z"
		/>
	<path fill="#04C0E2" d="M14.4637909,2.4821265c-0.0374098,0.0094185-0.0755377,0.0085738-0.1136999,0.0085409
		c-0.2264624-0.0001957-0.4529257-0.0006979-0.6793795,0.0005336c-0.0351019,0.0001907-0.0581417-0.0087557-0.0776091-0.0403354
		c-0.0504808-0.0818837-0.1054192-0.1610081-0.1576138-0.2418561c-0.011569-0.0179205-0.023283-0.0366521-0.0255241-0.0590148
		c0.126689-0.0703115,0.253581-0.140259,0.3799925-0.2110667c0.0792274-0.0443786,0.1553068-0.0945563,0.2399302-0.128879
		c0.0075979,0.0331028,0.0345469,0.0200298,0.0532618,0.0200573c0.4825544,0.0007068,0.9651098,0.000684,1.4476652,0.0002737
		c0.0318184-0.0000272,0.0629463,0.0014828,0.0932598,0.0116829c-0.0362749,0.0233177-0.0713005,0.0489396-0.1090508,0.0695784
		c-0.2683334,0.1467038-0.5381451,0.2907313-0.805377,0.4393986C14.628396,2.3962414,14.5505533,2.4473741,14.4637909,2.4821265z"/>
	<path fill="#04C3D9" d="M11.5686531,3.1772985c0.016243,0.0218647,0.0398607,0.0127492,0.0602007,0.0127714
		c0.4727163,0.0005188,0.9454365,0.0010803,1.4181461-0.0008163c0.040206-0.0001609,0.0765924,0.0216572,0.1167679,0.0124037
		c-0.0584087,0.0343981-0.1155062,0.0713301-0.1755009,0.1027257c-0.1966238,0.1028955-0.3841362,0.222574-0.5852757,0.3170815
		c-0.0291395,0.0104728-0.0592403,0.0049829-0.0889359,0.0050199c-0.4654846,0.0005765-0.9309711-0.0011475-1.3963871,0.0010443
		c-0.0287342,0.0043042-0.0510836-0.0086753-0.0705872-0.027571c-0.0093956-0.0091023-0.0126858-0.019531,0.0027246-0.0270851
		c0.1041927-0.0539534,0.2085342-0.1098621,0.307086-0.1713965c0.0984516-0.0614705,0.2091866-0.0994406,0.3020496-0.170579
		C11.4900141,3.207093,11.5273275,3.1853635,11.5686531,3.1772985z"/>
	<path fill="#00D99C" d="M15.9983883,11.0893478c0.0005369,0.2945051,0.0012178,0.5890093,0.0015574,0.8835144
		c0.000205,0.17805-0.0001221,0.3560991-0.000205,0.5341387c-0.0843-0.1092215-0.1517048-0.2295837-0.2264309-0.3450689
		c-0.1591158-0.2459145-0.312438-0.4956284-0.4745111-0.7395515c-0.0669603-0.1007767-0.1503658-0.1906157-0.2260933-0.2855902
		c-0.0092611-0.0116158-0.017272-0.024229-0.0258617-0.0363789c0.0174055-0.0260515,0.0450926-0.0265265,0.0715084-0.0266409
		c0.2746687-0.0011988,0.5493431-0.000824,0.8240147-0.0002613C15.9622202,11.0735493,15.9827299,11.0734549,15.9983883,11.0893478z
		"/>
	<path fill="#01D6A6" d="M12.7702217,9.5694065c0.0845613,0.0458946,0.1714458,0.0880518,0.2530241,0.1387472
		c0.0800295,0.0497303,0.1675787,0.0853939,0.2467365,0.1341734c0.0723381,0.0445757,0.1514778,0.0771084,0.2198801,0.1278839
		c-0.0034342,0.022542-0.0223846,0.021596-0.0379896,0.0238094c-0.0214233,0.0030375-0.043191,0.0016403-0.0648174,0.0016422
		c-0.4542675,0.0000343-0.908536-0.0000324-1.3628035,0.0001249c-0.0381842,0.0000134-0.0764837-0.0012827-0.1144419,0.0047741
		c-0.1554976-0.0690308-0.2994318-0.1601391-0.4476576-0.2423439c-0.0914555-0.0507212-0.1908064-0.0903053-0.2727108-0.1582279
		c0.0156059-0.029582,0.0444469-0.0257969,0.0702572-0.0260811c0.1080494-0.0011911,0.2161121-0.0005417,0.3241692-0.0004845
		c0.3856611,0.0002089,0.7713223-0.000576,1.1569834,0.0004292C12.750946,9.5738802,12.7607384,9.5729246,12.7702217,9.5694065z"/>
	<path fill="#01D4AC" d="M10.8020544,9.1601067c0.0000067-0.1699553,0.0000114-0.3399105,0.0000162-0.5098658
		c0.0363779,0.0250788,0.0777121,0.0239334,0.1193552,0.0238409c0.1999779-0.0004463,0.3999548-0.0003223,0.5999327-0.0000601
		c0.0248108,0.0000324,0.0501862-0.0027676,0.0736647,0.0088778C11.617095,8.737812,11.5997601,8.795042,11.60466,8.8509951
		c0.0023241,0.0265427-0.0094633,0.0556231,0.0137196,0.0785389c0.166008,0.0976839,0.3334351,0.1927757,0.5048809,0.2807331
		c0.033637,0.0172558,0.0645342,0.039855,0.096694,0.0599899c-0.0091782,0.031806-0.0368996,0.0236197-0.0577765,0.0240602
		c-0.0913792,0.0019264-0.182807,0.0008001-0.2742157,0.0008173c-0.274231,0.0000486-0.5485172,0.0030355-0.8226528-0.0020914
		C10.996253,9.2917519,10.9285507,9.30935,10.8592463,9.2981958c-0.0399189-0.0064259-0.0595608-0.020504-0.0545874-0.0638895
		C10.807436,9.2100725,10.8090792,9.1846008,10.8020544,9.1601067z"/>
	<path fill="#02CEBB" d="M10.8020535,7.4203391c0-0.2066174,0-0.4132342,0-0.6198511
		c0.0364733,0.0245562,0.0776606,0.0239129,0.1193218,0.0238128c0.2014675-0.000484,0.4029388-0.0004654,0.6044064,0.0000458
		c0.0261068,0.0000663,0.0538301-0.0047007,0.0763922,0.0149884c0.0066538,0.1707273,0.0016766,0.3415136,0.002614,0.5122662
		c0.0003271,0.0595818,0.0038157,0.1192961-0.0026426,0.1788206c-0.0190639,0.0176859-0.043128,0.0152936-0.0660172,0.0153432
		c-0.2189035,0.0004768-0.437808,0.0006089-0.6567097,0.0000386c-0.0719604-0.0001874-0.0736542-0.0029869-0.07411-0.0761881
		C10.8052063,7.4531803,10.8081598,7.4364214,10.8020535,7.4203391z"/>
	<path fill="#03C8CB" d="M10.8020544,5.500598c0-0.2299428,0-0.4598856,0-0.6898284
		c0.024724,0.0056148,0.0228825,0.0274296,0.0228062,0.0439482c-0.0001879,0.0409489,0.0223818,0.0501957,0.0574903,0.0497785
		c0.0615139-0.0007305,0.1230497-0.0001807,0.184577-0.0001588c0.1529865,0.0000544,0.305974-0.0002861,0.4589577,0.0002899
		c0.0260763,0.0000982,0.0537605-0.0046787,0.0762911,0.0149903c0.0067263,0.1756911,0.0015278,0.3514371,0.0026293,0.5271502
		c0.0003223,0.05128,0.0037518,0.1027107-0.002656,0.1539226c-0.02069,0.0187516-0.0465298,0.0153069-0.0709887,0.0153604
		c-0.2155781,0.0004711-0.4311552,0.0004983-0.6467333,0.0001087c-0.0771465-0.0001397-0.0783491-0.0019956-0.0790567-0.0762353
		C10.8052464,5.526772,10.8074694,5.5133367,10.8020544,5.500598z"/>
	<path fill="#01D89F" d="M15.9983883,11.0893478c-0.287755-0.000001-0.57551,0.0002165-0.863265-0.0003233
		c-0.0301952-0.0000572-0.059535,0.0021811-0.088274,0.011384c-0.1391706-0.1639414-0.2736816-0.3316536-0.4059277-0.5012007
		c0.0208511-0.0291605,0.0526056-0.0254221,0.081893-0.0252771c0.246129,0.0012159,0.4922867-0.0043812,0.7383947,0.002676
		c0.0068188,0.0001945,0.013052-0.0019617,0.0187683-0.0056419c0.076952,0.0407495,0.1560078,0.078042,0.230279,0.1232004
		c0.0776529,0.0472164,0.1561241,0.092412,0.2370491,0.1336231c0.0181131,0.0092249,0.0346575,0.003293,0.0519638,0.0002737
		C15.9989729,10.9151525,15.9986811,11.0022497,15.9983883,11.0893478z"/>
	<path fill="#01D7A4" d="M11.9098101,10.0005617c0.0144987-0.0305567,0.0426064-0.0207033,0.06602-0.0207243
		c0.4856491-0.0004425,0.9712992-0.0002422,1.4569483-0.0006733c0.0190992-0.0000162,0.040206,0.0073414,0.0570841-0.008955
		c0.1469374,0.0797958,0.2945604,0.1583748,0.4402227,0.240428c0.0285873,0.0161037,0.0488901,0.0462065,0.0626087,0.0780144
		c-0.0249271,0.023715-0.0564232,0.0167389-0.0855827,0.0167723c-0.4414959,0.0005093-0.8829899,0.0005398-1.3244848,0.000042
		c-0.0479002-0.0000534-0.0963812,0.0100403-0.1437397-0.0055408c-0.0915604-0.0634289-0.1995964-0.0971537-0.2899866-0.1638718
		c-0.0445042-0.0328493-0.0986567-0.0527925-0.1489029-0.0776434
		C11.9676962,10.0424328,11.9352121,10.0271244,11.9098101,10.0005617z"/>
	<path fill="#01D5A9" d="M10.8020544,9.1601067c0.0161409,0.0226555,0.0079889,0.0484943,0.0074739,0.0725164
		c-0.0006838,0.0318508,0.0051575,0.0483828,0.0430717,0.0482616c0.0373878-0.0001192,0.075242,0.0273695,0.1097126-0.0140867
		c0.0081968-0.0098581,0.027564,0.014267,0.0486259,0.0141668c0.3889771-0.0018578,0.7779636-0.0013237,1.1669493-0.0015106
		c0.0144529-0.0000067,0.0303402,0.0042448,0.0420675-0.0091982c0.0914745,0.0337076,0.1699343,0.091732,0.2552347,0.1369963
		c0.0991163,0.0525961,0.1967516,0.1079798,0.2950315,0.1621552c-0.0135336,0.0280437-0.0394697,0.0198898-0.0615511,0.0199041
		c-0.4837828,0.0003242-0.9675665,0.0002394-1.4513493,0.0002718c-0.0231314,0.0000019-0.0467691-0.0029383-0.0678797,0.0104055
		c-0.1300154-0.0557241-0.2465315-0.1366577-0.372798-0.1993074c-0.0182247-0.0090418-0.0161495-0.0227194-0.0160904-0.0370388
		C10.8008327,9.2957964,10.8015146,9.227952,10.8020544,9.1601067z"/>
	<path fill="#02CCC0" d="M11.5994272,6.8399267c-0.2458029,0.0000086-0.4916115-0.0008488-0.737402,0.0010352
		C10.82833,6.8412194,10.8100433,6.8318682,10.8020525,6.800487c0.0000019-0.2266312,0.0000048-0.4532633,0.0000057-0.6798959
		c0.0052881-0.0004878,0.0120916,0.0012441,0.0124788,0.0055537c0.0049067,0.0546737,0.0387678,0.0662456,0.0864887,0.0614285
		c0.0137997-0.0013933,0.0363245-0.0004354,0.0366888,0.0167809c0.0004072,0.0193701-0.0215664,0.0144072-0.0353575,0.0153918
		c-0.0132608,0.0009456-0.0266275,0.0001917-0.0339622,0.0002651c0.0403261,0.0114598,0.0816088-0.0132494,0.125721-0.0184102
		c0.0823469,0.0079904,0.1646414,0.0062556,0.2469063,0.0008249c0.0304184-0.0056796,0.0582619,0.0107946,0.0881815,0.0102439
		c0.087945,0.0075493,0.1759472,0.0023289,0.2639732,0.0023708c0.0067463,0.0017424,0.0106058,0.0060382,0.0116634,0.0129066
		c0.0006075,0.1895366,0.000205,0.3790264,0.000042,0.5685158C11.6048708,6.8109784,11.6094322,6.8264985,11.5994272,6.8399267z"/>
	<path fill="#03CAC6" d="M11.3205128,6.2201157c-0.0263596,0.017004-0.0462112-0.0116754-0.070384-0.010026
		c-0.0865631,0.0078983-0.1731281,0.0078983-0.2596912,0c-0.0563879,0.0251613-0.1143198,0.0241818-0.1732092,0.0103564
		c0.0358906-0.0177398,0.0757465-0.004292,0.1224041-0.0156789c-0.0156269-0.002665-0.0215483-0.0043702-0.0275221-0.0045772
		c-0.0297604-0.00103-0.0623608,0.0057039-0.0885677-0.0043516c-0.0310984-0.0119338,0.0001268-0.0534801-0.0214853-0.0752478
		c-0.0000019-0.2066641-0.0000029-0.4133291-0.0000029-0.6199932c0.009697,0.0091038,0.0084591,0.0210853,0.0081806,0.0325818
		c-0.0017881,0.074018-0.0030193,0.066813,0.0672045,0.0668712c0.2406721,0.0002007,0.4813433,0.0000739,0.7220154,0.000071
		c0.0074549,0.0084,0.0055742,0.0187311,0.0055799,0.0285091c0.0000973,0.1876583,0.0000982,0.3753161-0.0000019,0.562974
		c-0.0000067,0.0097651,0.0019379,0.0201211-0.005743,0.0284209c-0.0030775,0.0000148-0.0061531,0.0000391-0.0092297,0.0000739
		C11.5002117,6.2279725,11.4103622,6.2279143,11.3205128,6.2201157z"/>
	<path fill="#04C5D4" d="M10.8498058,3.5728726c-0.0004492,0.0342221,0.0324612,0.0330145,0.0505295,0.0475709
		c0.0238276,0.00314,0.0434761,0.0153282,0.0628033,0.028518c0.1058264,0.0722196,0.2161045,0.1376915,0.3210669,0.211179
		c0.0299177,0.0209458,0.0600452,0.0292056,0.0974541,0.0281692c0.1430168-0.0039632,0.2861528-0.0021317,0.4292374-0.0010571
		c0.02631,0.0001976,0.0537701,0.0012343,0.0728912,0.0246575c-0.0922613,0.0532951-0.1845226,0.1065903-0.2767839,0.1598849
		c-0.0045652,0.0840216-0.0001516,0.168117-0.0022144,0.2521453c-0.0004272,0.0173802,0.006772,0.0365319-0.0080242,0.05197
		c-0.0214043,0.0125003-0.0451374,0.0102582-0.0682678,0.0102873c-0.2114687,0.0002694-0.4229355,0.0001984-0.6344042,0.0001106
		c-0.0099907-0.0000038-0.0199957,0.0000792-0.0299578-0.0006843c-0.0487633-0.0037327-0.0574408-0.0128551-0.0587606-0.0603938
		c-0.000412-0.0148559,0.0025129-0.0300136-0.0033398-0.0444765c-0.0005665-0.2195158-0.0006351-0.4390359-0.0021877-0.658545
		C10.7995872,3.5854719,10.8234901,3.5794652,10.8498058,3.5728726z"/>
	<path fill="#02D0B5" d="M10.8020535,7.4203391c0.009676,0.0091085,0.0078831,0.0210795,0.008276,0.0325832
		c0.0026331,0.07693,0.0026598,0.0769329,0.0820417,0.07693c0.2356834-0.0000091,0.4713659-0.000021,0.7070494-0.0000319
		c0.0075045,0.0083723,0.0056114,0.0187035,0.0056143,0.0284734c0.0000763,0.1875567,0.0001116,0.375113,0.000061,0.5626702
		c-0.0000019,0.0067053-0.0007811,0.0132208-0.003046,0.0195503C11.5828962,8.15802,11.5588551,8.155633,11.5359631,8.1556816
		c-0.2188606,0.0004673-0.4377222,0.0006065-0.6565819,0.0000334c-0.0719299-0.0001879-0.073617-0.0029793-0.0740709-0.0761929
		c-0.000103-0.0164318,0.0028524-0.0331879-0.0032597-0.0492659C10.8020506,7.8269506,10.8020525,7.6236444,10.8020535,7.4203391z"
		/>
	<path fill="#01D89F" d="M13.8314552,11.0689249c-0.1517801-0.0720062-0.2962503-0.1581306-0.4427309-0.2395515
		c-0.1298656-0.0721865-0.2637835-0.1381769-0.3883572-0.2200155c0.0253639-0.022481,0.0566006-0.0157337,0.0857344-0.0157766
		c0.3469839-0.0005083,0.6939688-0.0003901,1.0409527-0.0002117c0.0382471,0.0000191,0.0763235-0.0014553,0.1142349-0.0065556
		c0.0626545,0.0636797,0.1121874,0.138072,0.1685905,0.2068615c0.0713434,0.0870113,0.1411142,0.175313,0.211565,0.2630577
		c-0.0024147,0.0385685-0.0329037,0.0368109-0.058157,0.0376635c-0.0763092,0.0025759-0.1526976,0.0009184-0.2290545,0.001009
		c-0.1278172,0.0001488-0.255641-0.0005894-0.3834505,0.0003967C13.9084435,11.0961294,13.8682346,11.0912409,13.8314552,11.0689249
		z"/>
	<path fill="#01D7A2" d="M14.2412891,10.5868139c-0.0134535,0.0311813-0.04144,0.022316-0.0650225,0.022337
		c-0.3919668,0.00035-0.7839327,0.0002251-1.1758995,0.0002069c-0.0684319-0.0182838-0.1198797-0.0677376-0.1812153-0.0994482
		c-0.1285744-0.0664701-0.2537088-0.139595-0.3802605-0.2099867c0.4629536-0.0236063,0.9262352-0.004097,1.3893251-0.010397
		c0.0548162-0.0007458,0.1096458-0.0006046,0.1644726-0.0008745c0.0640612,0.0594444,0.1100035,0.1342001,0.1679573,0.1988602
		C14.1890717,10.519227,14.2145023,10.553627,14.2412891,10.5868139z"/>
	<path fill="#02D2B1" d="M10.8020506,8.0302563c0.0096798,0.0091066,0.007884,0.0210791,0.0082788,0.0325813
		c0.002635,0.0769281,0.0026617,0.076931,0.0820456,0.0769281c0.2356844-0.0000086,0.4713697-0.0000191,0.7070541-0.0000286
		c0.007494,0.0083761,0.0056,0.0187063,0.0056057,0.0284758c0.0001001,0.1643143,0.0000992,0.3286285-0.000001,0.4929428
		c-0.0000057,0.0097713,0.0018826,0.0200977-0.0055819,0.0284882c-0.2458019,0.0000143-0.4916124-0.0008326-0.737401,0.001049
		c-0.0336647,0.0002584-0.0520182-0.0090189-0.0599823-0.040452C10.8020639,8.4435797,10.8020582,8.2369175,10.8020506,8.0302563z"
		/>
	<path fill="#03C6D0" d="M10.8020363,4.2807541c0.0019188,0.0026693,0.0050726,0.005125,0.005578,0.0080404
		c0.0141277,0.081501,0.0140848,0.0815077,0.0986004,0.0815082c0.2311068,0.0000024,0.4622154,0.0000043,0.6933231,0.0000067
		c0.0083447,0.0100913,0.0054388,0.0221748,0.0054512,0.0335069c0.0001717,0.1609726,0.0001717,0.3219457-0.0000019,0.4829183
		c-0.0000114,0.0113273,0.0029192,0.0234184-0.0054874,0.0334868c-0.2423296,0.0000014-0.4846764-0.0015125-0.7269745,0.0012403
		c-0.0504446,0.0005732-0.0704613-0.0122581-0.0628443-0.0632701c0.0023022-0.0154238,0.0056124-0.0334053-0.0076265-0.0474224
		C10.8020487,4.6340976,10.802042,4.4574256,10.8020363,4.2807541z"/>
	<path fill="#01D7A2" d="M15.4799776,10.5709648c-0.0079355,0.0294037-0.0322685,0.0179014-0.0497084,0.0179558
		c-0.2370615,0.0007381-0.4741249,0.0007219-0.7111874,0.000186c-0.0267639-0.000061-0.0526733,0.0023232-0.0781612,0.0101013
		c-0.1732311-0.2127285-0.3465595-0.4253778-0.5196447-0.6382246c-0.066082-0.0812616-0.131609-0.1629753-0.2018023-0.2499533
		c0.0319805,0.001976,0.0481472,0.022192,0.0681725,0.0330782c0.2100554,0.1141901,0.4198971,0.2287798,0.6295204,0.3437643
		c0.2330313,0.1278267,0.4607725,0.2650232,0.6945686,0.3916111C15.3677826,10.5098295,15.4228745,10.5423031,15.4799776,10.5709648
		z"/>
	<path fill="#00D99D" d="M13.8314552,11.0689249c0.0418901,0.0127707,0.085001,0.0104542,0.127944,0.0104446
		c0.2006769-0.0000477,0.4013519,0.0000677,0.6020288-0.0001469c0.0224895-0.0000229,0.0479555,0.0061445,0.0600138-0.0224867
		c0.1018791,0.1244621,0.2042036,0.2485628,0.3055124,0.3734875c0.112874,0.1391878,0.224823,0.2791271,0.3371763,0.4187384
		c-0.0080986,0.0064249-0.0164433,0.0061026-0.0249643,0.0009069c-0.0764704-0.034709-0.1486464-0.0772648-0.2219763-0.118001
		c-0.1343451-0.0746307-0.2683563-0.1499224-0.4037418-0.2227859c-0.1707926-0.091917-0.3396683-0.1875992-0.5092039-0.2818041
		c-0.0902538-0.0501499-0.1857729-0.0928154-0.2698174-0.1543722C13.833149,11.07197,13.8324337,11.0702686,13.8314552,11.0689249z"
		/>
	<path fill="#04C4D7" d="M11.8837881,3.9119108c-0.1755972-0.023421-0.3518238-0.0094986-0.5277872-0.0074966
		c-0.0157681,0.0001795-0.029355,0.0005951-0.0418987-0.0077574c-0.1380291-0.0919113-0.2758732-0.1840999-0.4137669-0.2762132
		c0.0179548-0.0112488,0.0379829-0.0100985,0.057971-0.0100949c0.4571428,0.0000813,0.9142866,0.000222,1.3714294-0.0003619
		c0.0254745-0.0000324,0.0491982,0.0053449,0.0732498,0.0114758c-0.0336552,0.0368056-0.0815649,0.0498116-0.123106,0.0733876
		c-0.1210413,0.0686963-0.2424078,0.1368208-0.3638582,0.2047927C11.9060984,3.9051969,11.8945704,3.9078889,11.8837881,3.9119108z"
		/>
	<path fill="#01D5A9" d="M11.5994997,4.9202213c0.0000172-0.1833043,0.0000343-0.3666081,0.0000448-0.549912
		c-0.0006037-0.0928202,0.0056019-0.185729-0.0034256-0.2784276c-0.0009623-0.0098672,0.0034113-0.015511,0.0108986-0.0201025
		c0.0006485,0.0216212,0.0018892,0.0432267,0.0018873,0.0648322c-0.0001307,1.5750122-0.0003777,3.1500239-0.0003796,4.7250361
		c0,0.022893-0.0040941,0.0468321,0.00986,0.0678883c-0.0329266-0.0168324-0.0188112-0.0487204-0.0200968-0.0731058
		c-0.0029173-0.0554209,0.0003977-0.1111698,0.0011711-0.1667862c-0.0000105-0.1833019-0.0000114-0.3666048-0.0000219-0.5499067
		c-0.0000048-0.2033057-0.0000029-0.4066105-0.0000086-0.6099162c0-0.2299647,0.0000067-0.4599295,0.0000057-0.6898942
		c-0.0000477-0.2066336-0.0000877-0.4132676-0.0001364-0.6199012c0.0000505-0.2066345,0.0001106-0.4132695,0.0001631-0.619904
		C11.5994692,5.3734884,11.5994835,5.1468549,11.5994997,4.9202213z"/>
	<path fill="#0BA97F" d="M15.2391663,11.8498688c0.0083103-0.0003033,0.0166216-0.0006065,0.0249481-0.0009089
		c0.0101633,0.0056629,0.0165548,0.013979,0.0223942,0.0342789C15.2663403,11.8690233,15.2527533,11.8594456,15.2391663,11.8498688z
		"/>
	<path fill="#5E5E65" d="M16.7396431,11.8589821c0.0035572,0.0035782,0.0071144,0.0071564,0.0106716,0.0107384
		c-0.0092983,0.0087776-0.0185966,0.0175533-0.0293846,0.0277328
		C16.7129383,11.8755684,16.7276363,11.8679581,16.7396431,11.8589821z"/>
	<path fill="#282839" d="M15.2868252,7.6459742c-0.0000048-0.218132-0.001832-0.4362783,0.0004139-0.6543818
		c0.0035791-0.3476954,0.2063494-0.570951,0.5520287-0.611845c0.1513462-0.0179043,0.3026142-0.0194683,0.4522572,0.0119667
		c0.306282,0.0643415,0.4746914,0.2725034,0.4816742,0.5909352c0.0090199,0.4113469,0.0026569,0.8227429,0.0031586,1.2341123
		c0.0000992,0.081089-0.0040073,0.1625042-0.0226135,0.2428598c-0.0482559,0.2083893-0.1747704,0.3457384-0.3769836,0.4073238
		c-0.2197132,0.0669165-0.4441938,0.0677919-0.6649847,0.0070267c-0.2751141-0.0757141-0.4206266-0.2759628-0.4244041-0.5736189
		C15.2846031,8.0822611,15.286829,7.8641057,15.2868252,7.6459742z"/>
	<path fill="#1DBCB6" d="M11.3205128,6.2201157c0.0898514-0.0000062,0.1797018-0.0000114,0.2695503-0.0000172
		c-0.0317707,0.0200763-0.0671291,0.0100121-0.100276,0.0089784C11.4333811,6.2273173,11.3758602,6.2415466,11.3205128,6.2201157z"
		/>
	<path fill="#1DBCB6" d="M10.9904375,6.2100897c0.0865641,0,0.17313-0.0000005,0.2596941-0.0000005
		c-0.0703182,0.0219474-0.1424456,0.0047283-0.2135782,0.0095282C11.021018,6.220665,11.0032902,6.225142,10.9904375,6.2100897z"/>
</g>
</svg>
