<?xml version="1.0" encoding="utf-8"?>
<!-- Generator: Adobe Illustrator 24.1.1, SVG Export Plug-In . SVG Version: 6.00 Build 0)  -->
<svg version="1.1" id="Слой_1" xmlns="http://www.w3.org/2000/svg" xmlns:xlink="http://www.w3.org/1999/xlink" x="0px" y="0px"
	 viewBox="0 0 32 13" enable-background="new 0 0 32 13" xml:space="preserve" width="32" height="13">
<g>
	<path fill="#282839" d="M10.4903193,6.488246c0-1.0347738,0.0002127-2.0695472-0.0008163-3.1043193
		c-0.0000391-0.0394027,0.0099182-0.0599883,0.0477219-0.0780983c0.1229382-0.0588961,0.2391901-0.1313267,0.3561735-0.2005341
		c0.0863657-0.0510943,0.177062-0.0937829,0.2622976-0.1463537C11.32127,2.8568182,11.4937201,2.7664061,11.6605291,2.66696
		c0.0806799-0.0480986,0.168479-0.083385,0.2446451-0.1381857c0.0759716-0.0546601,0.1645994-0.0869334,0.2412262-0.1389101
		c0.088026-0.0597081,0.1874256-0.0984783,0.2752991-0.1568429c0.0817022-0.0542672,0.1734781-0.0903454,0.2537384-0.1454022
		c0.0718279-0.0492718,0.1526613-0.0809076,0.2254696-0.12725c0.1737881-0.110616,0.3601151-0.1996038,0.5341129-0.3095683
		c0.0699291-0.0441941,0.1449146-0.0781504,0.2160273-0.1197196c0.1818275-0.1062874,0.3664341-0.207986,0.5482559-0.3139551
		c0.0800352-0.0466465,0.1635189-0.0871786,0.2425737-0.1357465c0.1676025-0.1029683,0.3416576-0.1951472,0.5111246-0.2946973
		c0.0864964-0.0508106,0.1791277-0.0908594,0.2615337-0.1477329c0.0756111-0.0521846,0.1604052-0.0871567,0.2376232-0.1355052
		c0.1698618-0.1063539,0.3482981-0.1976238,0.5205278-0.2997288c0.0215778-0.0127917,0.0404453-0.0132059,0.0630264-0.0011681
		c0.1511383,0.0805696,0.299305,0.1668759,0.4473858,0.2523858c0.1768074,0.1020972,0.3552532,0.2014586,0.5312119,0.3050318
		c0.0668144,0.0393288,0.1346741,0.0764979,0.2022381,0.1143783c0.1307278,0.0732937,0.2591057,0.1507849,0.3884525,0.2265421
		c0.0111771,0.0065463,0.0218487,0.0141904,0.0335693,0.0195439c0.1376362,0.0628722,0.2624073,0.1488699,0.3949947,0.220997
		c0.1635323,0.0889603,0.3241291,0.1838005,0.485981,0.2761147c0.17309,0.0987223,0.3456154,0.1983136,0.5192909,0.296029
		c0.0842457,0.0474004,0.1714058,0.091589,0.2518578,0.1450388c0.0831909,0.0552685,0.1755085,0.0932043,0.2582054,0.1476884
		c0.0792751,0.0522294,0.1665993,0.0893373,0.2468815,0.1383123c0.1653633,0.1008761,0.3367081,0.1909103,0.5037689,0.288274
		c0.1688442,0.0984013,0.339838,0.1930752,0.5076637,0.2930162c0.0854759,0.0509028,0.1754932,0.0932589,0.2596626,0.1453843
		c0.1407623,0.0871713,0.2848663,0.1681881,0.4299755,0.2475526c0.0177975,0.009733,0.0240021,0.0199468,0.0229244,0.0381386
		c-0.0005913,0.009963-0.0000992,0.0199897-0.0000992,0.0299876c0,2.0678806-0.0001411,4.1357613,0.0010681,6.2036409
		c0.000021,0.0394201-0.0112648,0.0603724-0.0453129,0.078824C21.3491497,9.7378645,21.22258,9.806159,21.0999355,9.8807812
		c-0.071991,0.0438013-0.1480427,0.0799561-0.2193584,0.1240883c-0.1784687,0.110445-0.3655643,0.2057104-0.5451164,0.3139601
		c-0.0712395,0.0429497-0.1469517,0.0776005-0.2170391,0.121604c-0.1739349,0.1091986-0.3584614,0.1999264-0.5324841,0.3085012
		c-0.0688305,0.0429411-0.1418781,0.0772018-0.2116318,0.1180372c-0.1788883,0.1047287-0.3606987,0.2046738-0.5399857,0.3085003
		c-0.0844212,0.0488901-0.1716347,0.0929594-0.2551517,0.1435308c-0.1682587,0.1018848-0.3423843,0.1939774-0.511095,0.2945576
		c-0.0863018,0.0514507-0.1775856,0.0927906-0.2625847,0.1459475c-0.165514,0.1035089-0.3373756,0.1960478-0.5069752,0.2925043
		c-0.0813084,0.0462437-0.1662674,0.0871668-0.2438984,0.1395416c-0.0787048,0.0530996-0.1692371,0.0861979-0.245575,0.1401529
		c-0.0848961,0.0600004-0.1835785,0.0928659-0.2671547,0.1521969c-0.0789127,0.0560188-0.1679916,0.0931635-0.2496243,0.1440449
		c-0.0881405,0.0549393-0.1805153,0.1030684-0.2705898,0.154952c-0.0136929,0.0078869-0.0223684,0.005497-0.0355988-0.0019484
		c-0.0633516-0.035656-0.1311731-0.0643578-0.1911564-0.1048002c-0.1180458-0.0795908-0.2489481-0.1364164-0.3675785-0.2145138
		c-0.0147991-0.0097437-0.0301933-0.0188971-0.0461941-0.0264568c-0.1323919-0.0625467-0.2541533-0.1441526-0.3821688-0.2146187
		c-0.1687927-0.0929136-0.3355036-0.1899385-0.5030661-0.2852154c-0.169591-0.0964298-0.3380833-0.1947069-0.5082588-0.290246
		c-0.0814009-0.0456972-0.1642113-0.0903368-0.2439671-0.1392746c-0.1692801-0.1038675-0.3443499-0.1973457-0.5161543-0.2965298
		c-0.0844641-0.0487623-0.1710129-0.093894-0.2545223-0.1440153c-0.1654234-0.0992832-0.3346653-0.1916828-0.501895-0.2876244
		c-0.1681557-0.0964737-0.3374395-0.1910343-0.5048876-0.2886152c-0.1721802-0.100337-0.3462019-0.1973877-0.5181017-0.2980537
		c-0.0801678-0.0469456-0.1640997-0.086894-0.2430754-0.1348572c-0.1663542-0.1010284-0.3359451-0.1957445-0.506053-0.2901096
		c-0.0628366-0.0348568-0.1258154-0.0726767-0.1882734-0.1098013c-0.0200281-0.0119028-0.0205755-0.0255632-0.0205193-0.0436592
		c0.0002651-0.08498,0.0001183-0.1699619,0.0001183-0.2549429C10.4903193,8.4011612,10.4903193,7.4447031,10.4903193,6.488246z"/>
	<path fill="#FEFEFD" d="M17.33881,5.0707712c0,0.7465048,0.0004539,1.49301-0.001133,2.2395115
		c-0.0000935,0.0446181,0.0113697,0.0545058,0.0546379,0.0539083c0.1866074-0.0025773,0.3732796-0.0001121,0.5599022-0.0019469
		c0.0368595-0.0003619,0.0477066,0.0086503,0.0474873,0.0468254c-0.0016918,0.2949262-0.0017815,0.5898719,0.0000744,0.8847966
		c0.0002499,0.0395555-0.0127087,0.0458708-0.0482235,0.0455551c-0.1899586-0.0016899-0.3799515,0.0001869-0.5699081-0.0016775
		c-0.0353718-0.0003471-0.0437813,0.0091829-0.0436592,0.0440168c0.0013123,0.3799124,0.0001869,0.7598343,0.0017719,1.1397457
		c0.000164,0.0393906-0.0100517,0.049098-0.0491238,0.0489731c-0.4499378-0.0014343-0.8998814-0.0015869-1.3498154,0.0001688
		c-0.0429974,0.0001678-0.0508432-0.0123558-0.0506687-0.0526133c0.0016279-0.3765783,0.0001431-0.75317,0.0020876-1.1297455
		c0.0002232-0.0430632-0.0122509-0.0506458-0.0524235-0.0505905c-0.8832121,0.0012102-1.7664232,0.0005875-2.6496353,0.0019121
		c-0.0447454,0.0000668-0.0583506-0.00986-0.0579758-0.0567141c0.0023308-0.291585,0.0014486-0.5831985,0.0007515-0.8748002
		c-0.0000696-0.029223,0.0054398-0.0547981,0.0200987-0.0804329c0.8612738-1.5061088,1.7222309-3.0123982,2.5822163-4.5192418
		c0.0166483-0.0291722,0.0343666-0.037549,0.0663958-0.0374839c0.4965982,0.0010076,0.9932032,0.0012844,1.4897985-0.0003502
		c0.0416431-0.0001371,0.0481377,0.0135016,0.0480881,0.0506723C17.3385601,3.5710962,17.33881,4.3209338,17.33881,5.0707712z"/>
	<path fill="#818181" d="M16.7396431,11.8589783c0.3013573-0.3662252,0.6027851-0.7323923,0.9040413-1.0987015
		c0.1479816-0.1799393,0.2955818-0.3601942,0.443531-0.5401611c0.0201454-0.0245047,0.0429688-0.0450964,0.0717545-0.0607252
		c0.1227627-0.0666475,0.2443295-0.1354933,0.3665333-0.2031736c0.1002979-0.0555477,0.2010651-0.1102514,0.3012981-0.1659136
		c0.1976643-0.1097708,0.3947792-0.2205362,0.5927544-0.3297424c0.129488-0.0714273,0.2607079-0.1397238,0.3900452-0.2114153
		c0.1846714-0.1023645,0.3677559-0.2076044,0.552969-0.3089676c0.0323124-0.017684,0.0386887-0.0385723,0.0386562-0.071353
		c-0.0006905-0.6748352-0.0005188-1.3496709-0.0005188-2.0245061c0-0.9047794-0.000288-1.8095593,0.0008602-2.7143369
		c0.0000572-0.0446572-0.0111122-0.0687866-0.053484-0.0918536c-0.2524548-0.1374435-0.5007591-0.2825427-0.7537498-0.4189687
		c-0.1186161-0.0639651-0.2355003-0.1310544-0.3546238-0.1941261c-0.1262741-0.0668581-0.2495975-0.1392629-0.3747673-0.2082348
		c-0.1935558-0.1066537-0.3879623-0.2117715-0.5813065-0.3188045c-0.1833248-0.1014853-0.3655224-0.2049994-0.5486565-0.3068264
		c-0.0972404-0.0540674-0.1955891-0.1061325-0.2931271-0.1596692c-0.1297035-0.0711906-0.2590065-0.1431055-0.3886509-0.214402
		c-0.2008839-0.1104758-0.402113-0.2203295-0.6028099-0.3311446c-0.1396904-0.07713-0.2788773-0.1551791-0.4179096-0.2334919
		c-0.0197334-0.0111152-0.036212-0.0104201-0.0557137,0.0004693c-0.2205744,0.1231579-0.4410925,0.2464248-0.6623983,0.3682569
		c-0.1980343,0.1090209-0.3992224,0.2125108-0.5947561,0.3257976c-0.1107607,0.0641723-0.2256012,0.1205778-0.3354187,0.1864116
		c-0.0968761,0.0580757-0.1959324,0.113121-0.2971916,0.1630921c-0.0852079,0.0420506-0.1615658,0.0998714-0.2500429,0.1354218
		c-0.0155602-0.0001931-0.0230722-0.0112164-0.0304613-0.0225132c-0.1299953-0.1987329-0.2585573-0.398397-0.3882742-0.5973108
		c-0.0111923-0.0171652-0.0284319-0.0340147-0.0210447-0.0586462c0.219101-0.1209495,0.4387894-0.2408547,0.6569996-0.3633897
		C14.13519,1.7445586,14.2198153,1.705406,14.2991934,1.657899c0.1517429-0.0908171,0.3101482-0.1691414,0.463418-0.2566433
		c0.1667585-0.0952024,0.3339834-0.1893979,0.5024099-0.2815937c0.1540632-0.0843339,0.3070316-0.1706938,0.4607525-0.2556274
		c0.0854025-0.0471868,0.1737261-0.0893399,0.2567997-0.1407834c0.016818-0.0104135,0.0319376-0.0123029,0.0509443-0.002582
		c0.1490746,0.0762538,0.2941036,0.1600525,0.441185,0.2398968c0.1572018,0.0853386,0.3138676,0.1720152,0.4697723,0.2596868
		c0.1644154,0.0924598,0.3290997,0.1843933,0.4936352,0.276611c0.075058,0.0420673,0.1536236,0.0777062,0.2266331,0.1227248
		c0.1422577,0.0877162,0.2911777,0.163263,0.4367294,0.2448953c0.0880852,0.049402,0.1769066,0.0981575,0.2646046,0.1478221
		c0.1149502,0.0650997,0.2342281,0.1228833,0.3455448,0.1945653c0.0235577,0.0151713,0.0506668,0.0247066,0.0752792,0.0383873
		c0.1691818,0.0940375,0.3376942,0.1892884,0.5073357,0.2824845c0.094244,0.0517743,0.1900463,0.101763,0.2821655,0.1561925
		c0.1079788,0.0638015,0.2240849,0.1128926,0.3274727,0.1847236c0.029665,0.0206108,0.0657158,0.0317674,0.0975685,0.0495379
		c0.1357746,0.075747,0.270155,0.1540353,0.4068069,0.2281477c0.1282501,0.069555,0.256979,0.1389956,0.3833351,0.2111313
		c0.1071548,0.0611718,0.2148323,0.1244955,0.3241367,0.1797297c0.0893745,0.0451641,0.1060219,0.0959716,0.1058998,0.1860931
		c-0.0025558,1.8677661-0.0021019,3.7355368-0.0009041,5.6033068c0.0000305,0.0467472-0.0105553,0.0720224-0.0551224,0.0953255
		c-0.1876583,0.0981236-0.3736534,0.1996698-0.557476,0.3048182c-0.1624355,0.0929136-0.3268967,0.1821156-0.4894543,0.2746534
		c-0.0749302,0.0426559-0.1563702,0.0749693-0.2260132,0.1242828c-0.0939789,0.0665445-0.202343,0.1046553-0.2981014,0.1678753
		c-0.0823879,0.0543919-0.1742897,0.0951939-0.2606792,0.1447496c-0.1839657,0.1055298-0.3703423,0.206913-0.5568333,0.3079605
		c-0.1074486,0.058218-0.2132969,0.1192589-0.3210297,0.1770411c-0.1678028,0.0900011-0.3329678,0.1850328-0.4994259,0.277607
		c-0.14888,0.082799-0.3009796,0.1602449-0.4470196,0.2474365c-0.1788769,0.1067991-0.3692245,0.1928091-0.5431194,0.308567
		c-0.0672646,0.0447769-0.1438103,0.0756111-0.2161274,0.1127977
		C16.7398777,11.8729744,16.7372379,11.8684845,16.7396431,11.8589783z"/>
	<path fill="#818181" d="M15.9991951,10.8281183c0.1138306-0.0618105,0.2252216-0.1279039,0.3400764-0.1880627
		c0.0910988-0.0477161,0.1799812-0.0998707,0.2708321-0.1484079c0.1318779-0.0704546,0.2615108-0.1451206,0.3919601-0.2182426
		c0.1319561-0.073966,0.2622204-0.1511259,0.3960171-0.2215862c0.1411133-0.0743151,0.2788086-0.1545668,0.4187222-0.2308016
		c0.0809593-0.0441132,0.1607876-0.09132,0.2510605-0.1239252c-0.0569496,0.0698729-0.1136303,0.1399651-0.1708908,0.2095814
		c-0.2916622,0.3545952-0.5832138,0.709281-0.8753548,1.0634832c-0.1195889,0.1449976-0.2462406,0.2845945-0.3589268,0.4347191
		c-0.0754833,0.1005592-0.1326084,0.2149868-0.1969452,0.3238029c-0.1464977,0.2477808-0.292305,0.4959717-0.4387245,0.7437973
		c-0.0073814,0.012496-0.0178947,0.0231428-0.0269508,0.0346498c-0.0096807-0.0214357-0.0161715-0.0435877-0.0161409-0.0674
		c0.0004473-0.3499146-0.0019712-0.6998329,0.0011663-1.0497437c-0.0028725-0.1685114-0.0008755-0.3370352-0.0010414-0.5055523
		C15.9840345,10.8643713,15.9861183,10.8447285,15.9991951,10.8281183z"/>
	<path fill="#16B976" d="M11.6319857,9.8489618c-0.1025352-0.0563927-0.203887-0.1150951-0.3079538-0.1685028
		c-0.0968761-0.0497179-0.1879358-0.109458-0.286664-0.1564283c-0.0754128-0.0358791-0.1440029-0.0866299-0.2201605-0.1226339
		c-0.0178814-0.0084534-0.0169373-0.0223532-0.0168447-0.0372057c0.0004454-0.0713711,0.0010023-0.1427431,0.0015202-0.2141142
		c0.0321875,0.0044737,0.0369596,0.0307608,0.0402126,0.0549545c0.0042133,0.0313272,0.0208015,0.0408478,0.0504637,0.0420351
		c0.0464916,0.0018625,0.0869942-0.0080309,0.1267366-0.0346746c0.1630945-0.1093378,0.3222017-0.2249813,0.4894352-0.3275595
		c0.0634365-0.0389118,0.0895252-0.0796089,0.0791712-0.1503391c-0.0042953-0.0293436-0.0003099-0.0598059-0.0026169-0.0898285
		c-0.0012445-0.165308-0.0020418-0.3304996,0.0001287-0.4957066c-0.0021734-0.2261739-0.0023546-0.4523301-0.000041-0.6784868
		c-0.0020752-0.2033253-0.0023413-0.406651,0.0000029-0.6099753c-0.002017-0.2000327-0.002306-0.4000664,0.0000229-0.600101
		c-0.0018196-0.2299066-0.0025864-0.4598117-0.0000305-0.6897149c-0.0020666-0.2297969-0.0023594-0.4595933,0.0000134-0.6893835
		c-0.0018377-0.1789517-0.0024176-0.3579087,0.0001431-0.5368428c-0.0019331-0.0794072-0.0003796-0.158854-0.0007734-0.2382898
		c-0.0000916-0.0183549-0.0075378-0.0468349,0.0285578-0.044064c-0.0010376,0.0249033-0.0029745,0.0498056-0.0029821,0.0747089
		c-0.0004864,1.5739093-0.0006056,3.1478195-0.0022335,4.7217278c-0.0000467,0.0443392,0.0132837,0.0677309,0.051815,0.0892096
		c0.1524868,0.085,0.3069153,0.1666956,0.458107,0.253706c0.1912355,0.110055,0.3885155,0.2090893,0.5763807,0.3256645
		c0.0945539,0.0586739,0.1921225,0.1152058,0.2942734,0.1627045c0.0760746,0.0353737,0.1422195,0.0908184,0.2218056,0.121048
		c0.0244379,0.017725,0.0142241,0.030117-0.0069923,0.038764c-0.0188589,0.0076857-0.0393429,0.0059547-0.0592766,0.0059872
		c-0.4845552,0.0007792-0.9691133-0.000988-1.4536695,0.0006523C11.671032,9.8563375,11.6504784,9.8593588,11.6319857,9.8489618z"/>
	<path fill="#07F07D" d="M13.3971806,2.1534395c0.1466007,0.2261493,0.2932014,0.4522984,0.4397907,0.6784592
		c-0.1028395,0.0695672-0.2165432,0.1194491-0.3246746,0.1794109c-0.0414352,0.0241921-0.086298,0.0165031-0.1310682,0.0160232
		c-0.1528845-0.0016379-0.3057919-0.0006046-0.4586897-0.000633c-0.3207541-0.0000596-0.64151,0.0003901-0.9622602-0.0006945
		c-0.0273209-0.0000925-0.0611658,0.0121951-0.0791988-0.0233803c0.1552858-0.0952756,0.3201942-0.1738026,0.4762363-0.266727
		c0.0969534-0.0577366,0.2018995-0.1008544,0.2941637-0.1678226c0.0623074-0.0452242,0.135848-0.0749142,0.2041321-0.1119788
		c0.1635542-0.0887783,0.32265-0.1856747,0.4894552-0.2685735C13.3635254,2.17835,13.3798609,2.1649036,13.3971806,2.1534395z"/>
	<path fill="#17B575" d="M11.6319857,9.8489618c0.28932-0.0209522,0.5790339-0.0055428,0.8685465-0.0089159
		c0.2249422-0.0026217,0.4499388-0.0002117,0.6749058-0.0012255c0.015069-0.0000677,0.0513477,0.0157967,0.0350361-0.027956
		c0.0404491,0.0048771,0.0646114,0.0378284,0.0972261,0.0561142c0.1221952,0.0685139,0.2450676,0.1358194,0.3676167,0.203702
		c0.041811,0.0231619,0.0834217,0.0466871,0.125124,0.0700474c0.0112724,0.0092592,0.0257778,0.0119333,0.0382414,0.0187664
		c0.0673952,0.0347862,0.1280394,0.0776749,0.170682,0.1421709c-0.0002203,0.027833-0.0197334,0.0361347-0.0421019,0.0407314
		c-0.0196695,0.0040417-0.0397682,0.0030518-0.0597181,0.0030451c-0.4492149-0.0001221-0.898428,0.0004597-1.3476429-0.0003138
		c-0.0100727-0.0000181-0.0199213,0.0006142-0.0295439,0.0036726c-0.1270456-0.0729027-0.2601156-0.1349945-0.383275-0.214982
		c-0.0304251-0.0197601-0.0651989-0.0326862-0.0970354-0.050437C11.9105043,10.0055799,11.7713089,9.9271584,11.6319857,9.8489618z"
		/>
	<path fill="#07EC7D" d="M11.8810797,3.002625c0.0176601,0.0142176,0.0384636,0.0075381,0.057724,0.0075543
		c0.4770947,0.0004041,0.9541893,0.0003796,1.431284,0.0002196c0.0474043-0.0000157,0.0947456,0.0098286,0.1422024,0.0009091
		c-0.0224342,0.0266738-0.0562468,0.0346365-0.0850229,0.0505104c-0.1788788,0.0986743-0.3590555,0.1950059-0.5375252,0.2944076
		c-0.0695019,0.0387106-0.1361418,0.0825479-0.2094612,0.1142557c-0.0345793,0.0055451-0.0693789,0.0063555-0.1043568,0.0063376
		C12.1169281,3.476583,11.6579323,3.47668,11.1989374,3.476629c-0.0232697-0.0000026-0.0467205,0.0015798-0.0697222-0.0023804
		c-0.0197954-0.0034084-0.0407476-0.0072916-0.0396128-0.0351057c0.100379-0.0580745,0.2027617-0.1126518,0.3036175-0.1696968
		c0.1042023-0.0589373,0.2118492-0.1118686,0.3124914-0.1776097C11.7602997,3.056179,11.8223801,3.0319886,11.8810797,3.002625z"/>
	<path fill="#18B275" d="M12.5303574,10.3488007c0.0142021-0.0274076,0.0400848-0.0190678,0.0621758-0.0190849
		c0.4493303-0.0003519,0.8986597-0.0003443,1.34799-0.0000687c0.0273132,0.0000172,0.0540066,0.0013437,0.0688448-0.0279884
		c0.1259375,0.144453,0.2452631,0.2942467,0.361599,0.4464798c0.0289145,0.037837,0.0592117,0.0746164,0.0888729,0.1118822
		c0.0010376,0.0220528-0.015028,0.0276289-0.0315838,0.0318508c-0.0145912,0.0037222-0.0297279,0.003437-0.044713,0.0034504
		c-0.2680321,0.0002413-0.5360632-0.0000534-0.8040953,0.0004301c-0.0235214,0.0000429-0.0458813-0.007473-0.0692196-0.0066261
		c-0.138236-0.0625439-0.266593-0.1431437-0.3980541-0.2180462c-0.0819559-0.0466957-0.1681519-0.0849638-0.2486792-0.1350965
		C12.7554741,10.46873,12.641675,10.410758,12.5303574,10.3488007z"/>
	<path fill="#18AF74" d="M15.9991961,10.8281183c-0.0001745,0.1870441-0.0003471,0.3740892-0.0005217,0.5611324
		c-0.0187788,0.0180502-0.042779,0.0159807-0.0656977,0.0160379c-0.1938105,0.0004787-0.38762,0.0002432-0.5814304,0.0002708
		c-0.0251989,0.0000038-0.0497036-0.0019054-0.0715132-0.0162582c-0.1331787-0.1632147-0.266634-0.3262053-0.3993883-0.4897633
		c-0.0480824-0.0592394-0.0944881-0.1198406-0.1416588-0.179821c0.0234795-0.0220108,0.0530281-0.0160236,0.0805368-0.0160847
		c0.2853994-0.0006447,0.5707998-0.000082,0.8562012-0.0003347c0.011735-0.0000105,0.023159,0.000104,0.0342922-0.00389
		c0.0833397,0.0295296,0.1525116,0.0862799,0.2330456,0.1213865C15.9618235,10.8289728,15.9788084,10.8380566,15.9991961,10.8281183
		z"/>
	<path fill="#0CDC7B" d="M11.5993137,4.880096c0.0000124,0.2299614,0.0000248,0.4599233,0.0000381,0.6898851
		c-0.018961,0.0178208-0.0429649,0.015995-0.0660229,0.0160341c-0.2144747,0.0003633-0.4289532,0.0007992-0.643424-0.0001388
		c-0.0766153-0.0003357-0.0836172-0.0095534-0.0846663-0.086431c-0.0012217-0.0896049,0.0045567-0.1792994-0.0032988-0.2688169
		c0.0000048-0.2066169,0.0000086-0.4132333,0.0000124-0.6198502c0.0264187,0.0072899,0.0221968,0.0303564,0.0232439,0.0488448
		c0.0024443,0.0431285,0.0005789,0.0863953,0.0010195,0.1296024c0.0006962,0.068224,0.006237,0.0746913,0.0736666,0.0749002
		c0.2061014,0.000638,0.4122038-0.0000339,0.6183052,0.0004978C11.5458927,4.8646951,11.5752821,4.8593245,11.5993137,4.880096z"/>
	<path fill="#0DD77A" d="M10.80194,5.2306285c0.0185509,0.0531645,0.0048237,0.1079879,0.0078936,0.161962
		c0.0023527,0.0413418,0.002388,0.0830393-0.0000772,0.1243682c-0.0023794,0.0399246,0.0164652,0.0534511,0.0529404,0.0532861
		c0.0929117-0.000422,0.1858263-0.0001001,0.2787409-0.0001178c0.1526442-0.0000305,0.3052893-0.0000944,0.4579239-0.000145
		c0.0000067,0.2299585,0.000021,0.4599185,0.0000353,0.6898785c-0.0191479,0.0176268-0.0431795,0.0156455-0.066288,0.0156851
		c-0.2149429,0.0003648-0.4298868,0.0003338-0.6448288,0.0000653C10.8683023,6.2755857,10.848094,6.275949,10.829154,6.2681332
		c-0.0202055-0.0083385-0.0254526-0.025146-0.023037-0.0449929c0.0027304-0.0224404,0.0207996-0.0172954,0.0348806-0.0177603
		c0.0166264-0.0005493,0.0332975-0.0005469,0.0497065-0.0000677c0.0000601,0.000042-0.0022106-0.0003762-0.0065765-0.0003982
		c-0.0786753-0.0003972-0.0778561-0.0003967-0.0789337-0.079968c-0.0008774-0.0648022,0.0047092-0.1297312-0.0032578-0.1944103
		C10.8019371,5.6972332,10.801939,5.4639311,10.80194,5.2306285z"/>
	<path fill="#12C678" d="M11.5994968,7.4696746c0.0000305,0.2266383,0.0000601,0.4532771,0.0000906,0.679915
		c-0.0206652,0.0187654-0.0464449,0.0157919-0.0710659,0.0158339c-0.2060738,0.0003519-0.4121494,0.0005388-0.6182213,0.0000095
		c-0.0851135-0.0002184-0.0936527-0.0090971-0.100215-0.0963926c-0.0010033-0.01334-0.0033798-0.0263309-0.0081873-0.0388393
		c0.0000048-0.2732525,0.0000105-0.546505,0.0000153-0.8197575c0.0264664,0.0071774,0.0221949,0.0302444,0.0232611,0.0486808
		c0.002492,0.0430565,0.0001698,0.0862651,0.0011864,0.1293898c0.0012903,0.0547881,0.0103769,0.0643563,0.0698128,0.0649548
		c0.1460209,0.0014715,0.292057,0.0003595,0.4380865,0.000555c0.0696955,0.000093,0.1393929-0.0004468,0.2090855,0.0003257
		C11.5632429,7.4545698,11.5834875,7.4546795,11.5994968,7.4696746z"/>
	<path fill="#08E87C" d="M11.0896025,3.4391429c0.0144291,0.0304887,0.0424595,0.0209584,0.0659456,0.0209782
		c0.4855852,0.0004132,0.9711704,0.0002937,1.4567556,0.0003643c0.0230913,0.0000033,0.0467949-0.0033443,0.067977,0.0099957
		c-0.1483831,0.0908568-0.3027878,0.1709032-0.455617,0.2537787c-0.0842495,0.0456867-0.1640244,0.0996537-0.2529411,0.1367061
		c-0.0174961,0.0075207-0.0358629,0.0041676-0.0539246,0.004184c-0.212636,0.0001936-0.4252892-0.0038126-0.6378918,0.002408
		c-0.0210094,0.0006146-0.0393839-0.0038221-0.056448-0.0152791c-0.1172419-0.0787098-0.2382565-0.1517079-0.3536901-0.2330966
		c-0.0137968-0.0097277-0.0444822-0.0179329-0.0199223-0.0465069C10.9317532,3.5317345,11.0039101,3.47329,11.0896025,3.4391429z"/>
	<path fill="#18B275" d="M15.7100163,10.6994076c-0.0137024,0.0279589-0.0396719,0.0196981-0.0617809,0.0197334
		c-0.3030806,0.0004845-0.6061602,0.0004663-0.9092436,0.0005751c-0.0864716-0.1052866-0.1734667-0.210144-0.2592936-0.3159513
		c-0.1823483-0.2248011-0.3640947-0.4500933-0.5460358-0.6752253c-0.0030937-0.003828-0.0055246-0.0081902-0.0110626-0.0165014
		c0.0283594-0.0003796,0.0429926,0.0197401,0.0615768,0.0298586c0.2087135,0.113636,0.4181299,0.226038,0.625226,0.3425646
		c0.1822023,0.1025181,0.3649998,0.2039881,0.5451136,0.3103771c0.0933104,0.0551167,0.1882439,0.1088552,0.284873,0.1588907
		C15.5303526,10.600832,15.6198654,10.6507368,15.7100163,10.6994076z"/>
	<path fill="#19AD74" d="M13.5102282,10.8891258c0.0165567-0.016881,0.0377045-0.0093699,0.0567064-0.0094042
		c0.2770014-0.0005064,0.5540056-0.000206,0.831008-0.000618c0.0220032-0.0000324,0.0478306,0.0083475,0.0619001-0.0190849
		c0.0724602,0.0709238,0.1303911,0.1541138,0.1942472,0.232193c0.1945028,0.2378235,0.3867474,0.4774933,0.5797262,0.7165613
		c0.0104074,0.0128918,0.019495,0.0268469,0.0291958,0.040307c-0.0077076,0.0062151-0.0155907,0.0061178-0.0236225,0.0006542
		c-0.0747719-0.0348959-0.1475544-0.0731955-0.2185221-0.1156301c-0.1051893-0.0629005-0.2105865-0.1262264-0.3201294-0.1808853
		c-0.1463718-0.0730362-0.2848825-0.1595993-0.428483-0.237236c-0.1311102-0.0708828-0.2652035-0.1368189-0.3925829-0.2138624
		C13.7579212,11.0284805,13.6276302,10.9699821,13.5102282,10.8891258z"/>
	<path fill="#09E67C" d="M10.8498459,3.5726755c-0.0090694,0.0271964,0.0174522,0.0283694,0.0296831,0.0365777
		c0.1153851,0.0774338,0.2329149,0.1517243,0.3471556,0.2307792c0.0311451,0.021554,0.0595932,0.0097606,0.0891581,0.0099118
		c0.1726408,0.0008829,0.3452883,0.0001068,0.517931,0.0006495c0.0461349,0.0001454,0.0929565-0.0061235,0.1379452,0.010371
		c-0.0343313,0.0324359-0.0783968,0.0487406-0.118762,0.071044c-0.0795584,0.0439606-0.1597414,0.0867898-0.2396584,0.130089
		c-0.0152063,0.0051732-0.0183163,0.0164576-0.016921,0.0311136c0.0078354,0.0822396,0.0022507,0.1646619,0.002923,0.2470026
		c-0.0189924,0.0178537-0.0430431,0.0159583-0.0661192,0.0160007c-0.2164192,0.0003996-0.4328403,0.0006766-0.6492577-0.0000634
		c-0.0719662-0.000246-0.0775976-0.0080166-0.0786772-0.0811925c-0.0013962-0.094717,0.0047255-0.1895223-0.0032873-0.2841558
		C10.801405,3.8695235,10.8020334,3.74822,10.7995987,3.6269784C10.7988348,3.5889418,10.8200293,3.578635,10.8498459,3.5726755z"/>
	<path fill="#10CC78" d="M11.5994968,7.4696746c-0.2363682,0.000062-0.4727345,0.0002298-0.7091026,0.0001249
		c-0.077858-0.0000348-0.0782223-0.0026946-0.0807056-0.0819211c-0.001853-0.059135,0.0108509-0.1190481-0.0077782-0.1774368
		c0.0000076-0.1999693,0.0000134-0.3999395,0.00002-0.5999103c0.026413,0.0071898,0.0222006,0.0302253,0.0233135,0.0486755
		c0.0024977,0.0413756,0.0003366,0.0829072,0.0011301,0.124362c0.0010452,0.0545659,0.0054722,0.0598722,0.0601206,0.0601354
		c0.1691904,0.000813,0.3383846,0.0002308,0.5075779,0.0003214c0.0481033,0.0000257,0.0962114-0.0004225,0.144309,0.0002584
		c0.0214491,0.0003033,0.0435438-0.0007696,0.0610628,0.0155115C11.5994635,7.0630889,11.5994797,7.2663813,11.5994968,7.4696746z"
		/>
	<path fill="#0FD179" d="M11.5994444,6.8597956c-0.2457666,0.0000501-0.4915409-0.0008416-0.7372932,0.0010619
		c-0.0419035,0.0003247-0.0529795-0.0124912-0.0530634-0.0534034c-0.0001354-0.0655708,0.0111599-0.1319456-0.0071602-0.1969247
		c0.0000029-0.2266645,0.0000038-0.45333,0.0000076-0.6799951c0.0183287,0.0633473,0.0057354,0.1280622,0.0078459,0.1920857
		c0.0028906,0.0876737-0.0086737,0.0763874,0.077322,0.077467c0.0142851,0.0001788,0.0285597,0.0012851,0.0426311,0.0100131
		c-0.0278025,0-0.0556059-0.0001564-0.0834074,0.0000587c-0.0165386,0.0001283-0.0361834-0.0022421-0.0347462,0.0231862
		c0.0011902,0.0210781,0.0166626,0.0266237,0.0351744,0.0265751c0.0083075-0.0000219,0.016614,0.0001087,0.0249224,0.0001068
		c0.2425795-0.0000491,0.485158-0.0001068,0.7277279-0.0001645C11.5994129,6.4598389,11.5994291,6.6598177,11.5994444,6.8597956z"/>
	<path fill="#0AE27B" d="M10.801959,3.9908028c0.0148211,0.0174437,0.0077791,0.0383153,0.0079966,0.0575686
		c0.000845,0.0748224,0.0002947,0.1496592,0.0003605,0.2244906c0.0000591,0.0672698,0.0001154,0.0674105,0.0655718,0.0674195
		c0.2411432,0.0000334,0.4822884-0.0000353,0.723423-0.0000668c0.000001,0.1799607,0.0000114,0.3599224,0.0000134,0.5398822
		c-0.2366457,0.0000434-0.4732809,0.0001144-0.7099161,0.0001183c-0.0788412,0.0000014-0.0772514-0.0003619-0.0796671-0.0767779
		c-0.0020313-0.0642147,0.010519-0.1291194-0.0077906-0.1926599C10.8019543,4.40412,10.8019571,4.1974611,10.801959,3.9908028z"/>
	<path fill="#13C277" d="M10.801898,8.030201c0.0171261,0.0164585,0.0199652,0.0374947,0.0183172,0.059556
		c-0.0034323,0.0459518,0.019537,0.060689,0.0630541,0.0604925c0.2387743-0.0010805,0.4775543-0.0005999,0.7163258-0.000658
		c0.0000134,0.1699905,0.0000343,0.339982,0.0000544,0.5099745c-0.0206871,0.0187302-0.0464716,0.0158472-0.0711203,0.015892
		c-0.2062178,0.0003681-0.4124393,0.0005445-0.6186562,0.0000229c-0.0949039-0.0002394-0.1036491-0.0098429-0.1045084-0.1058636
		c-0.0001183-0.0131731,0.0022402-0.0266666-0.0034809-0.0393848C10.8018885,8.363555,10.8018932,8.1968784,10.801898,8.030201z"/>
	<path fill="#1AAA74" d="M15.2800331,11.3893013c0.2395515-0.0000172,0.479104-0.0000343,0.718648-0.0000505
		c0.0004587,0.3726339,0.0009241,0.7452688,0.0013895,1.1178885c-0.084507-0.1089659-0.1519384-0.2292204-0.2266102-0.3446198
		C15.6073627,11.9058304,15.4443197,11.6471634,15.2800331,11.3893013z"/>
	<path fill="#14BE76" d="M10.8018837,8.5302324c0.0155849,0.0190516,0.0074253,0.0415106,0.0080442,0.0623407
		c0.0016069,0.0541058,0.0124512,0.0666113,0.0680838,0.0669088c0.1227608,0.0006571,0.2455273,0.0002232,0.3682909,0.0002031
		c0.1177855-0.0000191,0.2355728-0.0000763,0.3533535-0.0001183c0.0000496,0.0597839,0.0184803,0.1286631-0.0052795,0.1766605
		c-0.0214672,0.0433617-0.0895147,0.0632057-0.1362104,0.0946264c-0.1496811,0.1007223-0.3000298,0.2005072-0.4478445,0.3039083
		c-0.0493803,0.034544-0.1011648,0.0233555-0.1529493,0.0230961c-0.0198355-0.0000982-0.0267496-0.0203915-0.025959-0.0368738
		c0.0014048-0.0292397-0.0114555-0.0507307-0.0295343-0.0709105C10.8018837,8.9434624,10.8018837,8.7368469,10.8018837,8.5302324z"
		/>
	<path fill="#1E8763" d="M15.2393894,11.8497353c0.0078611-0.0002184,0.0157204-0.0004377,0.0236025-0.0006561
		c0.0096292,0.0060081,0.0186415,0.0124836,0.0207825,0.0322599C15.2665176,11.8690519,15.2529535,11.8593922,15.2393894,11.8497353
		z"/>
	<path fill="#5E5E65" d="M16.7396431,11.8589783c0.0035572,0.0035791,0.0071144,0.0071592,0.0106716,0.0107403
		c-0.0092983,0.0087767-0.0185966,0.0175505-0.0293808,0.027729C16.7129383,11.8755608,16.7276363,11.8679523,16.7396431,11.8589783
		z"/>
	<path fill="#18B275" d="M13.8386822,10.1594944c-0.0162868,0.000947-0.0305805-0.002162-0.0382423-0.0187712
		C13.8161726,10.1409016,13.8294678,10.1460419,13.8386822,10.1594944z"/>
	<path fill="#282839" d="M14.4392281,7.3630896c0.4842424-0.8487811,0.9634724-1.6887779,1.4441795-2.5313616
		c0.0126028,0.0149484,0.0074291,0.0301352,0.0074348,0.0435514c0.000308,0.813138,0.0001402,1.6262765,0.0007792,2.439414
		c0.0000257,0.0323262-0.0009727,0.0497136-0.0434055,0.0495424c-0.4565878-0.0018387-0.9131861-0.0011473-1.3697824-0.0011473
		C14.4685678,7.3630886,14.4587021,7.3630896,14.4392281,7.3630896z"/>
	<path fill="#25C47B" d="M11.2385225,6.2177768c-0.082449,0-0.1648989,0-0.2473478,0
		c-0.0000124-0.0016913-0.0000248-0.0033817-0.0000372-0.0050726c0.082078,0,0.1641569,0,0.2462349,0
		C11.2377558,6.214395,11.2381392,6.2160854,11.2385225,6.2177768z"/>
	<path fill="#25C47B" d="M11.5791368,6.2278719c-0.0791245,0-0.1582499,0-0.2373753,0
		c-0.0000029-0.0016422-0.0000067-0.0032854-0.0000114-0.0049276c0.0791254,0,0.1582508,0,0.2373772,0
		C11.5791311,6.2245865,11.579133,6.2262297,11.5791368,6.2278719z"/>
</g>
</svg>
