<?xml version="1.0" encoding="utf-8"?>
<!-- Generator: Adobe Illustrator 24.1.1, SVG Export Plug-In . SVG Version: 6.00 Build 0)  -->
<svg version="1.1" id="Слой_1" xmlns="http://www.w3.org/2000/svg" xmlns:xlink="http://www.w3.org/1999/xlink" x="0px" y="0px"
	 viewBox="0 0 32 13" enable-background="new 0 0 32 13" xml:space="preserve" width="32" height="13">
<g>
	<path fill="#282839" d="M21.5196781,6.4889722c0,1.0347776-0.0002384,2.0695539,0.0009727,3.1043305
		c0.0000439,0.0374126-0.0103683,0.0564985-0.0434189,0.0747547c-0.2048874,0.1131802-0.4081059,0.2295132-0.6109962,0.3460684
		c-0.0887699,0.0509949-0.1803436,0.0974007-0.2676945,0.1510496c-0.1608009,0.0987577-0.3280067,0.186553-0.4903011,0.2825232
		c-0.1738091,0.1027794-0.3532543,0.1957197-0.5245438,0.3024378c-0.0688572,0.0429001-0.1422882,0.0763998-0.2116241,0.1180735
		c-0.1458187,0.0876408-0.2941914,0.1710443-0.4418697,0.2555685c-0.1085644,0.0621386-0.2176952,0.1232834-0.3265667,0.1848841
		c-0.1444569,0.0817394-0.290247,0.1612329-0.4329414,0.2459393c-0.1181355,0.0701284-0.2380219,0.1369801-0.3575916,0.2045069
		c-0.1726131,0.0974827-0.3437214,0.1975842-0.5167942,0.294322c-0.0801086,0.0447788-0.1639538,0.0847588-0.239603,0.1370401
		c-0.0769444,0.053175-0.1627903,0.0894966-0.2419453,0.1379461c-0.1747112,0.1069384-0.3576984,0.1995459-0.532444,0.3060637
		c-0.0849648,0.051795-0.1763325,0.0914755-0.2589378,0.1467333c-0.0129795,0.0086823-0.0220413,0.0093164-0.035531,0.0012293
		c-0.0693264-0.0415697-0.1438761-0.0745506-0.2124205-0.1164532c-0.1695032-0.1036224-0.3445606-0.1970358-0.5165558-0.2959242
		c-0.0859375-0.0494108-0.1737757-0.0956907-0.2586718-0.1467619c-0.1667156-0.1002922-0.3375807-0.1930876-0.5064516-0.2894058
		c-0.1680489-0.0958452-0.3354807-0.1926823-0.5039692-0.2878094c-0.0827637-0.0467291-0.166914-0.0921755-0.24827-0.141696
		c-0.1682043-0.1023836-0.3413296-0.1959324-0.5119896-0.2938128c-0.0859785-0.0493107-0.1736794-0.0958395-0.2586832-0.1467381
		c-0.164134-0.0982819-0.3314352-0.1908321-0.4975672-0.2855396c-0.1697655-0.0967779-0.3402948-0.1923027-0.5092993-0.2902584
		c-0.1710072-0.0991182-0.3434792-0.1956778-0.5138569-0.2957535c-0.0815334-0.0478907-0.1669617-0.0885582-0.2472181-0.1376352
		c-0.1646881-0.1007023-0.333499-0.193593-0.5017614-0.2878685c-0.0642433-0.0359945-0.1292448-0.073123-0.1921329-0.11269
		c-0.0124817-0.0078526-0.020957-0.0133638-0.0189075-0.0291882c0.0012751-0.0098324,0.000226-0.0199652,0.000226-0.0299625
		c0-2.0695553,0.0001478-4.1391101-0.0010214-6.2086649c-0.0000229-0.0421536,0.0124121-0.0632799,0.0503044-0.0815499
		c0.1213274-0.0584989,0.2361488-0.130003,0.3517656-0.1982491c0.0878038-0.0518281,0.1799221-0.0954485,0.26647-0.1490848
		c0.1639948-0.1016347,0.3344374-0.1920702,0.5013971-0.2884514c0.1628418-0.0940042,0.3286114-0.1831079,0.4891787-0.2805369
		c0.0892563-0.0541587,0.1854525-0.0955548,0.2713566-0.1540177c0.0825424-0.056174,0.1763897-0.0918612,0.2578306-0.1482744
		c0.0702581-0.048666,0.1482944-0.0819547,0.2213802-0.1247844c0.1788816-0.1048269,0.3610039-0.2042315,0.5381727-0.3118246
		c0.0678911-0.0412288,0.1393909-0.07499,0.207406-0.1157131c0.1543102-0.0923909,0.3113165-0.1802956,0.4676056-0.2693583
		c0.1057405-0.0602566,0.2124414-0.1188282,0.3181534-0.1791357c0.1736383-0.0990591,0.3478994-0.197207,0.5206127-0.2976219
		c0.0866642-0.0503854,0.1790257-0.0910498,0.2615671-0.1478469c0.0769482-0.0529492,0.1616821-0.0911602,0.2420101-0.1375743
		c0.1733694-0.1001729,0.3471632-0.1996121,0.5204296-0.299962c0.0224495-0.0130023,0.0412769-0.0100646,0.0630283,0.0016758
		c0.1479034,0.0798291,0.2929497,0.1648964,0.4386387,0.2484386c0.1798592,0.103136,0.3607826,0.2044674,0.5399284,0.3088271
		c0.0655823,0.0382048,0.133707,0.0722503,0.1977539,0.112254c0.1273346,0.0795325,0.2629814,0.1443489,0.3891163,0.2256566
		c0.0121918,0.0078589,0.0247116,0.015449,0.0378017,0.0216317c0.1352654,0.0638821,0.2596111,0.1473732,0.3904057,0.2193639
		c0.1645508,0.0905704,0.326683,0.1859554,0.4901218,0.2788534c0.1732025,0.0984488,0.3452759,0.19871,0.519558,0.2953693
		c0.0815506,0.0452305,0.16395,0.0907751,0.2439613,0.1392883c0.1698055,0.1029584,0.3440571,0.1978157,0.5162964,0.2963095
		c0.0832005,0.0475791,0.167923,0.092716,0.2502327,0.1417079c0.1685104,0.100301,0.3400211,0.195148,0.5100899,0.2925117
		c0.0811844,0.0464768,0.1661816,0.0874796,0.2437649,0.1397216c0.0842381,0.0567241,0.1794357,0.093632,0.263176,0.1487396
		c0.0816135,0.0537055,0.1705303,0.093092,0.25177,0.1455767c0.0565205,0.0365138,0.1139069,0.0704644,0.1741676,0.0995314
		c0.0201626,0.0097258,0.0267029,0.0216122,0.025095,0.0419052c-0.0009155,0.0115919-0.0001659,0.0233152-0.0001659,0.0349793
		C21.5196781,4.4260826,21.5196781,5.4575272,21.5196781,6.4889722z"/>
	<path fill="#FEFEFD" d="M14.5927763,9.8195286c0.7062731-1.94239,1.4106989-3.8797059,2.1170778-5.8223896
		c-0.0254459,0-0.0452137,0-0.0649796,0c-0.9182138,0-1.8364267-0.0003338-2.7546387,0.0009985
		c-0.0452433,0.0000656-0.058403-0.0106146-0.0580378-0.0572343c0.0022745-0.2899168,0.001812-0.5798628,0.0003395-0.8697898
		c-0.0001926-0.0379481,0.0078306-0.0505097,0.0488253-0.0504758c1.4147968,0.001168,2.8295956,0.0010917,4.2443924,0.0002549
		c0.0335751-0.00002,0.0452251,0.0062311,0.0450211,0.0428293c-0.0016212,0.2899251-0.001133,0.5798635-0.0004845,0.8697963
		c0.0000534,0.0240164-0.0052624,0.0459194-0.0132122,0.0677898c-0.698904,1.9227343-1.3979988,3.845397-2.0956306,5.7685928
		c-0.014637,0.0403547-0.0331993,0.0506649-0.0737047,0.0505342c-0.446599-0.001442-0.8932037-0.000906-1.3398066-0.000906
		C14.6316051,9.8195286,14.6152716,9.8195286,14.5927763,9.8195286z"/>
	<path fill="#818181" d="M21.2182121,3.6315992c0.0004959,0.0199659,0.001421,0.0399323,0.001421,0.0598984
		c0.0000687,1.8805439-0.0001011,3.7610886,0.0010586,5.6416321c0.0000267,0.0438023-0.0119915,0.0658417-0.0520821,0.0869846
		c-0.1887379,0.099535-0.3764076,0.2013168-0.5616322,0.3072424c-0.1623936,0.0928726-0.326849,0.1819735-0.4893074,0.2745695
		c-0.071991,0.0410318-0.149971,0.0724649-0.2171535,0.1196203c-0.0968323,0.0679665-0.2080345,0.1079359-0.3067284,0.1725607
		c-0.0826035,0.0540905-0.1742725,0.0951366-0.2606735,0.1445999c-0.1825733,0.1045198-0.3681316,0.203825-0.5524445,0.3053055
		c-0.1041031,0.0573177-0.2082539,0.1145439-0.3122272,0.1720982c-0.1694946,0.0938263-0.3412151,0.1839705-0.5071678,0.2837
		c-0.069931,0.0420237-0.1436749,0.075491-0.2139053,0.116128c-0.1184082,0.0685158-0.2362404,0.138258-0.3570309,0.2023668
		c-0.1433315,0.0760689-0.2859364,0.1528502-0.4237366,0.238884c-0.0687256,0.0429068-0.1439838,0.0753546-0.2162857,0.1125326
		c-0.010437,0.003253-0.0130806-0.001236-0.0106754-0.0107412c0.3013821-0.3662558,0.6028347-0.7324495,0.9041157-1.0987873
		c0.1479969-0.1799536,0.2956066-0.3602238,0.4435692-0.540206c0.0201492-0.0245094,0.0430164-0.0450449,0.071804-0.0606718
		c0.1227722-0.0666513,0.244339-0.1355238,0.3665524-0.2032099c0.1003056-0.0555525,0.2010918-0.1102381,0.3013325-0.165905
		c0.1976833-0.1097775,0.3948059-0.2205629,0.5927982-0.3297768c0.1294975-0.0714331,0.2607327-0.1397238,0.3900814-0.211422
		c0.1846867-0.1023712,0.3676434-0.2078905,0.5530891-0.3088474c0.0356216-0.0193911,0.0381355-0.0434742,0.0381145-0.0767136
		c-0.0005016-0.8181992-0.0003929-1.6363983-0.0003929-2.454597c0-0.7565427-0.0000248-1.5130854,0.000124-2.269628
		c0.0000038-0.0199194,0.0018768-0.0398388,0.0028763-0.0597582c0.0030212-0.0138931,0.0113487-0.0238991,0.0236664-0.0302572
		c0.0764046-0.0394373,0.1483097-0.0872583,0.2272243-0.1220257c0.1702175-0.0888877,0.336071-0.1856744,0.50453-0.2777278
		C21.1774216,3.6394506,21.194088,3.6228092,21.2182121,3.6315992z"/>
	<path fill="#01BD95" d="M11.6120853,4.0606771c-0.0010138,0.0282383-0.0029125,0.0564766-0.0029173,0.0847149
		c-0.000267,1.5726585-0.0002375,3.1453171-0.0012836,4.7179742c-0.0000267,0.0396795,0.0114288,0.0615835,0.0472288,0.0816803
		c0.1551838,0.0871115,0.3100376,0.1747026,0.4676008,0.2575445c0.0747318,0.0392914,0.1468258,0.083601,0.2201157,0.125638
		c-0.0011711,0.0187836,0.0123158,0.0301771,0.0223064,0.0430183c0.3453369,0.4437914,0.6906118,0.8876295,1.0355549,1.3317261
		c0.0306196,0.039422,0.0627251,0.0777922,0.0906467,0.1191254c0.0130777,0.0193596,0.0337429,0.0388412,0.0188065,0.0670061
		c-0.1376162-0.0604153-0.2632027-0.1428595-0.3942652-0.2152777c-0.0058146-0.003211-0.0114145-0.0068712-0.0174189-0.0096684
		c-0.1414356-0.0659027-0.2729921-0.1500216-0.4093533-0.2251396c-0.1157837-0.0637798-0.2327194-0.1258078-0.3470392-0.1924515
		c-0.104166-0.0607233-0.210907-0.1170149-0.3159466-0.1762629c-0.1163712-0.0656414-0.2342319-0.1285019-0.3495779-0.1961508
		c-0.1383543-0.0811415-0.2817326-0.1536875-0.4223852-0.2309551c-0.1447487-0.0795183-0.2885218-0.1608152-0.4335556-0.2398005
		c-0.0213776-0.0116415-0.0202541-0.0272818-0.0202532-0.0453682c0.0000048-0.0782557-0.0000095-0.1565094-0.0000105-0.2347641
		c-0.0000105-0.6793175-0.0000334-1.358634,0.0000439-2.0379515c0.0000019-0.0216146,0.0010319-0.0432281,0.001585-0.0648422
		c0.022295,0.0013523,0.0281668,0.021656,0.0388575,0.0352573c0.2357922,0.2999725,0.4688778,0.602057,0.70362,0.9028497
		c0.0091391,0.0117097,0.0171833,0.0244551,0.0418825,0.0433078c-0.0002327-0.5316672,0.0003557-1.052722-0.000598-1.5738869
		c-0.0051079-0.0865321-0.0012007-0.1730356-0.0013485-0.2594848c-0.0008917-0.5224581-0.0003815-1.0449181-0.0004749-1.5673771
		c-0.0000029-0.0133142-0.0000925-0.0266266,0.0015192-0.0398707c-0.0028791-0.1471519-0.001483-0.2943172-0.0005732-0.4414673
		C11.5849886,4.0977139,11.5777407,4.0685911,11.6120853,4.0606771z"/>
	<path fill="#01BA9B" d="M15.999835,12.5070429c-0.0872765-0.1133709-0.1570959-0.2382202-0.2344666-0.3580675
		c-0.1571159-0.2433701-0.3059511-0.4923325-0.4698839-0.7309647c-0.1043262-0.1518669-0.2294416-0.2894802-0.3456059-0.4331837
		c-0.3035355-0.3754883-0.6072731-0.7508116-0.9109287-1.1262007c-0.0384464-0.0475283-0.0768871-0.0950594-0.1124754-0.1466503
		c0.0810814,0.0483923,0.1696882,0.0817118,0.248292,0.1325064c0.0895853,0.0578918,0.1843901,0.1070728,0.2778511,0.1565857
		c0.2792645,0.1479473,0.5519867,0.3075638,0.830678,0.4564276c0.2199259,0.1174774,0.436986,0.2403164,0.6554661,0.3605042
		c0.0186281,0.0102463,0.0375767,0.0232525,0.0604773,0.0101414c0.0192871,0.0182848,0.0167732,0.0425959,0.0167961,0.0654659
		c0.0004921,0.5120888,0.0003242,1.0241785,0.0003643,1.5362682C16.0163994,12.4569759,16.0114994,12.4826374,15.999835,12.5070429z
		"/>
	<path fill="#01BC98" d="M13.5101442,10.8891048c-0.0248098-0.0803757-0.0869637-0.1358099-0.1358566-0.1995316
		c-0.2154255-0.2807674-0.4326153-0.5601864-0.6499624-0.8394747c-0.1239185-0.159235-0.2495842-0.3171091-0.373702-0.4761906
		c-0.009511-0.0121889-0.0302982-0.0263319-0.0078011-0.0456734c0.0489683,0.0396032,0.1064901,0.0653582,0.160984,0.0952272
		c0.1632862,0.0894957,0.328928,0.1755142,0.4891548,0.2696199c0.112833,0.0662708,0.2331619,0.1166296,0.345417,0.1841011
		c0.1062613,0.0638685,0.2161446,0.1238356,0.3270493,0.1807756c0.0783033,0.0402021,0.1545649,0.0843716,0.231945,0.1263876
		c0.0687647,0.0373373,0.106204,0.1046743,0.1529379,0.1622028c0.3996439,0.4919424,0.7978573,0.9850483,1.1964121,1.4778748
		c0.006258,0.0077362,0.0114346,0.0163479,0.0171156,0.0245514c-0.0079994,0.0063992-0.0162392,0.0061121-0.0246582,0.0008888
		c-0.0738249-0.0331669-0.1442032-0.0725393-0.2139988-0.1135511c-0.1085386-0.0637779-0.2174597-0.1273699-0.329524-0.1845646
		c-0.1441355-0.0735636-0.2815561-0.1587191-0.4234743-0.2359781c-0.1294613-0.0704794-0.2619619-0.1358366-0.3881884-0.2116642
		C13.7606678,11.0300169,13.6289167,10.9708376,13.5101442,10.8891048z"/>
	<path fill="#818181" d="M15.9998331,12.5070429c-0.0001945-0.5596285-0.0003901-1.1192579-0.0005903-1.678894
		c0.1137848-0.061903,0.2252159-0.1279325,0.340065-0.1881065c0.0910969-0.0477295,0.179987-0.0998745,0.2708359-0.1484222
		c0.1304073-0.0696888,0.2585278-0.1436596,0.3875332-0.2159681c0.1334133-0.0747814,0.2652225-0.1525888,0.4004745-0.2238741
		c0.1410923-0.0743637,0.2789764-0.1542559,0.418684-0.2309151c0.0808105-0.044342,0.1615791-0.0897102,0.2510376-0.1237659
		c-0.0569801,0.0699015-0.1136971,0.1400194-0.1709824,0.2096691c-0.2916679,0.3546095-0.5832253,0.7093124-0.8753757,1.0635242
		c-0.1195965,0.1450014-0.2462673,0.2845926-0.3589535,0.4347248c-0.0754814,0.1005669-0.1325798,0.2150192-0.1969185,0.3238401
		c-0.1464977,0.2477922-0.292284,0.4960051-0.4388351,0.7437677C16.0195045,12.4849701,16.0148258,12.5003271,15.9998331,12.5070429
		z"/>
	<path fill="#01B99D" d="M11.5996361,4.5602279c0.0000038,0.626574,0.0000086,1.2531476,0.0000134,1.8797216
		c-0.0240889,0.0139709-0.0377722-0.0049515-0.0493546-0.0188985c-0.0387917-0.0467043-0.0770845-0.0939932-0.1115541-0.1439791
		c-0.0102787-0.0149059-0.0316935-0.0355077,0.0011873-0.0518308c0.0435543-0.0001926,0.0870895,0.0001101,0.1205664-0.0000491
		c0.0166588-0.0019975,0.0059824-0.0108781,0.0097675-0.0053911c-0.0529594,0.0127263-0.1073799-0.0012999-0.1604691,0.0088272
		c-0.0180073-0.003684-0.0268946-0.0180845-0.0369797-0.0312967c-0.1774397-0.2324605-0.3594189-0.4613929-0.5391417-0.6920757
		c-0.0209312-0.0268664-0.0287428-0.0529652-0.0288877-0.0861788c-0.000536-0.1227703,0.0051804-0.2456136-0.002799-0.3683228
		c-0.0005465-0.2744761-0.0012417-0.5489516-0.0015917-0.8234277c-0.0002527-0.1979761-0.0001173-0.3959529,0.0000572-0.5939291
		c0.000021-0.0226669-0.0055265-0.0495567,0.0307112-0.0506389c0.0167522,0.0017135,0.0263109,0.0134993,0.0346518,0.0259895
		c0.1386805,0.2076757,0.3022747,0.3964128,0.4531412,0.5948176C11.4104929,4.3239474,11.5017548,4.4447465,11.5996361,4.5602279z"
		/>
	<path fill="#03ADBD" d="M17.151762,1.3396646c0.0987778,0.0576717,0.1966438,0.1162914,0.3002529,0.1660941
		c0.050005,0.024036,0.0956268,0.0619909,0.1463947,0.0889992c0.1879349,0.0999819,0.3759212,0.1998981,0.5627899,0.3018508
		c0.1451302,0.0791806,0.2886505,0.1613162,0.4327698,0.2423451c0.0052853,0.0029721,0.0093403,0.0081353,0.0139694,0.0122769
		c0.0361691,0.0736034,0.0936108,0.131947,0.1430683,0.1956878c0.2438526,0.3142731,0.4878254,0.6284587,0.7326031,0.9420164
		c0.0891018,0.1141388,0.1778679,0.2285454,0.2665634,0.3429961c0.0202274,0.0261016,0.0522289,0.0495083,0.0393219,0.0909276
		c-0.1334267-0.0601957-0.2570095-0.1387558-0.3859596-0.207325c-0.1422253-0.0756276-0.2826748-0.154618-0.4234085-0.233017
		c-0.169651-0.0945055-0.3387203-0.1900487-0.5081921-0.2848716c-0.0404816-0.0226495-0.0815639-0.0442243-0.1223698-0.066294
		c-0.1062336-0.151119-0.2260284-0.2918675-0.3360004-0.4401014c-0.0143929-0.0194025-0.04459-0.0345201-0.0298786-0.0672026
		c0.0019474-0.0043283,0.0042076-0.0027034-0.0007057-0.0041544c-0.0685558-0.020237-0.0910625-0.0864763-0.1293373-0.1350267
		c-0.2306499-0.2925637-0.4592552-0.5867485-0.686657-0.8818579c-0.0110893-0.0143906-0.0245285-0.0278443-0.0280647-0.0465524
		C17.1372757,1.3477501,17.1341381,1.3349587,17.151762,1.3396646z"/>
	<path fill="#01BB98" d="M11.4302654,6.2302952c0.0432014,0.0806007,0.0920649,0.1566281,0.1693916,0.2096558
		c0.0001945,0.5146594,0.0004606,1.0293202,0.0002489,1.5439811c-0.0000057,0.0137715,0.0083847,0.0341935-0.0093985,0.0399127
		c-0.0156927,0.0050468-0.0253897-0.0132256-0.0341082-0.0244889c-0.2006893-0.2592907-0.4007826-0.5190425-0.6015167-0.7782989
		c-0.0514774-0.0664864-0.1086216-0.1286287-0.152916-0.2005858c-0.0005322-0.2775831-0.0015392-0.5551677-0.0014839-0.8327518
		c0.0000753-0.3789897,0.0009604-0.7579794,0.0015011-1.1369672c0.0133305,0.0140405,0.0079136,0.0315628,0.0080843,0.047647
		c0.0006018,0.0565972,0.0062237,0.1139793-0.0009766,0.169652c-0.0165644,0.1280837,0.0245037,0.229003,0.1083689,0.3275571
		c0.1543598,0.1813951,0.2966242,0.3730955,0.4433346,0.5609646c0.0152121,0.0194783,0.0264111,0.042089,0.0394716,0.0632463
		C11.3801012,6.2307663,11.3588982,6.22153,11.341258,6.224824C11.3686647,6.2286534,11.4002867,6.2191052,11.4302654,6.2302952z"/>
	<path fill="#03AEBB" d="M17.151762,1.3396646c-0.0149269,0.0200591,0.0045815,0.0295171,0.0135822,0.0411743
		c0.2031174,0.2630861,0.406414,0.5260347,0.6099606,0.788789c0.0587292,0.0758131,0.1206932,0.1492596,0.1765118,0.2271314
		c0.0260048,0.0362744,0.0402451-0.0019286,0.0714207-0.0050097c-0.0428696,0.0313797-0.0341549,0.0513313-0.0088348,0.0825028
		c0.1031857,0.1270213,0.2017212,0.2578266,0.3014069,0.3876712c0.01577,0.0205412,0.0367947,0.0393763,0.0337563,0.0694258
		c-0.0891705-0.0479071-0.1787567-0.0950572-0.2674179-0.1438911c-0.1586971-0.0874097-0.3181896-0.1735036-0.4747486-0.2646179
		c-0.1118965-0.0651212-0.2319908-0.1157763-0.3375282-0.1919446c-0.089983-0.0463109-0.1369762-0.1338074-0.1955891-0.2088737
		c-0.3391438-0.4343485-0.6759129-0.8705469-1.0163307-1.3039066c-0.0164337-0.0209168-0.0340652-0.0412359-0.0462646-0.0650454
		c-0.007164-0.0139872-0.0172873-0.0312697,0.0115871-0.0339934c0.0487652,0.0274065,0.0972595,0.0572984,0.147068,0.0804253
		c0.0924873,0.0429437,0.1759319,0.1010232,0.2657661,0.1481134c0.1057701,0.0554423,0.2137337,0.107944,0.3165207,0.1700986
		C16.8828087,1.1964319,17.0184669,1.2660961,17.151762,1.3396646z"/>
	<path fill="#03ACBF" d="M19.7894955,3.7228584C19.767128,3.6507478,19.70998,3.6019177,19.6668282,3.5443213
		c-0.109993-0.1468141-0.2246132-0.2901645-0.3375168-0.434797c-0.1719017-0.2202117-0.3440609-0.4402227-0.5158138-0.660552
		c-0.0680981-0.0873549-0.1353321-0.17538-0.2031422-0.2629595c-0.0088348-0.0114102-0.0152969-0.0222251-0.0024147-0.0347834
		c0.0855446,0.0516551,0.1786079,0.0915883,0.2623425,0.1436756c0.1370888,0.0852749,0.2846584,0.1493196,0.42309,0.2309642
		c0.0922699,0.0544198,0.1891899,0.101913,0.2805595,0.1568632c0.1010933,0.0607991,0.2133484,0.1021838,0.3062935,0.1765585
		c0.0386505,0.1115537,0.1249771,0.1907938,0.1940937,0.2810044c0.1888714,0.2465169,0.3806267,0.4908454,0.571497,0.735842
		c0.0138988,0.0178442,0.0314217,0.0365827,0.0139122,0.0622272c-0.0878792,0.0424404-0.1724319,0.0909171-0.2560406,0.1410856
		c-0.0432587-0.041872-0.0970268-0.0686126-0.148962-0.0961823C20.0976772,3.8998995,19.9411697,3.8157554,19.7894955,3.7228584z"/>
	<path fill="#03AFB8" d="M16.0232735,0.7190768c-0.0271339,0.0232428,0.0038586,0.0372253,0.0120869,0.0482606
		c0.0702019,0.0941389,0.1430073,0.1863424,0.215395,0.2788416c0.1101055,0.1406931,0.2208824,0.2808615,0.3306808,0.4217918
		c0.1616383,0.2074653,0.322607,0.4154564,0.4839993,0.6231142c0.0497417,0.0639987,0.1015072,0.126507,0.1490383,0.1920938
		c0.0155106,0.0214031,0.045578,0.0221899,0.055397,0.0477164c-0.0780296-0.0257692-0.143549-0.0753841-0.2148914-0.1137812
		c-0.2014008-0.1083951-0.4015465-0.2191283-0.6018238-0.3295983c-0.1393585-0.0768682-0.278389-0.1543481-0.4168854-0.2327529
		c-0.0233593-0.013224-0.0424252-0.0134213-0.0641317,0.0012412c-0.0219002,0.0147939-0.0438824,0.0301125-0.0707541,0.0352247
		c-0.0216179,0.0114108-0.0292521-0.0060984-0.0391283-0.0189322c-0.1467867-0.1907306-0.2954788-0.3799839-0.4427977-0.5703011
		c-0.0117807-0.0152199-0.0289001-0.0289977-0.0199881-0.0523719c0.1045799-0.0673507,0.2181988-0.1189355,0.324008-0.1836997
		c0.0832281-0.0509429,0.1715269-0.0918213,0.255662-0.1406355C15.9919777,0.7178406,16.0059776,0.7019179,16.0232735,0.7190768z"/>
	<path fill="#02B8A2" d="M11.5996361,4.5602279c-0.0578518-0.0259585-0.0821056-0.0833783-0.1181107-0.128983
		c-0.1738892-0.2202477-0.3463783-0.4416087-0.5181074-0.6635482c-0.0463467-0.0598996-0.0882931-0.1232038-0.1322584-0.1849415
		c0.2745686-0.1563029,0.550087-0.3108926,0.8291311-0.4591146c0.1155558,0.1475551,0.2309561,0.295238,0.3451195,0.4438679
		c0.0493441,0.0642402,0.1044025,0.1242096,0.1466198,0.1938455c-0.037653,0.0398481-0.0924664,0.049938-0.1364994,0.0786886
		c-0.1135597,0.0741456-0.2408323,0.1239927-0.3536062,0.1996446c-0.0147009,0.009861-0.0331488,0.0141315-0.0498514,0.0209908
		c-0.0192413,0.0132346-0.0113792,0.0333304-0.0114727,0.0504727C11.5997963,4.2608409,11.599843,4.4105349,11.5996361,4.5602279z"
		/>
	<path fill="#02B6A6" d="M12.15203,3.761354c-0.0664616-0.0562742-0.1104755-0.131211-0.163681-0.1983807
		c-0.1048193-0.1323316-0.207098-0.2666733-0.3110132-0.3997266c-0.0095568-0.0122349-0.018795-0.0231767-0.017045-0.0396142
		c0.0786371-0.0518949,0.169178-0.0850289,0.2448292-0.1388643c0.0896282-0.0637815,0.1984949-0.0904887,0.2829418-0.1617401
		c0.0192842-0.0162716,0.0478745-0.0215185,0.0721807-0.0318396c0.1598454,0.2064233,0.3206234,0.4121211,0.4806728,0.6183863
		c0.0051289,0.0066099,0.0101128,0.0132048,0.0111113,0.0218716C12.554781,3.546423,12.3551245,3.6570146,12.15203,3.761354z"/>
	<path fill="#03B1B3" d="M14.3804436,1.612286c0.1956911-0.107239,0.3864326-0.2234445,0.5861588-0.3233693
		c0.023674-0.0042136,0.0312042,0.0160182,0.04146,0.0294341c0.1352491,0.176913,0.2748661,0.3504225,0.4101133,0.5273243
		c0.0212831,0.0278378,0.0433702,0.0542922,0.0718269,0.0749665c-0.0849648,0.0477024-0.169591,0.0960214-0.2549782,0.1429558
		c-0.1145287,0.0629532-0.2296448,0.124836-0.3445091,0.1871786c-0.0270529,0.0129375-0.0401344-0.0078938-0.0529079-0.0239854
		c-0.1464357-0.1844909-0.2904577-0.3708746-0.4350739-0.5567918C14.3898735,1.6537224,14.3731308,1.6370749,14.3804436,1.612286z"
		/>
	<path fill="#02B4AB" d="M12.8203316,2.481565c0.0697021-0.0539327,0.1527481-0.0851529,0.2262545-0.1322312
		c0.1097994-0.0703232,0.2328396-0.1166425,0.3403168-0.1908562c0.006526-0.0045061,0.0153475-0.0056899,0.0230999-0.0084195
		c0.0976028,0.1398568,0.1876783,0.2846763,0.2810307,0.4273264c0.0534725,0.0817111,0.107007,0.1633608,0.1617041,0.2442515
		c-0.0605745,0.0433662-0.126893,0.0770869-0.1919003,0.1128333c-0.1201649,0.0660753-0.2412577,0.1304615-0.3619652,0.1955516
		c-0.0222015,0.0134802-0.0296144-0.0067527-0.0385876-0.0185413c-0.1429167-0.1877728-0.2897978-0.3724697-0.4335098-0.5596149
		C12.8111801,2.5315573,12.7818098,2.5085652,12.8203316,2.481565z"/>
	<path fill="#03B2B0" d="M14.3804436,1.612286c0.0639935,0.1045269,0.1469288,0.194857,0.2200365,0.2925569
		c0.0800428,0.1069679,0.1638041,0.2111602,0.2463903,0.316211c0.0110874,0.0141037,0.0226212,0.029366,0.043644,0.0297215
		c-0.1304426,0.07267-0.2597494,0.1474957-0.3918095,0.217099c-0.0660009,0.0347865-0.1239214,0.0848372-0.1973906,0.1054783
		c-0.0570745-0.039979-0.0894966-0.1014118-0.1311474-0.1542845c-0.1129398-0.1433737-0.2250586-0.2874329-0.3363543-0.4321108
		c-0.0166445-0.0216371-0.0363607-0.0426599-0.003808-0.0668977c0.0201111-0.0297371,0.0555544-0.0347023,0.0839272-0.0506331
		c0.1240807-0.0696694,0.2486143-0.1386235,0.3746109-0.2047344C14.3199263,1.6482244,14.3383923,1.6092452,14.3804436,1.612286z"/>
	<path fill="#02B5A8" d="M12.8203316,2.481565c-0.0143566,0.019876-0.0070076,0.0343702,0.0072203,0.0524836
		c0.1406784,0.1791036,0.279829,0.3594084,0.420414,0.5385854c0.0156527,0.0199473,0.0210772,0.0498257,0.050909,0.0573881
		c-0.1181698,0.0662942-0.2343941,0.1364431-0.3552818,0.1973381c-0.0651102,0.0327976-0.1208878,0.0822275-0.1915712,0.1040826
		c-0.0534258-0.0408978-0.0854464-0.0999115-0.1261959-0.1513047c-0.1168613-0.1473854-0.2310247-0.2969081-0.3469124-0.445071
		c-0.0106077-0.013561-0.0208635-0.0256262-0.018671-0.0438805c0.0453358-0.0440266,0.1065321-0.0661643,0.1594391-0.0938706
		C12.5540571,2.6269462,12.6801281,2.5408037,12.8203316,2.481565z"/>
	<path fill="#04ABC1" d="M20.659729,3.9383645c-0.0080776-0.0622087-0.0585766-0.0981712-0.0923805-0.1433096
		c-0.1108284-0.1479878-0.2258663-0.2928343-0.3397541-0.4385209c-0.1017036-0.1301012-0.2042427-0.2595484-0.3059292-0.3896635
		c-0.0245132-0.0313649-0.0496235-0.0632663-0.0414391-0.1075778c0.0373478,0.020601,0.0745792,0.0414205,0.1120644,0.0617692
		c0.1866074,0.1012938,0.3744049,0.2004719,0.5594025,0.3046224c0.0779419,0.0438793,0.1609917,0.0797682,0.2350082,0.1281796
		c0.0983448,0.0643246,0.2083321,0.1064556,0.3046894,0.1733487c0.0283508,0.0196822,0.0609703,0.0338051,0.0928783,0.0475996
		c0.0263767,0.0114045,0.0418129,0.026325,0.0339508,0.0567765C21.032053,3.7338538,20.84589,3.8361092,20.659729,3.9383645z"/>
	<path fill="#02B3AE" d="M13.8300047,1.9200596c-0.0117722,0.0195391-0.0082064,0.0343086,0.0066614,0.0532196
		c0.1359291,0.1728855,0.2703819,0.346933,0.4051132,0.5207592c0.0202446,0.0261192,0.0397043,0.0528493,0.0595303,0.0793059
		c-0.1446247,0.0916226-0.2967768,0.1696491-0.4485807,0.2482879c-0.0164461-0.001102-0.0255451-0.0105686-0.0344448-0.0242956
		c-0.1275482-0.1967359-0.2559958-0.3928878-0.383625-0.5895722c-0.0113173-0.0174413-0.0287409-0.0332716-0.0246563-0.0577052
		C13.5497475,2.0729263,13.6860609,1.9895263,13.8300047,1.9200596z"/>
	<path fill="#03B0B6" d="M15.4900026,1.9206417C15.46702,1.9238278,15.4520712,1.9106022,15.439539,1.8944834
		c-0.119751-0.1540152-0.2390909-0.3083497-0.3588943-0.4623249c-0.0374718-0.0481602-0.075985-0.0955102-0.1140327-0.1432363
		c0.1234922-0.0867653,0.2647858-0.1421326,0.3922119-0.2220204c0.0123167-0.0077226,0.0270414-0.0116097,0.0406466-0.0172777
		c0.0486107,0.0791086,0.1111536,0.1477818,0.166831,0.2215816c0.1024904,0.1358465,0.2077188,0.2696255,0.3113003,0.4046543
		c0.00665,0.0086694,0.0131359,0.0143993,0.023778,0.0153661C15.7662878,1.77134,15.6292849,1.8480358,15.4900026,1.9206417z"/>
	<path fill="#0C937F" d="M15.2391796,11.849864c0.0082064-0.0002966,0.0164127-0.0005932,0.0246382-0.0008898
		c0.0093355,0.0062437,0.0183105,0.0127354,0.0191545,0.0317125C15.2664003,11.8690233,15.2527905,11.8594437,15.2391796,11.849864z
		"/>
	<path fill="#5E5E65" d="M16.7396412,11.8589811c0.0035591,0.0035782,0.0071163,0.0071573,0.0106735,0.0107393
		c-0.0092983,0.0087795-0.0185966,0.0175552-0.0293827,0.0277348
		C16.7129345,11.8755665,16.7276363,11.8679581,16.7396412,11.8589811z"/>
	<path fill="#1BAF96" d="M11.4302654,6.2302952c-0.0326548,0-0.0653095,0-0.0979633,0
		c-0.0001011-0.0034904-0.0002041-0.0069809-0.0003052-0.0104709c0.0227566,0,0.0455141,0,0.0682697-0.0000029
		c0.0592175-0.0000024,0.1184349-0.0000024,0.1776524-0.0000024c0.0000734,0.0034919,0.000145,0.0069842,0.0002184,0.0104761
		C11.5288467,6.2302952,11.4795551,6.2302952,11.4302654,6.2302952z"/>
	<path fill="#1AB095" d="M11.0030375,6.2126665c0.0788565,0,0.1577129,0,0.2365713,0
		c-0.0000105,0.0016823-0.00002,0.0033655-0.0000296,0.0050478c-0.0791216,0-0.1582413,0-0.2373629,0
		C11.002491,6.216032,11.0027647,6.2143488,11.0030375,6.2126665z"/>
</g>
</svg>
