<?xml version="1.0" encoding="utf-8"?>
<!-- Generator: Adobe Illustrator 24.1.1, SVG Export Plug-In . SVG Version: 6.00 Build 0)  -->
<svg version="1.1" id="Слой_1" xmlns="http://www.w3.org/2000/svg" xmlns:xlink="http://www.w3.org/1999/xlink" x="0px" y="0px"
	 viewBox="0 0 32 13" enable-background="new 0 0 32 13" xml:space="preserve" width="32" height="13">
<g>
	<path fill="#282839" d="M21.5196781,6.4883189c0,1.0347748-0.0002041,2.06955,0.0008373,3.1043239
		c0.0000381,0.0366087-0.008812,0.0564203-0.0427094,0.0751286c-0.2049217,0.1130991-0.4081135,0.2294712-0.6110268,0.3459797
		c-0.0887756,0.0509748-0.180294,0.0974855-0.2676849,0.1510592c-0.160902,0.0986414-0.3280182,0.1866512-0.4903812,0.2825508
		c-0.1738682,0.1026936-0.353384,0.1955643-0.5243683,0.3028049c-0.0604935,0.03794-0.1248436,0.0677166-0.1860447,0.1038942
		c-0.167345,0.0989227-0.3384914,0.1914034-0.5063381,0.2895041c-0.1080513,0.0631533-0.2195282,0.1204805-0.3260078,0.1857786
		c-0.081995,0.0502834-0.1709518,0.0879679-0.2500839,0.141777c-0.0773029,0.0525618-0.1626911,0.08955-0.2419491,0.1378012
		c-0.1619816,0.0986156-0.3309326,0.185133-0.4938221,0.2818146c-0.1728592,0.1026001-0.350605,0.1964903-0.522543,0.3002491
		c-0.0796623,0.0480728-0.1620979,0.0904722-0.2425213,0.1367674c-0.1788616,0.1029577-0.3600674,0.202033-0.5362587,0.30935
		c-0.0849133,0.0517187-0.1772137,0.0897102-0.2587013,0.1469059c-0.0107803,0.0075655-0.0203533,0.0057888-0.0317936-0.0011654
		c-0.0690794-0.0420094-0.1438646-0.074542-0.2123652-0.116497c-0.1694231-0.1037712-0.344615-0.1969442-0.5165482-0.2959309
		c-0.0859175-0.0494652-0.1739588-0.0954323-0.2586222-0.1468382c-0.1677485-0.1018543-0.3407526-0.1942663-0.5106363-0.2920933
		c-0.1649055-0.0949612-0.330718-0.1882992-0.4954977-0.2833805c-0.1711693-0.0987673-0.343195-0.1960573-0.5138922-0.2955647
		c-0.081666-0.0476093-0.1692715-0.0857887-0.2465448-0.1384811c-0.1032038-0.0703754-0.2167511-0.1208677-0.3220673-0.1867056
		c-0.1232309-0.077035-0.2519073-0.14536-0.3781919-0.217515c-0.1387482-0.0792761-0.2774639-0.1586123-0.4161892-0.2379303
		c-0.0154076-0.00881-0.0302916-0.0187063-0.0462513-0.0263596c-0.1255245-0.0602045-0.2413311-0.1378355-0.362442-0.2058353
		c-0.0877228-0.0492535-0.1766033-0.0971861-0.2635517-0.1481991c-0.1473236-0.0864382-0.2960472-0.1704912-0.4438257-0.2561598
		c-0.0992479-0.0575333-0.2006769-0.1114035-0.2998419-0.1685724c-0.0640211-0.0369081-0.1290684-0.0734386-0.1923275-0.1123457
		c-0.0123014-0.0075645-0.021616-0.0125895-0.0194483-0.0289364c0.0015182-0.0114622,0.0002832-0.0232897,0.0002832-0.0349531
		c-0.0000019-2.067883,0.0001421-4.1357665-0.0010157-6.2036486c-0.0000229-0.0418923,0.0112782-0.0634968,0.049758-0.0818906
		c0.1215334-0.0580955,0.2362423-0.1298821,0.3517189-0.1983297c0.0877495-0.0520139,0.1801538-0.0950284,0.2665796-0.1488822
		c0.163765-0.102047,0.3345404-0.1919594,0.5012941-0.2887018c0.1626539-0.0943642,0.3286953-0.1829596,0.4891977-0.2805104
		c0.0892162-0.0542247,0.1832838-0.098659,0.2720385-0.1529222c0.1637697-0.1001279,0.3348999-0.1877909,0.4984093-0.287684
		c0.0886431-0.0541553,0.1829929-0.0964036,0.270833-0.1511161c0.1624117-0.1011606,0.3316135-0.1907191,0.4966822-0.2872417
		c0.0836792-0.0489309,0.1720819-0.0897235,0.252492-0.1436282c0.0802326-0.0537852,0.1695547-0.0904433,0.2513332-0.1405692
		c0.1650171-0.1011475,0.3369713-0.1901089,0.5036182-0.287916c0.171979-0.1009369,0.3466787-0.1969547,0.5182467-0.2983388
		c0.0799875-0.047266,0.1634951-0.0880105,0.242238-0.1369691c0.1701775-0.1058078,0.3483648-0.1975442,0.5206738-0.2995401
		c0.0221424-0.0131067,0.0412197-0.0112739,0.062994,0.0010351c0.1462936,0.0827043,0.2951069,0.1611708,0.4390869,0.2476923
		c0.1778259,0.1068595,0.3603134,0.2053226,0.5394917,0.3096333c0.0655746,0.0381752,0.1337223,0.0721895,0.1977577,0.1121473
		c0.1273785,0.0794818,0.2630444,0.1442741,0.3891563,0.2256212c0.0109158,0.0070421,0.0211525,0.015646,0.032896,0.0208243
		c0.1385422,0.0611024,0.2626953,0.1482358,0.3952236,0.2203271c0.1649532,0.0897318,0.3267269,0.1858528,0.490181,0.2787249
		c0.1732197,0.0984185,0.3454304,0.1984611,0.5194836,0.2954804c0.0829048,0.0462133,0.166666,0.0926199,0.2482147,0.1418669
		c0.1671371,0.1009305,0.3391323,0.1931586,0.5081882,0.2904472c0.1663303,0.0957191,0.3341026,0.1889486,0.4997768,0.2856045
		c0.1701775,0.099282,0.3428707,0.1941748,0.5119286,0.2951248c0.0840416,0.0501852,0.1724243,0.0920117,0.2554817,0.1431162
		c0.1423187,0.0875621,0.2874031,0.1701019,0.4343319,0.2494793c0.0156746,0.0084679,0.022047,0.0176177,0.0211754,0.0342269
		c-0.0006142,0.011632-0.0001106,0.0233221-0.0001106,0.0349863C21.5196781,4.4221025,21.5196781,5.4552107,21.5196781,6.4883189z"
		/>
	<path fill="#FEFEFD" d="M17.1082458,5.9659247c0.0977879,0.0385485,0.1924438,0.0734992,0.2820396,0.1207242
		c0.3993301,0.2104883,0.620575,0.544096,0.6903553,0.9857321c0.0235577,0.1490889,0.0220661,0.2986131,0.0218029,0.4484043
		c-0.0003109,0.1782389,0.0033264,0.3566647-0.0034313,0.5346804c-0.0253487,0.6679125-0.3874702,1.1661377-1.0160656,1.4035597
		c-0.2972755,0.1122818-0.6070595,0.1585627-0.9227982,0.1723499c-0.3860054,0.0168552-0.7688694-0.0038662-1.144269-0.1027622
		c-0.3318148-0.0874138-0.63307-0.2327948-0.8782072-0.4792051c-0.2237606-0.2249222-0.3487749-0.4990644-0.3967113-0.8102236
		c-0.0385427-0.2501774-0.0147333-0.5022488-0.0202751-0.7534261c-0.0008669-0.0392928-0.0178022-0.0906348,0.0076752-0.1151013
		c0.0252342-0.0242324,0.0761786-0.0071812,0.1157513-0.0072317c0.4166288-0.000536,0.8332586-0.0005531,1.2498875-0.0001454
		c0.0845537,0.0000825,0.0721836-0.0118823,0.0726814,0.0751066c0.0011635,0.2032652-0.0018368,0.4066186,0.003232,0.609777
		c0.0048513,0.194397,0.0639,0.367753,0.2299299,0.4865704c0.1291256,0.0924072,0.278904,0.1218185,0.4340649,0.1276207
		c0.1504269,0.0056267,0.2995644-0.0018082,0.4432526-0.0542841c0.2281437-0.0833187,0.3341904-0.2590628,0.3621712-0.488162
		c0.0309696-0.2535763,0.0171337-0.5087066,0.0149727-0.7633395c-0.0010662-0.1253567-0.0120564-0.2489324-0.047884-0.3697014
		c-0.0772381-0.2603645-0.2647762-0.3915939-0.5188446-0.4471054c-0.1491661-0.0325913-0.3005972-0.034317-0.4519501-0.0366697
		c-0.123292-0.0019169-0.2466526-0.0014181-0.3699503,0.000329c-0.030817,0.0004368-0.0391512-0.0080552-0.039031-0.0389643
		c0.0011683-0.2982769,0.0013208-0.5965629-0.000145-0.8948369c-0.0001688-0.03442,0.0114679-0.0399847,0.0423107-0.0401597
		c0.2314796-0.0013089,0.4632683,0.0095673,0.6943474-0.0093427c0.1796665-0.0147014,0.3526783-0.0545454,0.4960957-0.1730485
		c0.1263924-0.1044354,0.177803-0.2492275,0.1888027-0.4052057c0.0166302-0.2358079,0.0207348-0.4728546-0.0063839-0.7082715
		c-0.039938-0.3466897-0.22295-0.5248246-0.572361-0.5620697c-0.1818209-0.0193815-0.3629274-0.0148773-0.5368261,0.0503633
		c-0.2062101,0.0773625-0.3199015,0.2315156-0.3521414,0.4457316c-0.0268917,0.178699-0.0110674,0.359231-0.012229,0.5389252
		c-0.0002956,0.045651-0.0115395,0.0576782-0.0574846,0.0574927c-0.44662-0.0018044-0.8932505-0.0017014-1.3398714-0.0000634
		c-0.0413628,0.0001521-0.0531607-0.0092621-0.0515909-0.051383c0.0066309-0.1779442-0.0078487-0.3562365,0.0100613-0.5341363
		c0.0548267-0.5446033,0.3285761-0.9415193,0.8081417-1.1995096c0.2671995-0.1437442,0.5555553-0.2184408,0.8543816-0.2582614
		c0.3133478-0.0417554,0.6278305-0.0449433,0.9420185-0.0179875c0.3848705,0.0330207,0.7563496,0.1171288,1.0867062,0.3300347
		c0.3761044,0.2423904,0.5961266,0.589221,0.6573124,1.0303574c0.0440788,0.3177776,0.0504761,0.6384029-0.0242386,0.9533577
		c-0.1095638,0.4618592-0.4098396,0.7523379-0.8462696,0.9142437C17.1762028,5.9422178,17.1448212,5.9529352,17.1082458,5.9659247z"
		/>
	<path fill="#818181" d="M16.7396431,11.8589811c0.3013096-0.3661757,0.6026917-0.7322941,0.903904-1.0985518
		c0.1479626-0.1799135,0.2956314-0.3600712,0.4433899-0.5401525c0.0224228-0.0273294,0.0490303-0.0480938,0.0806923-0.0651979
		c0.1199551-0.0647984,0.2383213-0.1325293,0.3575726-0.1986341c0.101717-0.0563841,0.2040615-0.1116352,0.3057251-0.1681118
		c0.1961689-0.1089745,0.391716-0.2190723,0.5881748-0.3275185c0.129446-0.0714569,0.2606525-0.1397362,0.3899727-0.2114162
		c0.1861038-0.1031523,0.370821-0.2088146,0.5571709-0.3115187c0.0281086-0.0154915,0.0349789-0.0337744,0.0349693-0.0633688
		c-0.0005684-1.5877204-0.0005054-3.1754413-0.0004902-4.7631621c0-0.0230412,0.0024281-0.0437551-0.0248814-0.0586982
		c-0.2113247-0.115629-0.4214134-0.2335134-0.6323738-0.3498087c-0.1791401-0.0987525-0.3591633-0.1959009-0.5383797-0.294512
		c-0.2270203-0.1249137-0.4539738-0.2499611-0.6803055-0.3761146c-0.2294827-0.1279082-0.4589348-0.2558212-0.6895065-0.3817937
		c-0.1559639-0.0852106-0.3123169-0.1699021-0.4672451-0.2569523c-0.2216396-0.1245325-0.4441357-0.2474205-0.6672153-0.3693333
		c-0.2216148-0.121111-0.4417648-0.2448988-0.6623001-0.3679756C16.0184479,1.64496,16.001318,1.6392026,15.978529,1.651805
		C15.77491,1.7643988,15.570178,1.8749866,15.3668585,1.988112c-0.2163754,0.1203897-0.4332438,0.2399104-0.6494761,0.3604853
		c-0.1087246,0.0606265-0.2199526,0.1169007-0.3268194,0.1811562c-0.0953608,0.0573373-0.1944838,0.1084213-0.2919731,0.1622148
		c-0.2241907,0.1237054-0.4482222,0.247704-0.6726561,0.3709674c-0.1790667,0.0983467-0.3591757,0.1948056-0.5378275,0.2938967
		c-0.1758871,0.0975583-0.3500996,0.1981304-0.5258455,0.2959454c-0.1263647,0.0703309-0.2543154,0.1378067-0.3810539,0.2074764
		c-0.1164455,0.0640121-0.2318773,0.1298742-0.348609,0.1933539c-0.0197296,0.0107288-0.0237303,0.0256271-0.0259256,0.0440764
		c-0.014327,0.00666-0.0256701-0.0005689-0.0367279-0.0081697c-0.231205-0.1589265-0.4671812-0.3106627-0.7008991-0.4658046
		c-0.0155964-0.0103528-0.0375185-0.0166821-0.0383387-0.0414588c0.1008215-0.0562263,0.2025394-0.1109135,0.3022738-0.1690083
		c0.1902113-0.1107991,0.387681-0.2085798,0.5758753-0.3230166c0.0495157-0.0301094,0.1057978-0.049747,0.1531982-0.0825386
		c0.0968742-0.0670156,0.2101402-0.1040456,0.3055601-0.1735857c0.0344191-0.0250843,0.0765953-0.0393236,0.1144762-0.0599043
		c0.1060991-0.0576432,0.2120991-0.1154833,0.3175907-0.1742263c0.1431179-0.0796952,0.2854614-0.1607821,0.428648-0.2403543
		c0.0997181-0.0554159,0.2008324-0.1083298,0.3003693-0.1640639c0.1760521-0.0985773,0.3495035-0.2019768,0.5275888-0.2966902
		c0.1478767-0.0786471,0.2943697-0.1601264,0.4403095-0.2418294c0.1178589-0.0659828,0.2389822-0.1262908,0.3549166-0.1960812
		c0.1118803-0.067349,0.2290993-0.1257602,0.3422604-0.1910654c0.1651688-0.0953188,0.3352175-0.1818129,0.5004864-0.2766822
		c0.1623306-0.0931827,0.3279734-0.1801241,0.4910631-0.2717726c0.018259-0.0102605,0.033083-0.008204,0.0510368,0.000888
		c0.1449471,0.0734109,0.2856808,0.1547799,0.428091,0.2326899c0.1657009,0.0906515,0.3314495,0.1815398,0.4958229,0.2745849
		c0.1569633,0.0888507,0.3149014,0.1758059,0.4721622,0.264002c0.0794277,0.0445452,0.1628532,0.0818359,0.2399979,0.129403
		c0.1986923,0.1225109,0.4066696,0.2284124,0.6091366,0.3440775c0.1090508,0.0622979,0.2218533,0.1200906,0.3300953,0.1835843
		c0.1039066,0.0609503,0.2135563,0.1107037,0.3163052,0.1745021c0.1034603,0.0642385,0.2130127,0.1208456,0.3214207,0.1779373
		c0.1128082,0.0594094,0.2235928,0.1227112,0.33535,0.1838322c0.1622772,0.0887489,0.3255596,0.1760747,0.4861984,0.2675278
		C20.2911053,3.079803,20.5120182,3.203727,20.7334995,3.3267c0.1196804,0.0664511,0.2386284,0.1342227,0.3579063,0.2013981
		c0.015892,0.0089505,0.030798,0.0220084,0.0478573,0.026123c0.0696468,0.0167964,0.0820446,0.0608261,0.0819759,0.1279895
		c-0.0019188,1.8829534-0.0017204,3.765909-0.0004883,5.6488628c0.0000324,0.0459328-0.0137501,0.0686092-0.0548439,0.0903111
		c-0.1872864,0.0989103-0.3734913,0.2000685-0.557394,0.30513c-0.1624966,0.0928335-0.326889,0.1821976-0.489481,0.2747183
		c-0.0749435,0.0426464-0.156395,0.0749693-0.226038,0.1242847c-0.0939922,0.0665569-0.202364,0.1046801-0.2981243,0.1679049
		c-0.0824051,0.0544062-0.1743107,0.0951977-0.2607346,0.1447105c-0.1826115,0.1046219-0.3679962,0.2044296-0.5528126,0.3051634
		c-0.1087551,0.0592747-0.2160091,0.1211872-0.3251362,0.1798916c-0.1677113,0.0902195-0.3330135,0.1850309-0.4994717,0.277647
		c-0.14888,0.0828342-0.3009624,0.1603384-0.4470577,0.2474756c-0.1789398,0.1067286-0.3692436,0.1928616-0.5431747,0.3085985
		c-0.0672855,0.0447741-0.143837,0.0756226-0.2161655,0.112813C16.7398777,11.8729763,16.737236,11.8684864,16.7396431,11.8589811z"
		/>
	<path fill="#1EDD92" d="M11.608923,8.9195738c0.2075186,0.1157713,0.4148712,0.2318392,0.6226254,0.3471851
		c0.1001892,0.0556259,0.2015238,0.1091938,0.301652,0.1649265c0.1858149,0.103425,0.3706827,0.2085571,0.5567942,0.3114414
		c0.1352339,0.0747566,0.2721252,0.1465101,0.4076872,0.2206802c0.0552864,0.0302486,0.1090136,0.063344,0.1634502,0.0951452
		c-0.0140762,0.0278168-0.0408697,0.0255432-0.0653124,0.0261412c-0.0615673,0.0015078-0.1231709,0.000556-0.1847591,0.0005627
		c-0.4111528,0.0000467-0.8223057-0.0001163-1.2334585,0.0002556c-0.0363932,0.0000334-0.0732279-0.0031672-0.1090202,0.0072784
		c-0.2010851-0.1033611-0.3949509-0.2198458-0.5943079-0.326519c-0.1584511-0.0847855-0.3133898-0.1762686-0.4721365-0.261014
		c-0.0604887-0.0322914-0.1205997-0.0678844-0.1806488-0.1023407c-0.0146465-0.0084047-0.024806-0.0160637-0.0193329-0.0342827
		c0.0019245-0.0257006,0.0120268-0.0416517,0.0407143-0.0466337c0.0439796-0.007638,0.0760212-0.0395784,0.1110191-0.0639877
		c0.1863499-0.1299715,0.3781462-0.2518682,0.5645561-0.3817482c0.0245714-0.0171204,0.0507746-0.0415888,0.084857-0.0162439
		C11.6088181,8.879796,11.6001987,8.900507,11.608923,8.9195738z"/>
	<path fill="#818181" d="M15.9993181,10.8280058c0.1154127-0.0623398,0.2283792-0.1289816,0.3446016-0.1900692
		c0.089529-0.0470572,0.1771908-0.0981426,0.2663918-0.1462612c0.1301441-0.0702028,0.2584743-0.1437759,0.3874836-0.2160807
		c0.1334171-0.0747786,0.2652569-0.1525345,0.4004745-0.2238894c0.1410542-0.0744314,0.2788582-0.1545076,0.4187546-0.230792
		c0.0808964-0.0441141,0.1606274-0.091465,0.2508602-0.1238146c-0.0570164,0.0699396-0.1137733,0.1400948-0.171093,0.2097845
		c-0.2916756,0.3546143-0.5832348,0.7093229-0.8753891,1.0635414c-0.1195984,0.1450033-0.2462788,0.2845898-0.358963,0.4347258
		c-0.0754814,0.1005688-0.1325531,0.2150412-0.1968899,0.3238678c-0.1464977,0.247798-0.2922955,0.4960089-0.4388485,0.7437725
		c-0.0073032,0.0123463-0.0119839,0.0277472-0.0271273,0.0342922c-0.0095978-0.0232372-0.0158577-0.0470047-0.0158529-0.072546
		c0.0000916-0.4428406-0.0004606-0.8856802,0.0004206-1.3285208c0.0000105-0.0049849,0.0006781-0.009964,0.0009737-0.0149393
		c-0.002512-0.0690126-0.0008678-0.1380472-0.0009108-0.2070732C15.9841919,10.8640385,15.9862671,10.8445072,15.9993181,10.8280058
		z"/>
	<path fill="#20DE94" d="M12.0685816,10.0931902c0.0127239-0.0316048,0.0406055-0.0234756,0.0643616-0.023489
		c0.4867935-0.0002794,0.973587-0.0002031,1.4603815-0.0002298c0.0231218-0.0000019,0.0467386,0.002882,0.0678043-0.0105181
		c0.132328,0.0737209,0.2762833,0.1264286,0.3700132,0.2604065c0.0923672,0.1320314,0.1999731,0.2534046,0.3008928,0.3794537
		c-0.0234041,0.0223989-0.0530882,0.0163069-0.0806494,0.0163536c-0.3095722,0.0005293-0.6191454,0.0002899-0.9287176,0.0003366
		c-0.0349779,0.0000048-0.0700769-0.0006857-0.1028051,0.0149078c-0.1001472-0.0532932-0.2010698-0.1051903-0.3002415-0.160244
		c-0.1151199-0.0639057-0.2265196-0.1348362-0.3435469-0.1948996c-0.1272802-0.0653257-0.2473249-0.1435633-0.3774242-0.2040682
		C12.1538239,10.1503525,12.1134214,10.11695,12.0685816,10.0931902z"/>
	<path fill="#20DE95" d="M15.9993181,10.8280058c-0.0002699,0.0871134-0.0005407,0.1742258-0.0008116,0.2613382
		c-0.0188351,0.0181789-0.042942,0.0157938-0.0659008,0.0159492c-0.2840481,0.0019207-0.5681162-0.0027914-0.8521538,0.0027008
		c-0.0119438,0.0002308-0.0230989-0.0017567-0.0335712-0.0074816c-0.1189384-0.1454735-0.2384033-0.2905207-0.3567076-0.4365091
		c-0.2524729-0.3115597-0.5043468-0.6236038-0.756424-0.935483c-0.0031118-0.0038509-0.0056858-0.0081358-0.0117712-0.0169287
		c0.0282726,0.0003347,0.042676,0.0200176,0.0609703,0.029974c0.2100773,0.1143246,0.4203796,0.2282476,0.6295795,0.3441629
		c0.2441406,0.1352749,0.4867268,0.2733603,0.7309666,0.408453c0.19771,0.1093559,0.3968229,0.2161751,0.5954609,0.3238468
		C15.957592,10.8281288,15.9764471,10.8414612,15.9993181,10.8280058z"/>
	<path fill="#19DC8B" d="M10.8020115,8.8391638c0.0000048-0.3699551,0.0000086-0.7399092,0.0000124-1.1098647
		c0.0017147-0.0340071,0.0228653-0.0444083,0.0532827-0.0450301c0.0466175-0.0009537,0.0932302-0.0005164,0.139842-0.0005422
		c0.1764765-0.0000944,0.352953-0.0002818,0.5294285,0.000205c0.0261841,0.0000725,0.0537701-0.0043344,0.0767508,0.0142727
		c0.0054884,0.0109534,0.003705,0.0227637,0.0037088,0.0342727c0.000083,0.2872028,0.0000792,0.5744057,0.0000648,0.8616085
		c-0.0000019,0.0083046,0.0000982,0.0166054-0.0021143,0.0247002c-0.0216331,0.0215664-0.0496016,0.0164757-0.0756025,0.016552
		c-0.2015238,0.0005913-0.4030514,0.0002718-0.604578,0.0003204c-0.096468,0.0000238-0.0964327,0.0000544-0.0965834,0.0945415
		c-0.0000381,0.0233078,0.0013914,0.046731-0.0014601,0.0698805C10.8228245,8.8158064,10.8239098,8.8345327,10.8020115,8.8391638z"
		/>
	<path fill="#16DC86" d="M11.5995073,7.6998672c-0.2460604-0.0000129-0.4921217,0.0002847-0.7381792-0.0004897
		c-0.0263662-0.000083-0.0492563,0.0005474-0.0593052,0.029922c0.0000038-0.2299838,0.0000048-0.4599667,0.0000076-0.68995
		c0.0075359-0.0613174,0.0019989-0.1228771,0.0032578-0.1843128c0.0011044-0.0539641,0.0047312-0.059124,0.0597677-0.0607419
		c0.0565767-0.0016623,0.113205-0.0004969,0.1698112-0.0005145c0.1631594-0.0000525,0.3263206-0.000278,0.4894781,0.0002236
		c0.0261946,0.0000811,0.0537624-0.0042801,0.0768099,0.0141602c0.0057325,0.0109215,0.0038738,0.0227776,0.0038786,0.034306
		c0.0000944,0.2729349,0.0001221,0.5458698-0.0000935,0.8188043C11.604929,7.6742229,11.6086874,7.6880631,11.5995073,7.6998672z"/>
	<path fill="#0CD979" d="M11.5995073,7.6998672c0.0000048-0.2966223,0.0000095-0.593245,0.0000143-0.8898673
		c-0.0188608-0.022676-0.0152874-0.0501184-0.0152712-0.0763502c0.0001059-0.1843243-0.0014591-0.3686533,0.0011272-0.5529685
		c-0.0020866-0.2164769-0.0023651-0.4329572,0.0000105-0.6494317c-0.001874-0.1462803-0.0022507-0.2925653,0.0000591-0.4388208
		c-0.0021915-0.1182714-0.0002851-0.2365808-0.0010052-0.3548837c-0.0004215-0.0690622-0.002264-0.0713196-0.0690403-0.0714011
		c-0.2033205-0.0002465-0.4066429-0.0003624-0.6099634,0.0000544c-0.0745668,0.0001531-0.0788269,0.0050278-0.0793495,0.0794992
		c-0.000164,0.0233264,0.0015316,0.0467925-0.0011597,0.0699329c-0.0019722,0.0169525,0.0018806,0.0384092-0.0229216,0.0440731
		c-0.0005455-0.3239512-0.0011196-0.647902-0.0016146-0.971853c-0.0001316-0.0863953,0.0001001-0.1727917-0.0000925-0.2591865
		c-0.0000505-0.0224514-0.0011015-0.0449233,0.030405-0.0464168c0.2328758,0.15417,0.4654703,0.3087645,0.6990166,0.4619074
		c0.0262365,0.0172043,0.0457802,0.043829,0.0769682,0.0535607c0.0007162,0.0165801,0.0020943,0.0331912,0.0020962,0.0498023
		c0.0001163,1.5906873,0.0001278,3.181375,0.0001421,4.772059c-0.0162077-0.0178614-0.0050983-0.0401869-0.0098047-0.0599251
		c-0.0235558-0.0800085-0.0241013-0.1599779,0.0004082-0.2399054C11.5995245,8.3131199,11.5995159,8.0064936,11.5995073,7.6998672z"
		/>
	<path fill="#21DE96" d="M13.2198629,10.7304115c0.0039482-0.0376673,0.0327425-0.0308504,0.056695-0.0308676
		c0.3070183-0.0002155,0.6140366-0.0001192,0.9210548-0.0001678c0.0448055-0.0000076,0.0896101-0.0003662,0.1344194-0.0005627
		c0.117794,0.1439533,0.2360306,0.2875462,0.3532743,0.4319448c0.1864929,0.229682,0.3723392,0.4598885,0.5583725,0.6899433
		c0.0073004,0.0090284,0.0136795,0.0188036,0.0204868,0.0282307c-0.0081139,0.006464-0.0164909,0.0061207-0.025054,0.000968
		c-0.0752707-0.0338383-0.1468954-0.0741987-0.2179871-0.1161575c-0.1068926-0.0630922-0.214674-0.1250877-0.3250475-0.1817636
		c-0.1422729-0.0730562-0.2785492-0.1565523-0.4190083-0.2326584c-0.1323833-0.0717306-0.2672806-0.1392784-0.3962774-0.2166586
		c-0.1160431-0.0696125-0.2352953-0.1333551-0.354063-0.1974201c-0.1010361-0.0544996-0.1971302-0.1177206-0.3006105-0.1676273
		C13.2234859,10.7363462,13.2219238,10.7328625,13.2198629,10.7304115z"/>
	<path fill="#22DE97" d="M15.0468807,11.1005125c0.0287008-0.0093937,0.0580587-0.0115404,0.0882568-0.0114841
		c0.2877932,0.0005312,0.5755854,0.0003176,0.8633738,0.0003157c0.000493,0.3477783,0.0010729,0.6955547,0.0014429,1.0433321
		c0.0001335,0.1248074-0.0002432,0.2496157-0.0003843,0.3744144c-0.0867481-0.1133461-0.156539-0.2378225-0.2337952-0.3573666
		c-0.1569014-0.2427797-0.3083582-0.48915-0.4688473-0.7295084c-0.0686016-0.1027441-0.1541119-0.194212-0.2321882-0.2906008
		C15.0574226,11.1205826,15.0484066,11.1129503,15.0468807,11.1005125z"/>
	<path fill="#11DB81" d="M11.5995426,5.5301867c0.000001,0.2166362,0.0000038,0.4332714,0.0000048,0.6499076
		c-0.0223989,0.0197091-0.0499973,0.0155196-0.0761738,0.0155807c-0.2111359,0.0004935-0.4222708-0.0005417-0.6334047-0.0014176
		c-0.0231609-0.0000958-0.0466499-0.0023808-0.0692167,0.0056129c-0.0060778,0.0027909-0.0121794,0.0028157-0.0182924,0.0001254
		c-0.0001431-0.1601563-0.0002851-0.320312-0.0004272-0.4804683c0.0076494-0.049541,0.003273-0.0994229,0.0027628-0.1490655
		c-0.0003471-0.0338063,0.015646-0.0484071,0.045804-0.0534987c0.0131607-0.0022221,0.0264482-0.0027032,0.0397444-0.0027237
		c0.2143774-0.0003309,0.4287548-0.0002933,0.6431322,0.0000501C11.5565395,5.5143266,11.5805006,5.5125656,11.5995426,5.5301867z"
		/>
	<path fill="#13DB83" d="M10.8103008,6.1998124c0.0082664-0.0325675,0.0349884-0.019094,0.0535679-0.0191617
		c0.2452288-0.0008922,0.4904604-0.0005736,0.7356863-0.0005574c-0.0000114,0.209969-0.0000153,0.4199376-0.0000257,0.6299062
		c-0.245759-0.0000143-0.4915171,0.0009027-0.7372532-0.000946c-0.0417166-0.0003128-0.0532465,0.0121603-0.0532265,0.053267
		c0.0000296,0.0589094,0.0113268,0.1187496-0.007021,0.1770306c0.0001516-0.2764292,0.0003014-0.5528569,0.000453-0.8292851
		c0.0406799-0.0115204,0.0830498-0.000411,0.1240482-0.0076728c0.0063066-0.0033565-0.0019531-0.0111823,0.0009851-0.005199
		c0.0012312,0.0025101,0.0005503,0.0041108-0.0020905,0.0044379C10.8869677,6.2064085,10.848546,6.2086058,10.8103008,6.1998124z"/>
	<path fill="#1CDD8F" d="M11.5995321,8.6197462c-0.0001287,0.0799685-0.0002584,0.1599379-0.0003986,0.2399063
		c-0.0265198-0.0026522-0.0473852,0.0088511-0.0687714,0.0234203c-0.2081118,0.1417589-0.4165688,0.2830143-0.6255569,0.4234772
		c-0.0209045,0.0140495-0.0394068,0.0349016-0.0709486,0.0292587c-0.0208454-0.0037289-0.0210724,0.0218592-0.031702,0.033227
		c-0.0000486-0.1766243-0.0000973-0.3532467-0.000144-0.529871c0.0176792-0.0549536,0.0075798-0.1114979,0.0070848-0.1670675
		c-0.0003662-0.0411301,0.0114098-0.0536175,0.0531597-0.0533037C11.1080027,8.6206474,11.3537703,8.6197309,11.5995321,8.6197462z"
		/>
	<path fill="#0FDA7D" d="M10.8020077,4.8597035c0.017724-0.0482516,0.0078764-0.098352,0.0070915-0.1472616
		c-0.0007267-0.0451465,0.0144405-0.0628514,0.0596886-0.0626483c0.2293539,0.0010314,0.4587221,0.001204,0.6880713-0.0002642
		c0.0366879-0.0002346,0.0443268,0.013844,0.0439215,0.0468292c-0.0016108,0.131268-0.0010052,0.2625632-0.0012207,0.3938484
		c-0.0223961,0.0196233-0.0499487,0.0154748-0.0760746,0.0154309c-0.2091398-0.0003514-0.4182768,0.0013776-0.6274185,0.0004101
		c-0.0672054-0.0003104-0.0695372,0.0028553-0.0700731,0.0701709c-0.0002499,0.0315337,0.0014658,0.0631533-0.0009251,0.094573
		c-0.0014067,0.0184536,0.0033379,0.041482-0.0230455,0.0488281C10.8020182,5.1663146,10.8020134,5.0130091,10.8020077,4.8597035z"
		/>
	<path fill="#0FDA7D" d="M10.8020229,5.3196201c0.0187473-0.0600009,0.006423-0.1215167,0.0071392-0.1821957
		c0.0004396-0.0371194,0.0110826-0.048214,0.0483532-0.0479903c0.247344,0.0014853,0.4947033,0.000771,0.7420511,0.0007725
		c-0.0000086,0.1466599-0.0000095,0.2933192-0.0000172,0.4399796c-0.2404261-0.0000162-0.4808474-0.0001316-0.7212667,0.0000181
		c-0.0641537,0.0000405-0.0663157,0.0040951-0.0685234,0.0672474c-0.0014229,0.0406823,0.0096483,0.0823822-0.0077276,0.122077
		C10.8020287,5.5862246,10.8020248,5.4529228,10.8020229,5.3196201z"/>
	<path fill="#16DC86" d="M10.8103008,6.1998124c0.0390091,0,0.0780172,0,0.1170263,0
		c0.0001087,0.0034175,0.0002165,0.0068355,0.0003252,0.010253c-0.0417242,0-0.0834484,0-0.1251707,0
		c-0.0000076-0.003356-0.0000162-0.0067115-0.0000219-0.0100694C10.8050756,6.2000098,10.8076887,6.1999488,10.8103008,6.1998124z"
		/>
	<path fill="#24AD7E" d="M15.2391119,11.8499002c0.0083408-0.0003233,0.0166807-0.0006466,0.0250368-0.0009689
		c0.0093307,0.0062647,0.0181322,0.0128889,0.0185156,0.0315533C15.2663403,11.8690195,15.2527256,11.8594608,15.2391119,11.8499002
		z"/>
	<path fill="#5E5E65" d="M16.7396431,11.8589811c0.0035572,0.0035782,0.0071144,0.0071583,0.0106716,0.0107393
		c-0.0093307,0.0088081-0.0186615,0.0176144-0.0293808,0.027729C16.7129364,11.8755627,16.7276382,11.8679571,16.7396431,11.8589811
		z"/>
	<path fill="#2AC982" d="M11.3219109,6.2222486c0.0857582,0,0.1715155,0,0.2572737,0
		c0.0000162,0.0016794,0.0000334,0.0033588,0.0000505,0.0050383c-0.0852747,0-0.1705484,0-0.2558212,0
		C11.3229132,6.2256074,11.3224115,6.223928,11.3219109,6.2222486z"/>
	<path fill="#29C982" d="M11.2355299,6.2181964c-0.0810766,0-0.1621523,0-0.243228,0
		c0.0000048-0.0016823,0.0000105-0.0033655,0.0000134-0.0050478c0.0824871,0,0.1649733,0,0.2474604,0
		C11.2383614,6.2148309,11.2369452,6.2165141,11.2355299,6.2181964z"/>
</g>
</svg>
