<?xml version="1.0" encoding="utf-8"?>
<!-- Generator: Adobe Illustrator 24.1.1, SVG Export Plug-In . SVG Version: 6.00 Build 0)  -->
<svg version="1.1" id="Слой_1" xmlns="http://www.w3.org/2000/svg" xmlns:xlink="http://www.w3.org/1999/xlink" x="0px" y="0px"
	 viewBox="0 0 32 13" enable-background="new 0 0 32 13" xml:space="preserve" width="32" height="13">
<g>
	<path fill="#282839" d="M21.5196781,6.489336c0,1.0331097-0.0003185,2.0662203,0.0011654,3.0993271
		c0.000061,0.0416784-0.011879,0.0614872-0.0481548,0.0816956c-0.2016964,0.1123695-0.402607,0.2263308-0.602396,0.3419018
		c-0.0900917,0.0521145-0.1832161,0.0988493-0.2720089,0.1531925c-0.1609745,0.0985203-0.3280163,0.1866236-0.4904156,0.2824745
		c-0.1738834,0.1026287-0.3532047,0.1957703-0.5245781,0.3023243c-0.068903,0.04284-0.1422997,0.0763969-0.2116413,0.1180496
		c-0.1458492,0.0876064-0.2941074,0.1712227-0.4417725,0.255785c-0.1085529,0.0621624-0.2180023,0.1227617-0.3265705,0.1848965
		c-0.148243,0.0848427-0.2957191,0.1710262-0.444109,0.2556076c-0.1150932,0.0656013-0.2314816,0.1289234-0.3465786,0.1945171
		c-0.1722469,0.0981636-0.3436375,0.1977873-0.5167332,0.2945127c-0.0801182,0.0447702-0.1639118,0.0848465-0.2395668,0.1370115
		c-0.0770283,0.0531139-0.1617146,0.0913725-0.2421494,0.1376972c-0.1774063,0.1021748-0.3573952,0.200057-0.5322113,0.3064585
		c-0.0849895,0.0517273-0.1762886,0.0915279-0.2589207,0.1467361c-0.0130615,0.008728-0.0220127,0.0083599-0.0355511,0.0006704
		c-0.0675097-0.0383368-0.1369781-0.0733232-0.2036448-0.1130333c-0.1746368-0.104023-0.3526669-0.201951-0.5294991-0.3020258
		c-0.0805044-0.0455589-0.1615477-0.0909491-0.2416248-0.1376553c-0.1260462-0.0735197-0.2520437-0.1471224-0.378068-0.2206812
		c-0.0111809-0.006525-0.0219841-0.0138788-0.0336714-0.0193243c-0.1239767-0.0577736-0.2359161-0.1368656-0.3561459-0.2015495
		c-0.0671463-0.0361271-0.1335545-0.0743761-0.200326-0.1116772c-0.1245823-0.0695982-0.2460756-0.1447039-0.3693571-0.2166567
		c-0.053072-0.0309744-0.107955-0.0588465-0.1610336-0.0898085c-0.0940866-0.054884-0.1924868-0.102726-0.2849236-0.1594257
		c-0.084837-0.0520372-0.1738091-0.0957861-0.25875-0.1467886c-0.1640148-0.0984802-0.3316469-0.1904421-0.4976397-0.285346
		c-0.169652-0.0969944-0.3403053-0.1923037-0.5092621-0.2903261c-0.1709795-0.0991955-0.3435287-0.1956501-0.5138426-0.2958603
		c-0.0815001-0.0479546-0.1669588-0.0885477-0.2472172-0.13764c-0.1646252-0.1006975-0.333499-0.1933689-0.5016394-0.2877274
		c-0.0642033-0.0360289-0.1292114-0.073204-0.1921215-0.1127453c-0.012743-0.0080099-0.0204411-0.0138407-0.0186081-0.0293474
		c0.0011654-0.00986,0.0002069-0.0199699,0.0002069-0.0299673c0-2.0695529,0.0001488-4.1391048-0.0010347-6.2086573
		c-0.0000248-0.0423346,0.0130329-0.0631866,0.0505934-0.0813859c0.1212168-0.0587306,0.2365036-0.1295428,0.3516655-0.1983919
		c0.0848064-0.0507011,0.1735497-0.0937471,0.2579641-0.1448278c0.1690559-0.1023004,0.343586-0.1955764,0.5134802-0.2960231
		c0.0779076-0.0460596,0.1620321-0.0812588,0.2361965-0.1340983c0.075695-0.0539303,0.1628494-0.0888109,0.2417488-0.1372054
		c0.1774712-0.1088529,0.3630409-0.2034965,0.5407944-0.3114657c0.0712128-0.0432558,0.1458759-0.0793619,0.2175684-0.1213026
		c0.1789618-0.1046959,0.3610783-0.2041161,0.5381603-0.3118479c0.0664806-0.0404456,0.1362228-0.0740061,0.2032938-0.1129053
		c0.1849871-0.1072882,0.371973-0.2113806,0.5567732-0.3187618c0.0829067-0.048174,0.1718264-0.0859841,0.2505169-0.1410004
		c0.076519-0.053499,0.1633635-0.0884318,0.2420502-0.1370736c0.1710787-0.1057548,0.3489857-0.1992695,0.5222645-0.3008335
		c0.0801325-0.0469685,0.1621866-0.0902047,0.2424641-0.136727c0.1732416-0.1003988,0.3471632-0.199623,0.5204029-0.3000246
		c0.0227127-0.013163,0.0415468-0.0094167,0.0630198,0.0021345c0.1480045,0.0796221,0.2930298,0.1647281,0.4386921,0.2482874
		c0.179842,0.1031676,0.3607273,0.2045644,0.5399475,0.3088009c0.0656109,0.0381586,0.1319427,0.0747495,0.1980896,0.1118479
		c0.1307373,0.0733241,0.2592373,0.1506329,0.388607,0.2263921c0.0112038,0.0065621,0.0212975,0.0154244,0.0330658,0.0205659
		c0.1388016,0.0606432,0.2624378,0.1486392,0.3952866,0.2202529c0.1638451,0.0883253,0.3239269,0.1841234,0.4860134,0.2760739
		c0.1747055,0.099108,0.3481007,0.200382,0.5236797,0.2980839c0.0815105,0.0453575,0.1640606,0.0906302,0.2439156,0.1393708
		c0.169529,0.1034734,0.3444347,0.1972098,0.5163021,0.2962952c0.0844879,0.0487092,0.1711121,0.0937705,0.2544727,0.1441042
		c0.1651669,0.0997279,0.3351345,0.190855,0.5018597,0.2875946c0.1682758,0.0976381,0.3378124,0.1929016,0.5065956,0.2895403
		c0.1448689,0.0829453,0.2875614,0.1697843,0.4347954,0.248636c0.0158768,0.0085046,0.0210476,0.0186801,0.0202179,0.0349629
		c-0.0005913,0.0116336-0.0001049,0.0233223-0.0001049,0.0349865C21.5196781,4.4231162,21.5196781,5.4562259,21.5196781,6.489336z"
		/>
	<path fill="#FEFEFD" d="M19.2307205,3.7379043c0.2758083,0.2690723,0.394537,0.6028554,0.3951988,0.9812863
		c0.001852,1.0597353,0.0017567,2.1194763-0.0002441,3.1792107c-0.0004253,0.2255383-0.0482121,0.442523-0.1555214,0.6433115
		c-0.1676826,0.3137579-0.4348793,0.510354-0.7593555,0.6367874c-0.2565842,0.0999784-0.5249863,0.1439638-0.7987366,0.1613865
		c-0.2850361,0.0181398-0.569191,0.0122833-0.8516312-0.0313749c-0.3796043-0.0586805-0.7336731-0.1785727-1.0216255-0.4466591
		c-0.2247915-0.2092829-0.346755-0.4713087-0.3881493-0.7733278c-0.0117912-0.0860291-0.0134907-0.1724119-0.0134735-0.2590423
		c0.0002136-1.0447407-0.001523-2.0894866,0.0010796-3.1342216c0.0008602-0.3453083,0.1077509-0.6546388,0.3493242-0.9087732
		c0.1952639-0.2054186,0.4377241-0.3330154,0.7060194-0.4151802c0.2563229-0.0784988,0.5197315-0.1127098,0.786808-0.1198604
		c0.3170052-0.0084875,0.6325073,0.0044351,0.9426594,0.0791731c0.0419331,0.0101051,0.0838394,0.0203209,0.1257572,0.0304854
		c0.0645313,0.0021682,0.1224079,0.0281155,0.1806355,0.0517991c0.1486702,0.0604701,0.289959,0.1342633,0.4154568,0.2356904
		C19.1772671,3.6747346,19.2099895,3.7005796,19.2307205,3.7379043z"/>
	<path fill="#FEFEFD" d="M14.5989637,6.3029552c0,0.972918-0.0004168,1.9458375,0.0012293,2.9187541
		c0.000083,0.0486012-0.0117598,0.0593634-0.0595436,0.0591097c-0.4015179-0.0021372-0.8030586-0.0021048-1.2045774,0.0000076
		c-0.0455475,0.0002403-0.0536938-0.0125465-0.0536594-0.0551863c0.0011587-1.4777031,0.0006437-2.9554076,0.0022774-4.4331093
		c0.0000582-0.0530796-0.014534-0.0639114-0.0650167-0.0635014c-0.3032103,0.0024624-0.6064529,0.0005727-0.9096756,0.0020742
		c-0.0363588,0.0001798-0.0480213-0.0071807-0.0475674-0.0459652c0.002224-0.1898932,0.0023642-0.3798447-0.0000505-0.5697336
		c-0.0005283-0.0416245,0.013792-0.0485072,0.0510931-0.0485678c0.2339687-0.000381,0.4635334-0.0317302,0.689827-0.0934634
		c0.261919-0.0714512,0.4513292-0.2337499,0.5947723-0.456821c0.0349884-0.0544097,0.0654202-0.111897,0.095437-0.1692817
		c0.0116749-0.0223219,0.0252495-0.0301237,0.0502205-0.030046c0.2715712,0.0008461,0.5431566,0.0016987,0.8147106-0.0006044
		c0.0460501-0.0003905,0.0406752,0.0238893,0.0406704,0.0525839C14.5989351,4.3471217,14.5989637,5.3250384,14.5989637,6.3029552z"
		/>
	<path fill="#474752" d="M19.2307205,3.7379043c-0.195982-0.1822603-0.4295101-0.2965825-0.6818905-0.3767986
		c-0.0053616-0.0306532-0.0351868-0.0270579-0.0542011-0.0384803c-0.0213528-0.0128272-0.0430565-0.0250909-0.0648708-0.0371256
		c-0.3230591-0.1782391-0.6457748-0.3571043-0.9694042-0.5343032c-0.1823063-0.0998197-0.3666821-0.1958659-0.5490685-0.2955406
		c-0.1034698-0.056545-0.2022514-0.1221602-0.3077946-0.1742749c-0.1148777-0.0567245-0.2245808-0.1222591-0.3373013-0.1825349
		c-0.0716343-0.0383055-0.1431274-0.0769374-0.2135925-0.1173303c-0.0285873-0.0163873-0.0521927-0.0183382-0.0825472-0.0015309
		c-0.2148676,0.118978-0.4310818,0.2355192-0.6462526,0.3539562c-0.2809963,0.1546712-0.5612059,0.3107731-0.8421774,0.4654908
		c-0.1833162,0.1009431-0.3675632,0.2001903-0.5510607,0.3008058c-0.174715,0.0958002-0.3487129,0.1929107-0.5235472,0.2884903
		c-0.1820164,0.0995047-0.3651648,0.1969445-0.5468969,0.2969611c-0.2339811,0.1287713-0.4663801,0.2604277-0.7008495,0.3882935
		c-0.0873299,0.0476241-0.1768475,0.091095-0.2626276,0.1418514c-0.0266438,0.0157647-0.0369081,0.0311146-0.0368938,0.0618258
		c0.0007057,1.4847174,0.0007086,2.9694347-0.0000162,4.4541516c-0.0000153,0.03055,0.0095253,0.0467749,0.0362558,0.0623713
		c0.1376543,0.0803127,0.2776985,0.156168,0.4176931,0.2322588c0.270155,0.1468353,0.5394821,0.2952147,0.8082819,0.4445171
		c0.1234684,0.0685797,0.2471485,0.137105,0.3714485,0.203805c0.1124249,0.0603266,0.2218351,0.1264753,0.3371696,0.181921
		c0.0805635,0.0387278,0.1620531,0.0811348,0.230876,0.1369915c0.0606127,0.0491934,0.1049032,0.1187716,0.1552248,0.1803093
		c0.1427641,0.1745863,0.2851639,0.3494711,0.4272547,0.5246067c0.1368618,0.1686916,0.2728109,0.3381243,0.4098263,0.5066929
		c0.0876722,0.1078606,0.1765528,0.2147417,0.2621288,0.3263931c-0.0752411-0.0334845-0.1495171-0.067193-0.2204313-0.1088629
		c-0.0899553-0.0528584-0.1821232-0.1019602-0.2734699-0.1524391c-0.006753-0.0037327-0.0143223-0.0099096-0.0223293-0.0015001
		c-0.0277309,0.0033674-0.0358257-0.0210752-0.0482607-0.0365715c-0.1720037-0.2143679-0.3461781-0.4269781-0.5183277-0.6412287
		c-0.0907612-0.112957-0.182209-0.2253742-0.2735453-0.3378754c-0.0213261-0.026268-0.0471954-0.0475321-0.0770102-0.0628014
		c-0.1762848-0.0902805-0.3471727-0.1905203-0.5212412-0.284853c-0.1447382-0.0784378-0.2883749-0.1594582-0.4325676-0.2391901
		c-0.1644459-0.09093-0.3249969-0.189064-0.4952679-0.2692938c-0.0152016-0.007164-0.0272846-0.019063-0.0415497-0.0277014
		c-0.1022491-0.0620174-0.2081184-0.1177521-0.3129768-0.1748533c-0.1459627-0.079483-0.2909203-0.1606035-0.4350376-0.2433071
		c-0.0202265-0.0116053-0.0411367-0.0229931-0.0457649-0.0494432c-0.0031824-0.0283451-0.0019026-0.0566769-0.0019054-0.0849609
		c-0.0000858-0.6793423,0.0015812-1.3586893-0.0004768-2.0380259c-0.0026436-0.872436,0.0002747-1.7448716-0.0028343-2.6172981
		c-0.0002537-0.071094,0.016696-0.1190143,0.0838223-0.1520886c0.0504208-0.024843,0.0993986-0.053839,0.1492367-0.0802875
		c0.0546799-0.0307603,0.1113644-0.0579894,0.1661501-0.0889921c0.222168-0.1257243,0.4479122-0.2449934,0.6706305-0.3697486
		c0.0217247-0.0121689,0.0425434-0.0258348,0.0644827-0.03759c0.1373634-0.0741105,0.2728977-0.1516368,0.4105272-0.2251782
		c0.1699171-0.0907929,0.3347111-0.1908233,0.506444-0.2782378c0.2097788-0.1218717,0.4245377-0.2348003,0.6356697-0.3542893
		c0.1038446-0.0587697,0.2077332-0.1182806,0.3153238-0.1703815c0.0361958-0.0175276,0.0681467-0.0413094,0.1022844-0.0618327
		c0.1851797-0.0939646,0.3636866-0.2000914,0.5458937-0.2994757c0.0481205-0.0262482,0.096261-0.0524009,0.1426458-0.0816746
		c0.1941595-0.0914484,0.3739605-0.2092521,0.5641823-0.3080412c0.0404453-0.0210047,0.0702324-0.0210285,0.1104107,0.000384
		c0.1217155,0.064869,0.2394886,0.1368288,0.3624878,0.1992871c0.1222343,0.0773159,0.2549667,0.1355278,0.3793201,0.2091488
		c0.1871967,0.110827,0.3804474,0.2109649,0.5697002,0.3182642c0.1298294,0.0736084,0.2624454,0.1426146,0.3933792,0.214443
		c0.0523682,0.0287278,0.1017132,0.0630054,0.1567421,0.08708c0.2229385,0.1226125,0.4447441,0.247272,0.6674252,0.3703604
		c0.3011036,0.1664371,0.6040497,0.3295436,0.90308,0.4997289c0.2663727,0.1388533,0.5248337,0.2921476,0.7901955,0.4329264
		c0.045002,0.0238748,0.0982323,0.0416312,0.1280117,0.0898285c0.0046921,0.0282516,0.0027657,0.0566373,0.0027695,0.0849166
		c0.0001125,0.9498234-0.0012646,1.8996491,0.0005856,2.8494687c0.0011787,0.6048808-0.0009441,1.2097654,0.0026951,1.8146267
		c0.0004501,0.0746794-0.0225868,0.1209116-0.0890102,0.1551895c-0.1316891,0.0679607-0.2568207,0.1482058-0.3900394,0.2135735
		c-0.0345058,0.0169306-0.0672951,0.0366154-0.099329,0.0574636c-0.2317371,0.1197834-0.4579258,0.2499447-0.685812,0.3770056
		c-0.1555176,0.0854187-0.3106155,0.1716909-0.4662876,0.2567129c-0.1148682,0.0627356-0.2262192,0.1322489-0.3448429,0.1881075
		c-0.0331688,0.0156193-0.0647659,0.0336475-0.0938988,0.0559196c-0.1097279,0.035387-0.1722641,0.125144-0.2405052,0.2084799
		c-0.2472191,0.3019094-0.4959106,0.6026106-0.7435417,0.9041815c-0.0111046,0.013525-0.0192719,0.0324869-0.0424442,0.028512
		c-0.0400085,0.0046282-0.0679379,0.0337019-0.1017761,0.0507603c-0.1303387,0.0657015-0.2529316,0.1457901-0.3852158,0.2080517
		c-0.0173893,0.0081835-0.0317078,0.022893-0.0529938,0.0301924c0.0342903-0.0426245,0.0680752-0.0856686,0.1029587-0.1278009
		c0.1607037-0.1941004,0.3214321-0.3881826,0.4827023-0.5818138c0.1390133-0.1669102,0.2789898-0.3330173,0.4181175-0.4998322
		c0.1008892-0.1209641,0.2017708-0.2419481,0.3009472-0.3643093c0.017622-0.0217428,0.0388279-0.0358114,0.0618324-0.0484743
		c0.1828785-0.100667,0.3656902-0.2014847,0.5486107-0.3020134c0.1031494-0.0566883,0.206871-0.1129618,0.3105431-0.1689301
		c0.2513504-0.1356936,0.4991417-0.2779875,0.7506733-0.4133358c0.1564369-0.0841789,0.3124619-0.1688557,0.4665012-0.2573586
		c0.0300922-0.0172901,0.0360489-0.0366535,0.036005-0.067564c-0.0007267-0.5280409-0.0005226-1.0560822-0.0005226-1.5841241
		c0-0.9511409-0.0002022-1.9022822,0.000761-2.8534226c0.0000381-0.0374689-0.008976-0.0583525-0.0443707-0.0774956
		c-0.2073059-0.1121168-0.412508-0.2281234-0.6187801-0.3421664c-0.0824852-0.045604-0.1658897-0.0895474-0.2488708-0.1342504
		C19.2418728,3.7318618,19.2358913,3.7320192,19.2307205,3.7379043z"/>
	<path fill="#02CDC7" d="M11.6087189,8.9196949c0.2074623,0.1156397,0.4151649,0.230854,0.6222305,0.3471994
		c0.0563421,0.0316572,0.1190042,0.0520334,0.1692591,0.0945387c0.0311518,0.0913181,0.0553045,0.1847382,0.0819416,0.2773714
		c0.0699759,0.2433586,0.1420984,0.4861002,0.2103901,0.7299414c0.0066376,0.0237026,0.0175495,0.0479774-0.0023479,0.0709953
		c-0.1167498-0.064992-0.2333813-0.1301994-0.3502836-0.1949158c-0.1126289-0.0623522-0.2256851-0.1239328-0.3382921-0.1863241
		c-0.1790009-0.0991764-0.357522-0.1991835-0.5372038-0.2971687c-0.1477003-0.0805454-0.2925787-0.166214-0.4417019-0.2445536
		c-0.0698214-0.0366793-0.1357031-0.0816736-0.2068501-0.1167164c-0.0130644-0.0064354-0.0156107-0.0153456-0.0153646-0.0276384
		c0.0002003-0.0099878-0.0001221-0.0199862-0.0001221-0.0299807c0-1.1426735,0.0000038-2.2853475,0.0000868-3.4280214
		c0.000001-0.014957,0.0010567-0.0299144,0.0016203-0.0448713c0.0064535-0.0178275,0.0031996-0.036325,0.0032053-0.0544724
		c0.0002022-0.5448194,0.0001078-1.0896392,0.0003986-1.6344585c0.0000105-0.0194025-0.0044718-0.0395083,0.006074-0.0624533
		c0.0300102,0.0116858,0.0326128,0.0395718,0.0395508,0.063169c0.0822315,0.2797108,0.1625786,0.5599689,0.2434893,0.840064
		c0.1081896,0.3745241,0.2169142,0.7488942,0.3246622,1.1235456c0.0071688,0.02493,0.0207472,0.0504274,0.0024071,0.0764761
		c-0.0302877,0.0073919-0.061039,0.0017872-0.0915556,0.0031343c-0.0066605,0.0002637,0.0030756,0.0108786,0.0001621,0.0048833
		c-0.0005217-0.0010729,0.0004711-0.0018997,0.0029907-0.0019631c0.037096-0.0009394,0.074419-0.0093131,0.1111736,0.0033412
		c0.0413723,0.1353178,0.0736399,0.2736115,0.1206264,0.4067674c0.0347519,0.0984812,0.0406742,0.196629,0.0404749,0.2985392
		c-0.001255,0.6413798-0.0006733,1.282764-0.0004511,1.9241462C11.6052952,8.880064,11.6017094,8.9002399,11.6087189,8.9196949z"/>
	<path fill="#03BCDB" d="M20.3970337,4.0610318c-0.1053276-0.0564117-0.2110634-0.1120794-0.3158798-0.1694241
		c-0.1326885-0.0725937-0.2647629-0.1463144-0.3968372-0.2200234c-0.0651703-0.036371-0.1297493-0.0738063-0.1945953-0.1107602
		c-0.030014-0.0132654-0.0415096-0.0378191-0.0502071-0.0687137c-0.0862083-0.3061421-0.1753006-0.6114633-0.2641945-0.9168382
		c-0.0060539-0.0207942-0.01334-0.0414648-0.0150928-0.0630507c-0.0012569-0.0154531-0.0066395-0.034466,0.0166264-0.0406866
		c0.1129227,0.050432,0.2188435,0.113956,0.3264618,0.1743326c0.133255,0.074759,0.2667789,0.1490352,0.4001446,0.2235978
		c0.0043297,0.0024209,0.0078182,0.006603,0.0123215,0.0084207c0.1233177,0.0497606,0.2319698,0.1267972,0.3489456,0.1884644
		c0.1783638,0.0940306,0.3525772,0.195833,0.5301895,0.2915525c0.133007,0.0716822,0.2624073,0.1508005,0.3965721,0.220916
		c0.020916,0.0109317,0.0307159,0.0230634,0.0282211,0.0460899c-0.00107,0.0098753-0.0000858,0.0199695-0.0000858,0.0299644
		c0.0000076,0.9863062,0.0001411,1.9726124-0.0000648,2.9589186c-0.0000629,0.298861-0.0010567,0.5977216-0.0016193,0.8965831
		c-0.0091248,0.0218296,0.0027771,0.046247-0.0092068,0.0715871c-0.0334015-0.013485-0.036108-0.0453329-0.0441723-0.0715652
		c-0.0405884-0.1320529-0.0772514-0.2652669-0.1156483-0.3979712c-0.2035332-0.7034802-0.4076557-1.4067883-0.6098919-2.1106424
		c-0.0092335-0.032135-0.0286446-0.0601926-0.0341625-0.0935392c0.0002823-0.2718964-0.0004005-0.5437093,0.0003967-0.8155217
		C20.4052887,4.0813189,20.4087677,4.0692759,20.3970337,4.0610318z"/>
	<path fill="#02CACA" d="M12.6901922,10.4397411c-0.0078316-0.0951824-0.0449839-0.1829987-0.0702944-0.273633
		c-0.0690908-0.2474298-0.1411076-0.4940453-0.2130041-0.7406807c-0.0062885-0.0215721-0.0058842-0.0425415-0.0066853-0.0640001
		c0.1300573,0.0707817,0.2614279,0.1392651,0.3898582,0.2128801c0.1830225,0.104907,0.3695545,0.203475,0.5532961,0.3070898
		c0.1097031,0.0618639,0.2192068,0.1252813,0.332325,0.1816483c0.0772247,0.0384827,0.1518517,0.0822992,0.2268028,0.1251926
		c0.0733805,0.041995,0.1131868,0.1163092,0.1642523,0.1788721c0.2429438,0.2976503,0.4834127,0.5973206,0.724864,0.8961926
		c0.0019712,0.0024385,0.0053425,0.0037489,0.0080547,0.005579c0.1437807,0.178812,0.287591,0.3576078,0.4313059,0.5364819
		c0.0114479,0.0142498,0.0222321,0.0290308,0.0333242,0.0435648c-0.0081549,0.0064688-0.0165682,0.0061188-0.0251646,0.0009565
		c-0.0736237-0.0331383-0.1436586-0.0727015-0.2133894-0.1134367c-0.1142025-0.0667114-0.2298183-0.1312246-0.3468971-0.1927471
		c-0.1939287-0.1019039-0.38237-0.2136507-0.5758581-0.3165159c-0.1528015-0.081233-0.3023777-0.1694031-0.4538136-0.2537699
		c-0.1695652-0.0944681-0.3385143-0.1899376-0.5099125-0.2811699C12.9877052,10.611577,12.8397398,10.5241728,12.6901922,10.4397411
		z"/>
	<path fill="#02CBC9" d="M11.6087189,8.9196949c-0.014739-0.0174675-0.0081549-0.0383663-0.0081654-0.0576506
		c-0.0003567-0.6774158-0.0003643-1.3548331-0.0001307-2.0322495c0.0000134-0.0398507-0.0076323-0.0744276-0.0264683-0.1122999
		c-0.0283432-0.0569844-0.0392523-0.1226497-0.0574722-0.1846533c-0.0238209-0.081059-0.0482445-0.161952-0.0707874-0.2433648
		c-0.0051947-0.0187621-0.0037947-0.0393496-0.0054302-0.0590968c0.0441704-0.0121694,0.0901642-0.0007253,0.1363907-0.0064459
		c-0.0533781-0.0001774-0.1048985,0.0060635-0.1563902-0.0042119c-0.0118484-0.0875096-0.0434589-0.1698856-0.0674725-0.2541122
		c-0.1204433-0.4224524-0.2424994-0.8444457-0.3643465-1.2664971c-0.0533371-0.184751-0.1074915-0.369266-0.1614981-0.553823
		c-0.0016642-0.0056839-0.005827-0.0106373-0.0166473-0.0143094c0,0.0172701,0,0.0345397,0,0.0518093
		c0,0.5430169,0.0000782,1.0860343-0.0003166,1.6290517c-0.0000153,0.0192704,0.0067835,0.040175-0.0079031,0.0577097
		c-0.0005693-0.0166078-0.0016365-0.0332155-0.0016394-0.0498223c-0.0000811-0.7239661,0.0002213-1.4479322-0.0008545-2.1718967
		c-0.0000591-0.0397301,0.0111513-0.0591161,0.0482512-0.079139c0.1257-0.0678411,0.2536983-0.1318219,0.373601-0.2104313
		c0.04807-0.0315149,0.1024704-0.0534291,0.1541929-0.0793092c0.0795631-0.0398128,0.150795-0.0951538,0.2351398-0.1260307
		c0.0190496,0.0056794,0.023407,0.0226512,0.0278244,0.0383811c0.0674095,0.2399991,0.1403084,0.4784231,0.2062025,0.7188535
		c0.0017452,0.0063674,0.0015793,0.0131896,0.0031834,0.0196617c-0.0669537,0.0392141-0.132659,0.0808315-0.201436,0.1165357
		c-0.0302544,0.0157061-0.0384636,0.0333347-0.0384474,0.0656996c0.0008059,1.5692363,0.0007296,3.1384721,0.0007448,4.7077088
		C11.6088438,8.8530731,11.6087618,8.886384,11.6087189,8.9196949z"/>
	<path fill="#03BDDA" d="M20.4104233,4.9202237c0.0425167,0.0326138,0.0435123,0.0847144,0.056591,0.1293483
		c0.0991879,0.3385406,0.19557,0.6779003,0.2931137,1.016923c0.1268539,0.4408932,0.2537861,0.8817635,0.3811817,1.3224998
		c0.017765,0.0614662,0.0383797,0.1221099,0.0593891,0.1885514c0.0167027-0.025497-0.0002251-0.0501266,0.0172405-0.0671721
		c0.0005646,0.0982685,0.0015888,0.196537,0.0016193,0.294805c0.0001698,0.4915156,0.000103,0.9830327-0.0000114,1.4745488
		c-0.0000019,0.0199413-0.0013027,0.0398827-0.0019989,0.059824c-0.0750065,0.0069656-0.1747799-0.0611763-0.1961689-0.1362038
		c-0.0639381-0.2242918-0.129034-0.4482508-0.1941013-0.6722136c-0.1324539-0.4559269-0.2613068-0.9129076-0.3972721-1.3677988
		c-0.0244656-0.0818529-0.0321045-0.1644835-0.022171-0.2466164c0.004221-0.0349169-0.0034733-0.0659504-0.0034389-0.0987568
		c0.000679-0.616416,0.0004482-1.2328324,0.000761-1.8492489C20.4051666,4.9525795,20.3999004,4.9353976,20.4104233,4.9202237z"/>
	<path fill="#03BFD8" d="M20.4104233,4.9202237c-0.0002251,0.6346631-0.0005131,1.2693262-0.00037,1.9039893
		c0.0000038,0.0179653-0.0089722,0.0417972,0.0227757,0.0464549c0.0115776,0.0016985,0.0057583,0.0075669-0.0013657,0.010108
		c-0.0282955,0.0100918-0.0191765,0.0346136-0.0218868,0.0550656c-0.015543,0.11729,0.0373096,0.2207794,0.0676708,0.3282719
		c0.1099434,0.389256,0.2222252,0.777854,0.3343182,1.166501c0.0744267,0.2580471,0.1508369,0.5155268,0.2243004,0.7738447
		c0.0119534,0.0420227,0.0319977,0.069828,0.0730686,0.0854416c0.0371304,0.0141163,0.0724773,0.032917,0.108614,0.0496511
		c0.0071621,0.0342503-0.0014133,0.0543766-0.0368729,0.0731974c-0.1938076,0.1028633-0.387022,0.207098-0.577076,0.3166904
		c-0.1615772,0.0931692-0.3252106,0.1824074-0.4886246,0.2721548c-0.015419,0.0084686-0.0298977,0.0186558-0.0448132,0.0280447
		c-0.0391541,0.0168371-0.0458603-0.0136719-0.0536175-0.0385876c-0.0296764-0.0953169-0.0553493-0.1918154-0.0837498-0.2875319
		c-0.0388069-0.1307869-0.0757236-0.2621555-0.1125412-0.3935337c-0.0057144-0.0203934-0.0164299-0.0410852-0.0010643-0.062005
		c0.0365925-0.0354767,0.0838337-0.0538149,0.1276054-0.0771198c0.1394196-0.0742292,0.2766972-0.1522055,0.4144554-0.2293921
		c0.033926-0.0190096,0.0405483-0.040411,0.0405121-0.0751286c-0.0006924-0.6610804-0.0001945-1.3221631-0.0002098-1.9832449
		c-0.0000229-0.9208546-0.0002403-1.8417087-0.0005836-2.7625632c-0.0000076-0.0198345-0.002552-0.0396681-0.0039253-0.0595016
		c0.0132561,0.0035486,0.0159454,0.0107188,0.0158672,0.0253811C20.4114017,4.3643456,20.4110298,4.6422853,20.4104233,4.9202237z"
		/>
	<path fill="#03BFD9" d="M19.1768532,2.471535c-0.0158997,0.0623226,0.0177784,0.1158144,0.0333538,0.1716034
		c0.0815144,0.2919724,0.1666527,0.5829322,0.2486267,0.874779c0.0057907,0.0206196,0.0261631,0.0249064,0.0308876,0.0429063
		c-0.0922279-0.0493248-0.1849098-0.0978272-0.2765865-0.1481571c-0.1588554-0.0872092-0.3169956-0.1757162-0.4756031-0.2633777
		c-0.2182674-0.1206355-0.4368229-0.2407506-0.654953-0.3616323c-0.0551891-0.0305836-0.1092377-0.063226-0.1638088-0.0949225
		c-0.0879459-0.3400595-0.1959648-0.6744025-0.2881565-1.0132425c-0.0060329-0.0221814-0.02841-0.049247,0.0073624-0.0681998
		c0.054451,0.0243526,0.0992012,0.0644333,0.1529884,0.0909452c0.1169109,0.0576271,0.2313347,0.1203949,0.3458614,0.1827414
		c0.1668663,0.0908409,0.3342209,0.1809305,0.4986153,0.2760969c0.0553493,0.0320411,0.1114731,0.0620627,0.1675262,0.0926254
		c0.1242809,0.0677633,0.2466106,0.1391037,0.3695965,0.2092307C19.1748772,2.4642506,19.1754627,2.4685996,19.1768532,2.471535z"/>
	<path fill="#03C0D6" d="M17.6379757,1.6112918c-0.0126686,0.0132625-0.0065823,0.027051-0.0023346,0.0416902
		c0.0783424,0.2699469,0.1563511,0.5399907,0.2344379,0.8100119c0.0176315,0.0609746,0.0341377,0.1223121,0.0536118,0.182694
		c0.0058384,0.0181093,0.0032711,0.0320435-0.0049191,0.0470417c-0.1080704-0.0584447-0.216444-0.116344-0.3241367-0.1754782
		c-0.1470909-0.0807688-0.2943478-0.1612744-0.4402828-0.2440958c-0.173418-0.0984163-0.3509007-0.1895201-0.5215588-0.2929463
		c-0.0693245-0.042014-0.1496925-0.0644871-0.213335-0.1172669c-0.0187492-0.0159272-0.0253754-0.038142-0.0318756-0.0605896
		c-0.0937157-0.3236034-0.1880054-0.6470416-0.2801533-0.9710965C16.101265,0.8095735,16.09025,0.7866415,16.1112881,0.7661418
		c0.1216221,0.0643307,0.2452049,0.1252549,0.364378,0.1938399c0.1544743,0.0889015,0.3115044,0.1729642,0.4671993,0.2594532
		c0.1657696,0.0920855,0.3317032,0.1841059,0.4963017,0.2782214C17.5053005,1.5354704,17.576416,1.5653576,17.6379757,1.6112918z"/>
	<path fill="#02C7CF" d="M16.6213417,11.4598351c-0.0838127,0.1436968-0.1672459,0.2876167-0.2515316,0.431036
		c-0.1147232,0.1952105-0.2305603,0.3897667-0.344717,0.5853062c-0.0181866,0.0311518-0.0280304,0.0392752-0.0504494,0.0026217
		c-0.0772333-0.1262712-0.1569891-0.2509995-0.2357864-0.3763161c-0.0979052-0.3210258-0.1869688-0.6446257-0.2815142-0.9666271
		c-0.0580435-0.1976919-0.1131773-0.3962193-0.1716576-0.5937853c-0.0074453-0.0251532-0.0251741-0.0539513,0.0070038-0.0766315
		c0.0881901,0.0258923,0.1662588,0.0732269,0.2452993,0.1180506c0.1316662,0.074666,0.2653751,0.145607,0.3971977,0.2199564
		c0.0275269,0.0155249,0.0523386,0.0150242,0.0799236,0.0000048c0.0789318-0.0429792,0.1566906-0.0880623,0.2355652-0.1310654
		c0.0350227-0.0190926,0.0677834-0.0515709,0.1145439-0.0363436c0.0210075,0.0139484,0.0283432,0.0360956,0.0347271,0.0585966
		C16.4724236,10.9500866,16.5468216,11.204978,16.6213417,11.4598351z"/>
	<path fill="#02C6D0" d="M14.7003374,2.3513327c-0.0384159,0.0385094-0.0886364,0.0575831-0.1355038,0.082128
		c-0.1836557,0.0961828-0.3609753,0.203845-0.5455818,0.2984793c-0.1120825,0.0574563-0.2194633,0.1240692-0.3291073,0.1863031
		c-0.0128613,0.0072999-0.0266819,0.0129111-0.0400572,0.0193055c-0.0181084-0.0129397-0.0198021-0.0338809-0.0252438-0.0527697
		c-0.0470362-0.1632519-0.1003304-0.3251123-0.1387081-0.4902735c-0.0196199-0.0844293-0.0549574-0.1619041-0.0770111-0.2443869
		c0.1271076-0.0704024,0.2545242-0.1402524,0.3812456-0.2113417c0.1702194-0.0954914,0.3404694-0.1908487,0.5121145-0.2838145
		c0.0587711-0.0318311,0.114563-0.069127,0.1776228-0.0930042c0.0296736,0.0418752,0.0346699,0.092602,0.0485115,0.139822
		c0.0578671,0.1974199,0.1142426,0.3952787,0.1720018,0.5927353C14.7061338,2.3133676,14.7151852,2.3324761,14.7003374,2.3513327z"
		/>
	<path fill="#03C3D4" d="M16.1112881,0.7661417c-0.0014381,0.06107,0.0248566,0.1160391,0.0409107,0.1727174
		c0.0873795,0.3085065,0.1778526,0.6161374,0.2672596,0.9240765c-0.1239586-0.066801-0.2486649-0.1322821-0.3713627-0.2013278
		c-0.0315838-0.0177739-0.0536232-0.017115-0.0857964-0.0004092c-0.1868105,0.0969967-0.36374,0.2120602-0.5542974,0.3020469
		c-0.0059643,0.0028166-0.01231,0.0048239-0.0184784,0.0072087C15.3513393,1.98036,15.3503017,1.947143,15.3436537,1.9268814
		c-0.0332003-0.101153-0.0600872-0.2042292-0.089283-0.3065979c-0.0364971-0.1279656-0.075284-0.2552583-0.1115637-0.3832829
		c-0.004488-0.015839-0.0118084-0.0315185-0.0037708-0.0483607c0.1193619-0.0600268,0.2345743-0.1279236,0.3508883-0.1932523
		c0.164155-0.0921991,0.3297596-0.1817389,0.4939308-0.2738686c0.0176229-0.0098891,0.0332937-0.0118163,0.0509882-0.0006766
		C16.0599022,0.736616,16.0857677,0.7511043,16.1112881,0.7661417z"/>
	<path fill="#474752" d="M16.3586445,10.6362772c-0.0969772,0.0330267-0.1833858,0.0880375-0.2679424,0.1426325
		c-0.0816364,0.0527096-0.1459494,0.0505762-0.2297907,0.0013094c-0.170187-0.1000061-0.3406944-0.2006168-0.5206089-0.2833328
		c-0.014514-0.0066719-0.0267677-0.0182562-0.0400734-0.0275583c-0.053196-0.0102987-0.0981016-0.0394716-0.1441717-0.0651388
		c-0.2348375-0.1308422-0.4670143-0.266469-0.7062607-0.3893805c-0.0280266-0.0143986-0.0628195-0.0252123-0.0719061-0.0630293
		c-0.0071154-0.0517235-0.0502024-0.080081-0.0789385-0.1168022c-0.0786743-0.1005402-0.1615677-0.1977749-0.2424812-0.2965717
		c-0.0023565-0.0028763-0.0012379-0.0085983-0.0031414-0.0252924c0.0813122,0.064518,0.1738558,0.0902605,0.2508068,0.1450634
		c0.0067415,0.0048018,0.0136242,0.0095291,0.020895,0.0134506c0.2603951,0.1404266,0.5212727,0.2799673,0.7811041,0.4214306
		c0.1269264,0.0691042,0.2514935,0.1425257,0.3778954,0.2126122c0.144928,0.0803547,0.2907867,0.159029,0.436059,0.2387648
		c0.040287,0.0221128,0.0768414,0.0259333,0.120472,0.000968c0.1555958-0.0890274,0.3115768-0.1777658,0.4710426-0.2595339
		c0.1595383-0.0818062,0.3118649-0.1764812,0.4729443-0.2555771c0.1071949-0.0526371,0.2085342-0.1171227,0.3130951-0.1752234
		c0.1565514-0.0869894,0.3134975-0.1732731,0.4705524-0.2593508c0.0636272-0.034873,0.1279831-0.0684147,0.1964188-0.0984631
		c-0.0702763,0.0845098-0.1424217,0.1675529-0.2101765,0.2540379c-0.0460377,0.0587635-0.1046352,0.1081858-0.1358948,0.1782198
		c-0.0266953,0.0443497-0.0745029,0.0629292-0.1162663,0.0832081c-0.1885681,0.0915651-0.3660603,0.2029181-0.5500526,0.3025522
		c-0.1896648,0.102706-0.380497,0.2037535-0.5650692,0.315753C16.3783512,10.6363678,16.3690033,10.6391697,16.3586445,10.6362772z"
		/>
	<path fill="#03C4D3" d="M17.2212753,11.2692633c0.1166306-0.1404572,0.2335949-0.2806368,0.3498116-0.4214363
		c0.174509-0.2114286,0.348877-0.4229774,0.522398-0.6352148c0.038929-0.0476151,0.0945797-0.0653915,0.1464157-0.090662
		c0.0243511,0.0212269,0.0279579,0.0523443,0.036211,0.0804176c0.0623302,0.2120295,0.1220875,0.4248075,0.18466,0.6367731
		c0.0068417,0.0231762,0.0201492,0.0464487,0.0101032,0.0723915c-0.1620674,0.098834-0.330761,0.1858597-0.4960175,0.2789726
		c-0.1567078,0.0882978-0.316433,0.1712151-0.4719543,0.261261c-0.1642532,0.0951004-0.3339996,0.1802044-0.4965572,0.2779417
		c-0.0835571,0.0502405-0.1717339,0.0913744-0.2559166,0.1400805c-0.010519,0.0032482-0.0131855-0.0013199-0.0108337-0.0108814
		C16.900156,11.6623592,17.0607147,11.4658108,17.2212753,11.2692633z"/>
	<path fill="#02C8CD" d="M14.3778906,9.9517794c0.0689983,0.0624647,0.1585064,0.0888758,0.2373896,0.1340027
		c0.2271242,0.1299324,0.4564734,0.2559757,0.684948,0.3835478c-0.028614,0.0133314-0.0116558,0.0364895-0.0072508,0.0518894
		c0.0815077,0.2849874,0.1647854,0.5694695,0.2472572,0.8541813c0.0645027,0.2226744,0.1281319,0.4456034,0.1930714,0.668149
		c0.005805,0.0198917,0.0068035,0.0389919,0.0055542,0.0589256c-0.0507927-0.0776129-0.1054544-0.1530027-0.151721-0.2332315
		c-0.2281399-0.3956032-0.5210238-0.7431087-0.8076878-1.0954313c-0.2753887-0.3384657-0.5492649-0.6781616-0.8237228-1.0173836
		c-0.010973-0.0135632-0.0210896-0.0278177-0.0379448-0.0501471C14.0803566,9.7862024,14.2223454,9.8817959,14.3778906,9.9517794z"
		/>
	<path fill="#02C8CE" d="M13.4091244,2.1501186c0.0225201,0.0586731,0.071908,0.1033158,0.0738325,0.1744506
		c0.001482,0.0547302,0.0257673,0.1090283,0.0411682,0.1631615c0.042614,0.1497676,0.0899763,0.2982018,0.1259623,0.4498217
		c-0.1784678,0.0985487-0.3585634,0.1943035-0.5347729,0.2967384c-0.1003828,0.0583551-0.2073469,0.1045873-0.3040714,0.1695113
		c-0.0244017,0.0163796-0.0536709,0.0255067-0.0807047,0.0379667c-0.0274858-0.0280371-0.0280714-0.0667503-0.0382137-0.1010776
		c-0.060298-0.2040968-0.1183939-0.4088414-0.1784649-0.6130121c-0.0072689-0.0247078-0.0211124-0.0501993-0.0036573-0.0765598
		c0.1177645-0.0660024,0.2356539-0.1317821,0.3532619-0.1980624c0.16045-0.090426,0.3191576-0.1840079,0.4839907-0.2664759
		C13.3688574,2.1758728,13.3823318,2.1517341,13.4091244,2.1501186z"/>
	<path fill="#02C5D1" d="M16.3586464,10.6362772c0.1470718-0.0988913,0.3067474-0.1756124,0.4613876-0.2611074
		c0.2263527-0.125144,0.4487934-0.2574215,0.6802464-0.3733501c0.0411739-0.0206213,0.0789433-0.0480347,0.1182747-0.0723104
		c0.1237278-0.0676947,0.2474613-0.1354036,0.3712177-0.2030745c0.0241356-0.0131969,0.0483551-0.0262442,0.0796528-0.0304327
		c-0.0731354,0.0891676-0.1461296,0.1784525-0.2194309,0.2674837c-0.3839626,0.466362-0.7680435,0.9326277-1.1519241,1.3990574
		c-0.0262413,0.0318842-0.0511818,0.0648375-0.0767288,0.0972919c-0.0434895-0.0402679-0.0429077-0.0988884-0.0581951-0.1495295
		c-0.0622292-0.2061281-0.1190281-0.4138889-0.1787071-0.6207962C16.379055,10.6708393,16.3673935,10.6539783,16.3586464,10.6362772
		z"/>
	<path fill="#03C2D5" d="M18.4708748,10.9115324c-0.0502815-0.1453638-0.087595-0.2945728-0.1308689-0.4420128
		c-0.0339546-0.1156855-0.0667782-0.2317038-0.1001053-0.3475723c0.0367565-0.038456,0.0872631-0.0539036,0.1321201-0.0787554
		c0.24403-0.1352034,0.4881516-0.2702484,0.7323551-0.405138c0.0145187-0.0080194,0.0300446-0.0142183,0.0451012-0.0212641
		c0.0539684,0.1748953,0.1019669,0.3515215,0.1530609,0.5272493c0.0204601,0.070363,0.0414829,0.1405621,0.0617638,0.2109795
		c0.0055103,0.0191231,0.0139561,0.0377655,0.0073147,0.058363c-0.0117931,0.0205908-0.0347977,0.0241041-0.0532265,0.034215
		c-0.1345329,0.0738096-0.2699986,0.1459427-0.4039974,0.2207022
		C18.7671356,10.7504549,18.6232243,10.8386641,18.4708748,10.9115324z"/>
	<path fill="#02C9CC" d="M12.5102024,2.6511195c0.0367451,0.1317635,0.0735502,0.26351,0.1102142,0.3952961
		c0.0366669,0.1317935,0.0818777,0.2612078,0.1101217,0.39535c-0.0640755,0.0380235-0.1267815,0.0786152-0.1924791,0.1135888
		c-0.2079144,0.110682-0.4141941,0.2242362-0.6182671,0.3418446C11.8971205,3.910264,11.8719816,3.91905,11.8479853,3.9298193
		c-0.0410461-0.0603971-0.0466127-0.1329446-0.0671034-0.2001595c-0.0584412-0.1917162-0.113637-0.3844218-0.1701097-0.5767381
		c0.0879965-0.0608993,0.1860094-0.1041822,0.277956-0.1578672c0.1592779-0.0929983,0.3220701-0.1792579,0.4837141-0.2677982
		C12.4183111,2.7021317,12.4600697,2.6690986,12.5102024,2.6511195z"/>
	<path fill="#03C0D6" d="M19.3716164,10.4133816c-0.0549164-0.1539125-0.0934658-0.3127508-0.1409435-0.4689054
		c-0.0278053-0.0914574-0.0530491-0.1836939-0.0798206-0.2754698c-0.0051041-0.017499-0.0120125-0.034483-0.0013771-0.0522032
		c0.1342106-0.0751181,0.2686977-0.1497297,0.4025269-0.225503c0.0879879-0.049819,0.174469-0.1023521,0.267189-0.1433163
		c0.0363197,0.1301117,0.0722294,0.2603445,0.1090889,0.3903074c0.0332909,0.1173811,0.0680428,0.2343493,0.1011295,0.3517876
		c0.0063095,0.0223923,0.0119762,0.0419292,0.0407524,0.0395613c-0.0346661,0.0188122-0.0693836,0.037529-0.1039886,0.0564547
		c-0.1070976,0.0585737-0.2163944,0.1135454-0.3205376,0.1769724
		C19.5563755,10.3174286,19.4613552,10.3604269,19.3716164,10.4133816z"/>
	<path fill="#03C4D2" d="M15.1390362,1.1886399c0.0538902,0.1547003,0.0933952,0.3137056,0.1406536,0.4703929
		c0.0272064,0.0902066,0.0525827,0.1809647,0.0790825,0.2713864c0.0049973,0.0170515,0.0069675,0.0371138,0.0307522,0.0400356
		c-0.0931644,0.0726298-0.20401,0.1149434-0.3037539,0.1768209c-0.1121979,0.0696039-0.2321434,0.1267312-0.3488913,0.1889663
		c-0.0115728,0.0061696-0.024333,0.010112-0.0365429,0.0150893c-0.0328398-0.1163359-0.0652275-0.2328038-0.0986433-0.3489761
		c-0.03895-0.1354083-0.0789404-0.2705172-0.1179857-0.4058985c-0.0031557-0.0109361-0.00249-0.0229737-0.0036001-0.0344992
		c0.0532684-0.0378078,0.1093445-0.0708025,0.1669817-0.1016226c0.1173191-0.0627351,0.2340746-0.1265593,0.3502054-0.1914667
		C15.0446701,1.2423896,15.0875721,1.2079787,15.1390362,1.1886399z"/>
	<path fill="#0C9CA5" d="M15.2391272,11.849885c0.008378-0.0003204,0.016758-0.000639,0.0251513-0.0009575
		c0.009407,0.0062141,0.0180521,0.0129499,0.018281,0.0315084C15.266326,11.8690176,15.2527256,11.8594513,15.2391272,11.849885z"/>
	<path fill="#118895" d="M16.7395954,11.8589067c0.0036106,0.0036259,0.0072212,0.0072536,0.0108318,0.0108795
		c-0.0100403,0.0092907-0.0200825,0.0185795-0.0383759,0.0355005C16.7172585,11.8785172,16.725687,11.8671188,16.7395954,11.8589067
		z"/>
	<path fill="#282839" d="M18.3098736,6.2995186c0.0000057,0.5413499,0.0019283,1.0827079-0.0007,1.6240444
		c-0.0016365,0.3369617-0.1882191,0.5345526-0.5255318,0.566164c-0.1331139,0.0124741-0.2658329,0.0125179-0.3971825-0.0169659
		c-0.2771816-0.0622196-0.4222946-0.2357569-0.4336319-0.5190792c-0.0019951-0.0498796-0.0027599-0.0998397-0.0027676-0.1497626
		c-0.0001545-1.0210848-0.0001736-2.0421696,0.0000019-3.0632544c0.0000134-0.0766044,0.0032444-0.1532063,0.0205936-0.2281685
		c0.0422401-0.1824951,0.1543541-0.3039169,0.3315907-0.3594766c0.211544-0.0663133,0.4272251-0.067852,0.6395283-0.0063915
		c0.2381344,0.0689373,0.3669949,0.2505589,0.3676605,0.5088668C18.3108463,5.2034998,18.309866,5.7515101,18.3098736,6.2995186z"/>
	<path fill="#1CBCBA" d="M11.4202652,6.2197223c0.0525608,0,0.1051226,0,0.1576834,0
		c0.0000715,0.0035501,0.0001421,0.0070996,0.0002146,0.0106497c-0.0459671,0-0.0919323,0-0.1378984,0.0000043
		c-0.0392561,0.0000038-0.0785122,0.0000038-0.1177683,0.0000038c-0.000041-0.0035524-0.000083-0.0071054-0.000124-0.0106578
		C11.3550034,6.2197223,11.3876343,6.2197223,11.4202652,6.2197223z"/>
	<path fill="#1BBDBA" d="M11.2369528,6.2186823c-0.0811043,0-0.1622076,0-0.2433119,0
		c-0.0000277-0.0016899-0.0000553-0.0033789-0.0000849-0.0050688c0.0817823,0,0.1635637,0,0.2453442,0
		C11.2382507,6.2153034,11.2376013,6.2169924,11.2369528,6.2186823z"/>
	<path fill="#03C0D6" d="M17.9486732,2.456022c0.0195675-0.0215058,0.039135-0.0430119,0.0587044-0.0645177
		C17.9971447,2.4217458,17.9754982,2.4412692,17.9486732,2.456022z"/>
</g>
</svg>
