<?xml version="1.0" encoding="utf-8"?>
<!-- Generator: Adobe Illustrator 24.1.1, SVG Export Plug-In . SVG Version: 6.00 Build 0)  -->
<svg version="1.1" id="Слой_1" xmlns="http://www.w3.org/2000/svg" xmlns:xlink="http://www.w3.org/1999/xlink" x="0px" y="0px"
	 viewBox="0 0 32 13" enable-background="new 0 0 32 13" xml:space="preserve" width="32" height="13">
<g>
	<path fill="#282839" d="M10.4903193,6.4901395c0-1.0347753,0.0002975-2.069551-0.0010567-3.1043246
		c-0.0000553-0.0424228,0.0133066-0.0631459,0.0507298-0.0813158c0.1211672-0.0588293,0.2365866-0.1294329,0.3516569-0.1984019
		c0.0847712-0.0508084,0.1736221-0.0936038,0.2579975-0.1447544c0.1689777-0.1024399,0.3435297-0.1956792,0.5134602-0.2960808
		c0.0779142-0.0460343,0.1620426-0.0812354,0.2361908-0.1340768c0.0757027-0.0539496,0.1628437-0.0888321,0.2417459-0.137233
		c0.1774645-0.1088603,0.3630495-0.2034824,0.5407896-0.3114727c0.071209-0.0432642,0.1458921-0.0793152,0.2175846-0.1212482
		c0.1789684-0.1046814,0.3611183-0.2040482,0.5381355-0.3118764c0.0664701-0.0404899,0.136241-0.0739954,0.2033129-0.1128969
		c0.1849813-0.1072892,0.3719273-0.2114439,0.5567627-0.31876c0.0829144-0.0481406,0.1717911-0.0860415,0.2505121-0.1410208
		c0.0765352-0.0534521,0.1633701-0.088416,0.242054-0.1370462c0.1710901-0.1057399,0.3489933-0.1992599,0.5222607-0.3008376
		c0.0801315-0.0469763,0.1621952-0.0901999,0.2424612-0.1367493c0.1732101-0.1004529,0.3471632-0.1996227,0.5203991-0.3000309
		c0.0227718-0.0131994,0.0415869-0.0092618,0.0630178,0.0022616c0.1480217,0.0795905,0.2930069,0.1647602,0.438694,0.2482692
		c0.1798744,0.103106,0.3607311,0.2045502,0.5399513,0.3087862c0.0656109,0.0381604,0.1319447,0.0747555,0.198082,0.1118726
		c0.1307182,0.0733587,0.2592297,0.1506518,0.3885956,0.2264122c0.0112038,0.0065608,0.021328,0.015359,0.0330963,0.0205094
		c0.1387558,0.0607345,0.2627621,0.1481563,0.3951836,0.2204213c0.1648407,0.0899569,0.3269367,0.1855035,0.4901295,0.2787948
		c0.1716042,0.0980996,0.344286,0.1943965,0.5151882,0.2934562c0.1710358,0.0991385,0.3440304,0.1949158,0.5139923,0.2957702
		c0.0785522,0.0466127,0.160738,0.0862663,0.2386189,0.1331487c0.1686382,0.1015174,0.3422985,0.1940117,0.5124187,0.2924697
		c0.166296,0.0962465,0.3342819,0.1897299,0.4992409,0.2881525c0.0882187,0.0526366,0.1822128,0.0950601,0.2677326,0.1504335
		c0.0805569,0.0521607,0.1675072,0.0917296,0.2475758,0.1429305c0.0594559,0.0380187,0.1195564,0.0737369,0.1827812,0.1044145
		c0.0163536,0.0079346,0.0209846,0.018755,0.0201664,0.0350032c-0.0005836,0.0116346-0.0001049,0.0233226-0.0001049,0.0349865
		c0.0000019,2.0662184-0.000164,4.1324358,0.0011654,6.1986537c0.0000267,0.0417747-0.0120754,0.0614538-0.0482521,0.0815964
		c-0.2017307,0.1123152-0.4025555,0.2264233-0.6023788,0.341938c-0.0901031,0.0520878-0.1832371,0.0988207-0.2720108,0.1532011
		c-0.1609344,0.098587-0.3280067,0.1866331-0.4904099,0.2824831c-0.1738815,0.1026239-0.3532162,0.1957493-0.5245609,0.3023376
		c-0.0675201,0.0420027-0.1394444,0.0748434-0.2073727,0.115715c-0.1471691,0.0885506-0.2969456,0.1727896-0.4460411,0.2581186
		c-0.1085663,0.0621347-0.2180233,0.1227131-0.3265915,0.1848478c-0.1482449,0.0848417-0.2956352,0.1711826-0.4441261,0.2555885
		c-0.1108704,0.0630207-0.2239761,0.1221504-0.3341732,0.1863003c-0.1742363,0.1014309-0.3492031,0.2014856-0.5247402,0.3006382
		c-0.0814285,0.0459976-0.1667252,0.0864477-0.2438965,0.1392164c-0.0772171,0.0527973-0.1617451,0.0913172-0.2421818,0.1376381
		c-0.177412,0.1021662-0.3573952,0.2000561-0.5322132,0.3064547c-0.0849876,0.0517263-0.1762924,0.0915117-0.2589149,0.1467419
		c-0.0130749,0.0087404-0.0220222,0.0082474-0.0355511,0.0005665c-0.0675097-0.0383358-0.1370153-0.0732536-0.20366-0.112999
		c-0.1745815-0.1041183-0.3526697-0.2019453-0.5294952-0.3020277c-0.0805016-0.0455618-0.1615286-0.0909786-0.2416182-0.137661
		c-0.126071-0.0734787-0.252039-0.1471367-0.3780575-0.220705c-0.011179-0.0065279-0.0223417-0.0130873-0.033639-0.0194035
		c-0.1190462-0.0665598-0.2399502-0.1300592-0.356473-0.2007771c-0.065609-0.0398169-0.1332836-0.075037-0.2000446-0.1123571
		c-0.1245604-0.0696335-0.2460623-0.1447191-0.3693428-0.21667c-0.0530739-0.0309763-0.1079845-0.0588045-0.1610374-0.0898104
		c-0.0940437-0.0549641-0.1924915-0.1027088-0.284934-0.1594048c-0.0848351-0.0520287-0.17379-0.095808-0.2587366-0.1467972
		c-0.1640282-0.0984535-0.3316536-0.190423-0.4976435-0.2853251c-0.1696529-0.0969954-0.3403139-0.1922941-0.5092621-0.2903299
		c-0.1709728-0.0992107-0.3433971-0.1958666-0.5138893-0.2957926c-0.0801487-0.0469761-0.1642494-0.0867958-0.2429466-0.1350651
		c-0.1659842-0.1018095-0.3364992-0.1950016-0.5059891-0.2904177c-0.0641575-0.0361185-0.1292734-0.073122-0.1921206-0.1127815
		c-0.012888-0.0081339-0.0199776-0.014142-0.0184374-0.0294552c0.0011606-0.0115461,0.0002193-0.0233049,0.0002193-0.0349684
		C10.4903193,8.5563087,10.4903193,7.5232239,10.4903193,6.4901395z"/>
	<path fill="#FEFEFD" d="M15.3875666,5.6054564c0.2850523-0.3238878,0.6470537-0.4455957,1.0498266-0.4761043
		c0.2910175-0.0220428,0.5794315-0.0077624,0.8604755,0.0757136c0.4981232,0.1479535,0.7911549,0.485774,0.9015865,0.9885049
		c0.0336952,0.1533818,0.0472088,0.3089323,0.0472012,0.4657998c-0.0000229,0.5298858,0.0044804,1.059823-0.0014915,1.5896416
		c-0.0044212,0.3923035-0.1124973,0.7517424-0.3828926,1.0489883c-0.2230244,0.2451735-0.5047874,0.3916054-0.8193359,0.4812546
		c-0.2559166,0.0729408-0.5178261,0.1041937-0.7832489,0.1135149c-0.3710747,0.0130301-0.7386189-0.0093088-1.0992107-0.1036806
		c-0.304883-0.079793-0.584547-0.2098169-0.8209486-0.4229879c-0.2620459-0.2362967-0.4080801-0.5337343-0.4578152-0.8798914
		c-0.0397596-0.2767429-0.0132408-0.5556049-0.0208626-0.8334107c-0.0009937-0.0362186,0.0225391-0.0296254,0.0431843-0.0296431
		c0.1883106-0.0001616,0.3766232-0.0000973,0.5649328-0.0000978c0.2583036-0.0000005,0.5166063-0.0000029,0.774909,0.0000024
		c0.0650406,0.0000014,0.0649538,0.0000148,0.0650625,0.0674644c0.0003271,0.2016168-0.002387,0.4033022,0.0020628,0.6048288
		c0.0037374,0.1692533,0.0473204,0.3259697,0.176589,0.4469566c0.0904617,0.0846682,0.2005491,0.1295872,0.3205214,0.1503468
		c0.1941595,0.0335951,0.3879423,0.0336924,0.5785704-0.0224485c0.2352715-0.0692902,0.3810787-0.247385,0.4034195-0.491662
		c0.0060558-0.0661974,0.0093136-0.132884,0.0094318-0.1993532c0.0007992-0.4549065,0.0006714-0.9098144,0.0001984-1.3647223
		c-0.0000896-0.0865393-0.0034885-0.1731405-0.0231495-0.2579308C16.7260933,6.3388,16.590868,6.1993918,16.3773861,6.1399226
		c-0.2194786-0.0611372-0.4419079-0.0621481-0.6603661,0.0025067c-0.2369423,0.0701241-0.3642654,0.2375612-0.3981113,0.4799452
		c-0.0139017,0.0995584-0.009758,0.199512-0.0092049,0.2993269c0.0001831,0.0332594-0.0066586,0.0459113-0.0432978,0.0458126
		c-0.4549437-0.0012321-0.9098902-0.0010967-1.3648357-0.0002027c-0.0331697,0.0000653-0.0418015-0.0085492-0.0392656-0.0426064
		c0.0294046-0.3948765,0.0573912-0.7898588,0.0851679-1.184855c0.0249786-0.3551898,0.0488691-0.7104564,0.073905-1.0656419
		c0.0249205-0.3535013,0.0508823-0.7069292,0.0759649-1.0604191c0.0124865-0.1759508,0.0252218-0.3519006,0.035202-0.5280006
		c0.0026731-0.047153,0.0136518-0.0657651,0.0678711-0.065681c1.2531815,0.0019484,2.5063658,0.0017488,3.759551,0.0005126
		c0.0449543-0.0000441,0.0582333,0.0101838,0.0578556,0.0568225c-0.0023174,0.2865896-0.0023022,0.5732164-0.0000248,0.8598068
		c0.0003738,0.0471194-0.0098438,0.0611875-0.0593834,0.0610828c-0.7999001-0.001694-1.5998077-0.0007474-2.3997097-0.0023425
		c-0.0467768-0.000093-0.0584059,0.0101166-0.061554,0.0583153c-0.0259075,0.3967891-0.0559502,0.7933078-0.0845451,1.1899223
		C15.4042406,5.3602548,15.3964996,5.4763279,15.3875666,5.6054564z"/>
	<path fill="#818181" d="M16.7396431,11.8589802c0.3013477-0.3662167,0.6027641-0.7323751,0.9040108-1.0986738
		c0.1479797-0.1799345,0.295578-0.3601818,0.4435234-0.5401421c0.0201454-0.0245047,0.0429497-0.0451164,0.0717373-0.0607452
		c0.122757-0.0666475,0.2443237-0.1354847,0.3665257-0.2031631c0.100296-0.0555449,0.2010517-0.1102562,0.3012829-0.1659184
		c0.1976604-0.109766,0.3947735-0.2205238,0.5927429-0.3297272c0.1294842-0.0714254,0.2606926-0.1397266,0.390028-0.2114162
		c0.1846676-0.1023598,0.3677521-0.2075891,0.5529537-0.3089571c0.0322456-0.0176487,0.038826-0.0384235,0.0387878-0.0712757
		c-0.0007153-0.6264954-0.0005283-1.2529926-0.0005283-1.8794889c0-0.9530745-0.000267-1.9061489,0.0008354-2.8592219
		c0.0000534-0.0444651-0.0106277-0.0688658-0.0531979-0.0920296c-0.2524815-0.137382-0.5008144-0.2824059-0.7537403-0.418936
		c-0.1171207-0.0632222-0.2326756-0.129276-0.3501854-0.1918054c-0.1276073-0.0679028-0.2525578-0.140779-0.3792038-0.2105124
		c-0.1950417-0.1073937-0.3908768-0.2133541-0.5857525-0.321049c-0.1790276-0.0989363-0.3570709-0.1996565-0.5358639-0.2990167
		c-0.100153-0.0556564-0.2010517-0.1099689-0.3014374-0.165204c-0.1296253-0.0713229-0.2589817-0.1431355-0.3886242-0.2144248
		c-0.202343-0.1112666-0.4052372-0.2215405-0.6071262-0.333629c-0.148138-0.082247-0.2936077-0.1693372-0.4459953-0.2438065
		c-0.0191574-0.0184474-0.0163879-0.0428134-0.0164347-0.0656899c-0.0005436-0.2630912-0.0003967-0.5261832-0.0002327-0.7892751
		c0.0000143-0.0234776,0.0007563-0.0467797,0.0150547-0.0670447c0.013629-0.0132843,0.0251131-0.0012708,0.0359869,0.0041803
		c0.1452007,0.0727956,0.2858944,0.1541852,0.4281921,0.232204c0.1670475,0.0915896,0.334383,0.1829734,0.500042,0.27704
		c0.1539364,0.0874107,0.3088703,0.1728917,0.4631996,0.2595093c0.0822773,0.0461786,0.1686935,0.0849148,0.2487831,0.1338776
		c0.1990948,0.1217154,0.4083748,0.2250854,0.6084595,0.3449734c0.1079044,0.0646559,0.2221127,0.1187006,0.3321533,0.1799113
		c0.2295647,0.1276932,0.4572563,0.2587857,0.6877766,0.3847103c0.0943451,0.0515366,0.1912422,0.1002088,0.2830181,0.1547556
		c0.1035843,0.0615635,0.2166424,0.1063073,0.3139858,0.1781363c0.0299873,0.0221274,0.0660248,0.0312743,0.0978298,0.0491395
		c0.1384392,0.0777643,0.2755051,0.1580596,0.4152794,0.2333362c0.1255188,0.0675988,0.2508183,0.1361833,0.3748322,0.2058935
		c0.1162415,0.0653417,0.2333641,0.1305287,0.3501587,0.1947803c0.0643044,0.0353758,0.0828266,0.0693991,0.0827541,0.1391294
		c-0.0019531,1.8809042-0.0016918,3.7618108-0.0007019,5.6427164c0.0000229,0.0427933-0.0099182,0.0661449-0.0509853,0.0877123
		c-0.1889381,0.099227-0.3765697,0.2011833-0.5618248,0.3071308c-0.1624241,0.0928917-0.3268681,0.1820831-0.4894085,0.2746124
		c-0.0720196,0.0409975-0.1498604,0.0726242-0.2172127,0.1196547c-0.0969601,0.0677061-0.2080441,0.1079712-0.306776,0.1725664
		c-0.0826473,0.0540724-0.1743107,0.0951538-0.260725,0.1446371c-0.1825962,0.1045589-0.3678493,0.2045116-0.5527134,0.3050699
		c-0.1087837,0.0591736-0.2159328,0.1212206-0.3250732,0.1798506c-0.1677284,0.0901051-0.3328648,0.1851273-0.4993591,0.2776051
		c-0.1474495,0.0818987-0.2980328,0.1586456-0.4425201,0.2451372c-0.178751,0.1070042-0.3695335,0.192173-0.5430946,0.308547
		c-0.0684566,0.0459003-0.1467361,0.0771523-0.2205429,0.1150751
		C16.7398796,11.8729744,16.7372379,11.8684855,16.7396431,11.8589802z"/>
	<path fill="#16AC70" d="M13.4678202,9.9495382c0.0566702,0.0488396,0.1265697,0.0753803,0.1902008,0.1124659
		c0.0468521,0.0273066,0.0949116,0.0525408,0.1424332,0.0786991c0.0112562,0.0093021,0.0257692,0.0119686,0.03825,0.018774
		c0.0458193,0.0278568,0.0947866,0.0512457,0.1311636,0.0924892c0.0086651,0.0217524-0.0080061,0.0252457-0.0220509,0.0294123
		c-0.0177164,0.0052586-0.0362263,0.0042248-0.0544806,0.0042562c-0.4785614,0.0008507-0.9571238-0.0012722-1.4356842,0.0009155
		c-0.0163584,0.0000744-0.0333948,0.0017157-0.0488577-0.0065069c-0.060627-0.030735-0.1234207-0.0593166-0.1803179-0.0948133
		c-0.1011839-0.0631275-0.2094822-0.1126966-0.31077-0.1753817c-0.0899954-0.0556955-0.1857243-0.1020813-0.2784729-0.1533899
		c-0.1044054-0.0577574-0.2071867-0.1185551-0.3127556-0.1740742c-0.0981445-0.0516157-0.191082-0.1121817-0.2919884-0.1594839
		c-0.0744095-0.0348816-0.1414309-0.0856981-0.2164907-0.1209145c-0.0176382-0.008275-0.0177193-0.0217562-0.0176888-0.037014
		c0.0005417-0.2748938,0.0010233-0.5497885,0.0015173-0.8246822c0.0284748,0.008728,0.0227318,0.0338268,0.0236368,0.0537338
		c0.002264,0.0498629,0.0007219,0.099843,0.0008516,0.1497746c0.0002317,0.08951,0.0002041,0.0896988,0.0876303,0.0897913
		c0.1531429,0.0001612,0.3062859-0.0001297,0.4594288,0.0001411c0.0532103,0.0000935,0.1065493-0.0026827,0.1594601,0.0063143
		c0.0331545,0.0056372,0.0508184-0.0076599,0.05091-0.042573c0.0000486-0.0182991,0.0004683-0.0366096,0.0004683-0.0549154
		c0.0000162-0.474369,0.0000362-0.9487391-0.0000153-1.4231076c-0.000001-0.0199723-0.0002146-0.0399427,0.0012045-0.0598922
		c-0.0023718-0.3089709-0.0017662-0.6179304-0.000493-0.9268079c0.0023861-0.0365591,0.0051355-0.0732398-0.018178-0.1055741
		c-0.0002394-0.0062585,0.0011702-0.0120492,0.0040569-0.0175624c0.0164537-0.0273447,0.0133362-0.0577469,0.0134315-0.0874462
		c0.000967-0.3005652-0.0015001-0.6011353,0.0012312-0.9017034c-0.002655-0.3288465-0.0005369-0.6576934-0.0010729-0.9865375
		c-0.000082-0.0498137,0.0001955-0.099586-0.0064898-0.1490955c0.0070639-0.0144925,0.0140057-0.0292606,0.03479-0.0234771
		c-0.0010118,0.0199184-0.0029068,0.0398364-0.0029106,0.0597548c-0.0002708,1.5793467-0.0002422,3.1586928-0.0013771,4.7380385
		c-0.0000296,0.0410681,0.0096998,0.065033,0.0478573,0.0863829c0.1538391,0.0860806,0.3078556,0.1717186,0.4630013,0.2554874
		c0.1723328,0.0930481,0.3412876,0.1923351,0.5121059,0.2882109c0.0710535,0.0398808,0.1456203,0.073184,0.2146568,0.1170225
		c0.1786747,0.1134644,0.3688755,0.2066574,0.5522871,0.3118258c0.0099373,0.0056973,0.021452,0.0086432,0.0322332,0.0128698
		C13.4416275,9.9398174,13.4558163,9.9424877,13.4678202,9.9495382z"/>
	<path fill="#04C465" d="M15.9988031,0.7178273c0.000536,0.3073404,0.0010719,0.6146806,0.0016108,0.9220153
		c-0.2112017,0.1159981-0.4226246,0.2316071-0.6335316,0.348148c-0.1350746,0.0746386-0.2670479,0.1549087-0.4057064,0.223032
		c-0.0780878,0.0005381-0.1406374,0.0448077-0.2076435,0.0754645c-0.0402222,0.0184033-0.0800581,0.0296597-0.1245775,0.0295794
		c-0.3542986-0.0006387-0.7085981-0.0003262-1.0628967-0.0004177c-0.0182772-0.0000048-0.0366049,0.0004251-0.0546579-0.003516
		C13.49119,2.3077204,13.4748964,2.2950184,13.478055,2.2749903c0.0070724-0.0448258-0.0126553-0.0768244-0.0408525-0.1070893
		c-0.0067987-0.0072987-0.0106945-0.0168767-0.0072222-0.0276113c0.1153746-0.0646067,0.2306128-0.1294577,0.3461542-0.1937643
		c0.1737061-0.0966789,0.3475914-0.1930516,0.5217371-0.2889055c0.1544924-0.0850365,0.3101044-0.1683502,0.4631376-0.2558264
		c0.2428265-0.1388028,0.488574-0.2721299,0.732914-0.4080905C15.6615353,0.9004378,15.8273811,0.8040826,15.9988031,0.7178273z"/>
	<path fill="#19A971" d="M16.0000572,12.5071793c-0.0867825-0.1136208-0.1571875-0.2380152-0.2344475-0.3578634
		c-0.1577082-0.2446442-0.3074265-0.4946842-0.4720345-0.7345448c-0.1031771-0.1503448-0.2273092-0.2863302-0.3423185-0.4285326
		c-0.1767073-0.2184935-0.3537445-0.4367199-0.5304718-0.6551971c-0.1610422-0.1990871-0.3218746-0.3983421-0.4826899-0.5976124
		c-0.0046959-0.0058184-0.0129557-0.0101671-0.0088873-0.0270166c0.0798531,0.0574951,0.1714087,0.0889931,0.2514696,0.1412201
		c0.0892696,0.0582342,0.1841087,0.1077137,0.2779102,0.1560907c0.1833305,0.094552,0.3588533,0.2026644,0.5417566,0.2977552
		c0.1678934,0.0872869,0.3304262,0.1847382,0.4978743,0.2732277c0.1482935,0.0783672,0.2936611,0.1622667,0.4404736,0.2434444
		c0.0186987,0.0103407,0.0376978,0.0228062,0.0605412,0.010107c0.0192947,0.01828,0.0167789,0.0425892,0.0168018,0.0654583
		c0.0004883,0.5120649,0.0003204,1.0241289,0.0003777,1.5361929C16.0164165,12.4570322,16.01124,12.4826345,16.0000572,12.5071793z"
		/>
	<path fill="#818181" d="M16.0000572,12.5071793c-0.0002728-0.5596352-0.0005445-1.1192713-0.0008202-1.6789141
		c0.1074829-0.0595655,0.2148266-0.1193895,0.322504-0.1786003c0.0960312-0.0528059,0.1928253-0.1042318,0.2886009-0.1574907
		c0.2716293-0.1510429,0.5428848-0.3027506,0.8143349-0.454114c0.1290398-0.0719538,0.257906-0.1442232,0.3873806-0.2153883
		c0.0824242-0.0453033,0.1658173-0.0888433,0.2558022-0.1255798c-0.0569515,0.0698776-0.1136398,0.1399727-0.1709023,0.2095938
		c-0.291666,0.3546057-0.5832214,0.709301-0.8753681,1.0635099c-0.1195946,0.1449986-0.2462521,0.2845984-0.3589401,0.4347267
		c-0.0754833,0.100563-0.1326027,0.2149973-0.1969414,0.3238163c-0.1464977,0.2477875-0.2922821,0.4959984-0.4388161,0.7437649
		C16.0195618,12.4849024,16.0146961,12.5000782,16.0000572,12.5071793z"/>
	<path fill="#08BF67" d="M11.6126785,4.0613527c-0.0074806,0.0063076-0.0149612,0.0126157-0.0224419,0.0189238
		c-0.0286379-0.0047612-0.0522985-0.0206318-0.075428-0.0362139c-0.2121763-0.1429429-0.4277182-0.280792-0.639926-0.4236596
		c-0.0141354-0.0095165-0.0511131-0.0145278-0.0250139-0.0480113c0.1063919-0.0600054,0.2135267-0.1187787,0.3199329-0.1786146
		c0.1658154-0.0932438,0.3339453-0.1822999,0.4988651-0.276979c0.0761538-0.0437195,0.1502485-0.0905259,0.2317667-0.1239405
		c0.0373201,0.0096002,0.0753031,0.0117149,0.1137152,0.0116954c0.4409323-0.0002251,0.8818665-0.0001857,1.3227987-0.0000627
		c0.0350065,0.0000098,0.0697327-0.0020454,0.1044865-0.0065849c0.0244589-0.003195,0.0501204-0.007165,0.0705776,0.0133195
		c-0.0220966,0.027142-0.0560789,0.0347991-0.0848389,0.0506561c-0.1787634,0.0985694-0.3587065,0.1950076-0.5372391,0.2939901
		c-0.1757383,0.0974345-0.3498335,0.1978316-0.5254745,0.295444c-0.1306505,0.072608-0.2627115,0.1426742-0.3939686,0.2141953
		C11.8510962,3.9305654,11.7319393,3.9960551,11.6126785,4.0613527z"/>
	<path fill="#18AA71" d="M12.4087944,10.2800436c0.0271254-0.0086489,0.0547943-0.0109186,0.0833254-0.0108929
		c0.4740505,0.000433,0.948103,0.0004845,1.4221525-0.0003366c0.0187731-0.0000334,0.0448685,0.013732,0.0555983-0.0168571
		c0.1363974,0.156723,0.2631731,0.3212919,0.3939085,0.4826279c0.2460938,0.3036928,0.4921074,0.6074486,0.7378836,0.9113979
		c0.0543604,0.0672255,0.1075916,0.1353598,0.1613436,0.2030754c-0.0077057,0.0062504-0.0155935,0.0061369-0.0236349,0.000679
		c-0.0748358-0.0347147-0.1475468-0.0730858-0.2184772-0.1155396c-0.1051331-0.0629225-0.2103357-0.1265879-0.3199902-0.180891
		c-0.1451054-0.0718555-0.2818975-0.15804-0.4244003-0.2341909c-0.1343212-0.0717773-0.2706242-0.1404142-0.4009781-0.2188692
		c-0.1120768-0.0674534-0.2287197-0.1262121-0.3414488-0.192234c-0.1067162-0.0625-0.2167921-0.1192312-0.3247719-0.1796036
		c-0.1978922-0.1106443-0.3982201-0.2169352-0.5928621-0.3334227c-0.0525208-0.0314312-0.1084518-0.0571756-0.1629534-0.0852699
		C12.4374504,10.3014479,12.4184513,10.2978497,12.4087944,10.2800436z"/>
	<path fill="#12B26E" d="M11.5997353,7.2597909c0.0001535,0.5173368-0.000021,1.0346732,0.0011721,1.5520072
		c0.0000839,0.0364447-0.0089989,0.0519438-0.0473452,0.0481339c-0.2271471-0.0225639-0.4549513-0.0060272-0.682436-0.0090981
		c-0.0489321-0.0006609-0.0640478-0.0161114-0.0616674-0.0634623c0.003336-0.066371,0.0011673-0.1330376,0.0006065-0.1995716
		c-0.0001354-0.0160494,0.0053148-0.0335941-0.0082417-0.047514c-0.0005035-0.4136114-0.0011377-0.8272276-0.0014315-1.2408438
		c-0.0000734-0.1029673,0.0009451-0.2059355,0.001462-0.3089037c0.0266352,0.0071325,0.0221682,0.0303102,0.023366,0.0487976
		c0.0024748,0.0382023,0.000843,0.0765705,0.0009527,0.1148696c0.0002556,0.0895109,0.0002146,0.0896893,0.0876732,0.0897503
		c0.2031813,0.0001421,0.4063644-0.0001545,0.6095457,0.000258C11.549633,7.2442679,11.5772429,7.2402253,11.5997353,7.2597909z"/>
	<path fill="#05C266" d="M13.5120115,3.011225c-0.5130558,0.0203147-1.0263319,0.0041263-1.5394831,0.0090101
		c-0.0268736,0.0002558-0.0580912,0.0079691-0.0720968-0.0273831c0.0414324-0.0430851,0.0995731-0.0576184,0.1488943-0.0872028
		c0.1244936-0.0746751,0.2516918-0.1452229,0.3788376-0.2145422c0.145153-0.0791359,0.289115-0.1606905,0.434701-0.239151
		c0.1627789-0.0877261,0.3212414-0.183378,0.486393-0.2669051c0.0273714-0.0138438,0.0477228-0.0406969,0.0807228-0.0447605
		c0.0175629,0.0195212,0.0364332,0.0380459,0.0522966,0.0588622c0.0141497,0.0185666,0.0251188,0.0385993,0.0103931,0.0639672
		c-0.0151558,0.0261066-0.0003901,0.0362916,0.0248375,0.0373194c0.0116253,0.0004742,0.023283,0.0001545,0.0349264,0.0001547
		c0.3626175,0.0000043,0.7252369-0.0003135,1.0878506,0.0005174c0.0343952,0.0000787,0.0661125-0.0044639,0.0949793-0.0231104
		c0.0425472-0.0274825,0.0942202-0.0359533,0.1344671-0.0701423c0.0267649-0.0227356,0.060607,0.0026195,0.0914373,0.0031617
		c-0.1579962,0.0918722-0.3180246,0.1799719-0.4793177,0.2660263c-0.1774492,0.0946736-0.3513699,0.195951-0.5269985,0.2940471
		c-0.1016636,0.0567837-0.2034388,0.1133797-0.3056154,0.1692343C13.6040735,2.9650171,13.5577879,2.9876556,13.5120115,3.011225z"
		/>
	<path fill="#0ABC69" d="M10.8498688,3.5723917c-0.0108604,0.0251503,0.0145721,0.0271692,0.025176,0.0341752
		c0.2276487,0.1504159,0.4560938,0.2996302,0.6842499,0.4492817c0.0109463,0.0071802,0.0206566,0.0162435,0.030942,0.0244288
		c0.0066957,0.0177603,0.010313,0.0356598,0.0102797,0.0551133c-0.0006256,0.3615651-0.0006666,0.7231321-0.0008297,1.0846982
		c-0.0223351,0.0198364-0.0499535,0.0159035-0.0761948,0.0159521c-0.2081223,0.0003862-0.4162464,0.0003915-0.6243687,0.0001154
		c-0.0902185-0.0001197-0.091733-0.0019536-0.0936518-0.0909758c-0.0001802-0.0083318,0.0000572-0.0166559-0.0035973-0.0244455
		c-0.0005236-0.301403-0.0011644-0.6028061-0.0015306-0.9042091c-0.0002346-0.1931796,0.0008612-0.3863683-0.0008535-0.5795329
		C10.7991467,3.5983143,10.8111677,3.5769041,10.8498688,3.5723917z"/>
	<path fill="#0DB86B" d="M10.8018742,5.1207352c0.0026932,0.0058594,0.0071974,0.0115371,0.0078096,0.0176063
		c0.0082293,0.0818257,0.0080948,0.0818477,0.0915985,0.0818381c0.2328053-0.0000248,0.4656115-0.0000591,0.69841-0.0000901
		c0.0001507,0.3187499,0.0003176,0.6375008,0.0004454,0.9562511c0.0000086,0.0213284,0.0047388,0.046082-0.0299292,0.0438199
		c-0.0853901,0.0112491-0.171195,0.0005431-0.2431135,0.0048771c0.0719185,0.004334,0.1577234-0.0063715,0.2431135,0.0048771
		c0.0233746-0.0017767,0.0314026,0.0100713,0.0301228,0.0321283c-0.0011196,0.019258-0.0004826,0.0386176-0.0006218,0.0579324
		c-0.0160856,0.0148506-0.0362806,0.0153451-0.0562592,0.0153933c-0.2210903,0.0005322-0.4421835,0.0009294-0.663271-0.0001922
		c-0.0646858-0.0003285-0.0996857-0.0578094-0.0736523-0.1167426c0.0050058-0.0113311,0.0138683-0.013093,0.0241489-0.0130625
		c0.016963,0.0000501,0.0339489-0.0010676,0.0545092,0.0008097c-0.0797329-0.0018339-0.0793324-0.0018368-0.0799713-0.0813007
		c-0.0001993-0.024735,0.004056-0.0497994-0.0033503-0.0742478C10.8018675,5.7406669,10.8018703,5.4307008,10.8018742,5.1207352z"/>
	<path fill="#0FB66C" d="M10.8018637,6.0506325c0.0171299,0.0329847,0.0085697,0.0685472,0.0073853,0.1024532
		c-0.0013256,0.037931,0.0117569,0.0513315,0.0487432,0.0473814c0.0228062-0.0024362,0.0460844-0.0004511,0.0697422,0.0096087
		c-0.0258274,0-0.0517616,0.0014906-0.0774527-0.0003877c-0.030302-0.0022163-0.0434999,0.0092869-0.0400763,0.0399246
		c0.0032978,0.0295143-0.0092926,0.0677986,0.0404758,0.0702786c0.0099621,0.0004964,0.0199699,0.0001302,0.0299578,0.0001297
		c0.2396936-0.0000124,0.4793882-0.0000286,0.7190762-0.0000453c0.0000067,0.313272,0.0000191,0.626545,0.0000248,0.9398165
		c-0.2428513,0.0000319-0.4857092-0.0011234-0.7285357,0.001092c-0.0490084,0.0004463-0.06215-0.0159674-0.0622082-0.0631695
		c-0.0000839-0.0689721,0.0120354-0.1387906-0.0071468-0.2071795C10.8018579,6.677237,10.8018618,6.3639345,10.8018637,6.0506325z"
		/>
	<path fill="#1E8463" d="M15.2393713,11.8497372c0.007864-0.000227,0.015728-0.0004539,0.023613-0.00068
		c0.0101213,0.0056314,0.0172911,0.0135603,0.0249891,0.035244C15.2665205,11.8690443,15.2529459,11.8593912,15.2393713,11.8497372z
		"/>
	<path fill="#5E5E65" d="M16.7396431,11.8589802c0.0035572,0.0035782,0.0071144,0.0071554,0.0106716,0.0107365
		c-0.0092983,0.0087795-0.0185966,0.0175552-0.0293846,0.0277348
		C16.7129345,11.8755636,16.7276421,11.8679581,16.7396431,11.8589802z"/>
	<path fill="#18AA71" d="M13.4678202,9.9495382c-0.0159941,0.0009384-0.0297918-0.0025215-0.0372906-0.0185995
		C13.4457989,9.9314547,13.4590416,9.9360209,13.4678202,9.9495382z"/>
	<path fill="#18AA71" d="M13.8387041,10.1594772c-0.0163012,0.0009661-0.0306034-0.0021372-0.0382519-0.0187798
		C13.8161497,10.1409616,13.8294458,10.1461077,13.8387041,10.1594772z"/>
	<path fill="#26AC70" d="M11.5702085,6.2299147c-0.0825491,0-0.1650982,0-0.2476473,0
		c-0.0000391-0.0032525-0.0000772-0.0065045-0.0001154-0.0097575c0.0825872,0,0.1651754,0,0.2477627,0.0000019
		C11.5702229,6.223412,11.5702229,6.2266636,11.5702085,6.2299147z"/>
	<ellipse fill="#25AC6F" cx="11.1142635" cy="6.2146754" rx="0.1739388" ry="0.0027069"/>
</g>
</svg>
