<?xml version="1.0" encoding="utf-8"?>
<!-- Generator: Adobe Illustrator 24.1.1, SVG Export Plug-In . SVG Version: 6.00 Build 0)  -->
<svg version="1.1" id="Слой_1" xmlns="http://www.w3.org/2000/svg" xmlns:xlink="http://www.w3.org/1999/xlink" x="0px" y="0px"
	 viewBox="0 0 32 13" enable-background="new 0 0 32 13" xml:space="preserve" width="32" height="13">
<g>
	<path fill="#282839" d="M10.4903193,6.4883189c0-1.0347719,0.0002089-2.0695448-0.0008011-3.1043158
		c-0.0000391-0.0393074,0.0097141-0.0599988,0.0476313-0.0781527c0.1229496-0.0588651,0.2392063-0.131289,0.3561888-0.2005002
		c0.0863647-0.0510969,0.1770592-0.0937936,0.2622957-0.1463645c0.165575-0.1021197,0.3380146-0.1925497,0.5048256-0.2920024
		c0.0806789-0.0481007,0.1684942-0.0833597,0.2446413-0.1381755c0.0759659-0.0546863,0.1646547-0.0868514,0.2412233-0.1389248
		c0.0879641-0.0598226,0.1874886-0.0983732,0.2753077-0.1568165c0.0816641-0.0543473,0.1735439-0.0902381,0.2537489-0.1453879
		c0.0717802-0.0493581,0.1526604-0.0809116,0.2254534-0.12729c0.1737394-0.1106958,0.3601427-0.1995509,0.5341244-0.3095396
		c0.0699224-0.0442036,0.1448975-0.0781896,0.2160149-0.1197531c0.181838-0.1062691,0.3664103-0.2080104,0.5483065-0.3138683
		c0.0814772-0.0474172,0.166791-0.0878524,0.2468395-0.13782c0.1642294-0.1025152,0.3362932-0.1917784,0.5024118-0.2907943
		c0.0876427-0.0522395,0.1817513-0.0926604,0.265872-0.1497311c0.0759916-0.0515541,0.1604548-0.0870882,0.2376814-0.1354105
		c0.1698923-0.1063036,0.3483047-0.1976109,0.5205364-0.2997132c0.0215492-0.0127754,0.0404177-0.0133024,0.0630274-0.0012533
		c0.1511478,0.0805531,0.2992973,0.1668833,0.4473858,0.252382c0.1768131,0.1020837,0.3552303,0.2014967,0.5312099,0.3050352
		c0.066824,0.0393156,0.1346874,0.0764789,0.2022457,0.1143671c0.1307201,0.0733118,0.2591095,0.1507856,0.3884602,0.2265438
		c0.0111771,0.006547,0.0218258,0.0142369,0.0335464,0.0195843c0.1376686,0.0628059,0.2624245,0.148832,0.3949986,0.220973
		c0.1635208,0.0889812,0.3241444,0.1837752,0.4859886,0.2760999c0.1730862,0.0987352,0.3456478,0.1982692,0.5192833,0.2960497
		c0.0842381,0.0474367,0.1714249,0.0915686,0.2518559,0.1450371c0.0831814,0.0552986,0.1755314,0.0931656,0.258213,0.1476738
		c0.0792637,0.0522568,0.1665974,0.089339,0.2468815,0.1383123c0.1653652,0.1008744,0.3366928,0.1909404,0.5037613,0.2883012
		c0.1688519,0.0984004,0.3398514,0.1930778,0.5076885,0.2930174c0.0854778,0.0508997,0.1756077,0.0930948,0.2596455,0.1454139
		c0.1405716,0.0875156,0.2851677,0.1676564,0.4299984,0.2475078c0.0177269,0.0097723,0.0240479,0.019906,0.0229664,0.0381184
		c-0.0005913,0.0099626-0.0000992,0.0199895-0.0000992,0.0299871c0,2.067878-0.0001392,4.1357555,0.0010681,6.2036333
		c0.000021,0.0393915-0.0111713,0.0603781-0.0452633,0.0788507c-0.1262894,0.0684309-0.252985,0.1365395-0.375452,0.2114315
		c-0.0746841,0.0456715-0.1536388,0.0831852-0.2278347,0.1289635c-0.174408,0.1076078-0.356926,0.2009821-0.5324345,0.3063908
		c-0.0727367,0.0436831-0.1498013,0.079299-0.2213058,0.1242113c-0.1739101,0.1092319-0.3584805,0.1998978-0.5324631,0.3085337
		c-0.0688229,0.0429716-0.1419296,0.0771055-0.2116642,0.1179857c-0.1788235,0.1048346-0.3606815,0.2047043-0.5399609,0.3085403
		c-0.0844193,0.0488958-0.1716118,0.0930023-0.2551556,0.1435308c-0.1683044,0.1017895-0.3423653,0.1939878-0.5110798,0.2945509
		c-0.0863056,0.0514421-0.1775932,0.0927792-0.2625885,0.1459417c-0.1655083,0.1035213-0.3374043,0.1960058-0.5069695,0.2925215
		c-0.081295,0.0462761-0.166256,0.0871763-0.2439098,0.1395168c-0.0787201,0.0530586-0.1691837,0.0862627-0.2455711,0.1401739
		c-0.0849171,0.0599318-0.1835537,0.0928993-0.2671471,0.1521912c-0.0789337,0.0559883-0.1679974,0.0931549-0.2496185,0.1440592
		c-0.0881271,0.0549583-0.1805267,0.1030436-0.2706051,0.1549215c-0.0136833,0.0078783-0.0223589,0.0056276-0.0355968-0.0018635
		c-0.064702-0.0366173-0.1336031-0.0666523-0.1952057-0.1077309c-0.1170225-0.0780363-0.2462978-0.1343441-0.3635302-0.2115707
		c-0.0147963-0.0097475-0.0301905-0.0189037-0.0461884-0.0264626c-0.1323948-0.062542-0.2541542-0.1441555-0.382163-0.2146311
		c-0.168787-0.0929251-0.3354187-0.1900663-0.5030994-0.285161c-0.1696873-0.0962324-0.3380327-0.194788-0.5082178-0.2903137
		c-0.0813999-0.0456905-0.1642199-0.0903206-0.2439766-0.1392565c-0.169281-0.1038656-0.3443413-0.1973619-0.5161638-0.2965164
		c-0.0844698-0.0487452-0.1709976-0.0939217-0.254508-0.144042c-0.1654282-0.0992813-0.3346996-0.1916313-0.5018902-0.2876396
		c-0.1681213-0.0965414-0.3374624-0.1909971-0.5049076-0.2885828c-0.1721773-0.1003447-0.3461885-0.1974096-0.5181026-0.2980556
		c-0.0801706-0.046936-0.1641207-0.0868654-0.2430687-0.1348658c-0.1663094-0.1011143-0.3359499-0.1957359-0.5060606-0.2900953
		c-0.0628424-0.0348577-0.1257477-0.072793-0.1882648-0.1098156c-0.019989-0.011837-0.0206575-0.0254755-0.0205879-0.0436239
		c0.0003023-0.0783148,0.0001287-0.1566324,0.0001287-0.2349482C10.4903193,8.4145613,10.4903193,7.4514408,10.4903193,6.4883189z"
		/>
	<path fill="#FEFEFD" d="M14.6264791,6.2353125c-0.1374054-0.0568862-0.261549-0.1237745-0.3746252-0.2099314
		c-0.2576218-0.1962948-0.4181204-0.4558697-0.4756403-0.772162c-0.0599804-0.3298187-0.0625315-0.6639452,0.0019131-0.9931149
		c0.0982189-0.5016758,0.407259-0.840822,0.8590994-1.0582418c0.2788553-0.1341815,0.5768547-0.1998167,0.883215-0.2312799
		c0.327343-0.0336182,0.6550274-0.0346124,0.981842,0.0018172c0.4078903,0.0454676,0.7980194,0.1475129,1.1376419,0.3919754
		c0.3469028,0.2497039,0.5489616,0.5885024,0.5989208,1.0120769c0.0357666,0.3032451,0.0434361,0.6086106-0.0247383,0.9090166
		c-0.1007271,0.4438448-0.3797207,0.7400765-0.7873116,0.9248276c-0.0165997,0.007524-0.0331421,0.0151749-0.0541153,0.024786
		c0.0470905,0.0232253,0.0914669,0.0439081,0.1347599,0.0666523c0.4304199,0.2261167,0.6676598,0.5848117,0.7332535,1.0633359
		c0.0261688,0.1909099,0.0169334,0.3823366,0.017374,0.5736084c0.0004063,0.1746387,0.0073967,0.3493881-0.0164089,0.5237045
		c-0.0705719,0.5167971-0.3427887,0.8914671-0.7975101,1.1377554c-0.2681618,0.1452427-0.5585632,0.2187901-0.8588047,0.2597237
		c-0.2332458,0.0317993-0.4676552,0.0421438-0.7024622,0.0357246c-0.4301529-0.0117569-0.8527212-0.0669384-1.246274-0.2556686
		c-0.4522505-0.2168789-0.7552767-0.5576229-0.8601265-1.0579529c-0.022213-0.1060028-0.0361032-0.2131748-0.0362539-0.3216953
		c-0.0003176-0.2281933-0.0038805-0.4564648,0.0007858-0.6845627c0.0070868-0.3464575,0.095437-0.6670928,0.3227005-0.9384251
		c0.1393261-0.1663404,0.3133383-0.2867327,0.5095749-0.3765893C14.5882959,6.2538214,14.6030922,6.2464895,14.6264791,6.2353125z"
		/>
	<path fill="#818181" d="M16.739645,11.858983c0.3013191-0.3661814,0.602705-0.7323065,0.903923-1.0985699
		c0.1479645-0.1799173,0.2956333-0.3600779,0.4433899-0.5401649c0.0224266-0.0273314,0.0490475-0.0480824,0.0807095-0.0651865
		c0.1199512-0.0648031,0.2383194-0.132534,0.3575745-0.1986399c0.1017189-0.056386,0.2040672-0.1116343,0.3057346-0.1681099
		c0.1961727-0.1089764,0.3917217-0.2190762,0.5881844-0.3275251c0.1294518-0.0714579,0.2606583-0.1397352,0.3899822-0.2114182
		c0.1846485-0.1023512,0.3677311-0.2075367,0.5528984-0.3089304c0.0320015-0.0175228,0.0392666-0.0379009,0.0392284-0.0710077
		c-0.0007515-0.643095-0.0005836-1.2861924-0.0004311-1.9292884c0.0000057-0.0199108,0.0018806-0.0398216,0.002882-0.0597324
		c0.0140781-0.0193176,0.0363865-0.021709,0.0569572-0.0272703c0.2304897-0.0623231,0.4605694-0.1261377,0.6908283-0.1892967
		c0.0215073-0.0058999,0.0435772-0.0188355,0.0666161-0.0035844c0.0005245,0.0182962,0.0015087,0.036593,0.0015106,0.0548897
		c0.0000763,0.8744268-0.0002193,1.7488537,0.000967,2.6232786c0.0000553,0.0400591-0.0119114,0.060379-0.0478477,0.0794907
		c-0.1898613,0.1009703-0.379303,0.2029171-0.5660057,0.3095732c-0.1624279,0.0927887-0.3269043,0.181838-0.4892521,0.2745924
		c-0.0719604,0.0411129-0.1500797,0.0722466-0.2171974,0.1195126c-0.0967369,0.0681219-0.2079716,0.1080303-0.3066769,0.1726112
		c-0.0826225,0.054059-0.1742744,0.095108-0.2606716,0.1445656c-0.1825676,0.1045074-0.368103,0.2038307-0.5524025,0.3053112
		c-0.1040936,0.0573177-0.2082424,0.1145334-0.3122082,0.172081c-0.1694889,0.0938148-0.3412094,0.1839352-0.5071373,0.2836828
		c-0.0699234,0.0420332-0.1436729,0.0754766-0.2138939,0.1161261c-0.1183891,0.0685368-0.2362118,0.1382847-0.3570213,0.202342
		c-0.1433544,0.0760126-0.2858963,0.1528835-0.4237022,0.2388811c-0.0687313,0.0428886-0.1439724,0.0753469-0.2162666,0.1125212
		C16.7398777,11.8729782,16.737236,11.8684902,16.739645,11.858983z"/>
	<path fill="#01BD95" d="M13.5101442,10.8891029c-0.1376181-0.0604134-0.2632036-0.1428566-0.3942642-0.2152777
		c-0.0058136-0.0032129-0.0115681-0.0065308-0.0173979-0.009716c-0.1352167-0.0738792-0.270709-0.1472616-0.4055815-0.2217674
		c-0.117219-0.0647526-0.2336502-0.130928-0.3505898-0.1961861c-0.1053114-0.0587711-0.2111502-0.1166029-0.3161898-0.1758518
		c-0.1163702-0.0656424-0.2342319-0.1285009-0.349576-0.1961489c-0.1383553-0.0811424-0.2817335-0.1536884-0.4223852-0.2309561
		c-0.1447487-0.0795193-0.288682-0.1605225-0.4334383-0.2400246c-0.0155115-0.0085192-0.0215702-0.0184059-0.0204678-0.0351686
		c0.0008726-0.0132599,0.0000906-0.0266275,0.0000906-0.0399475c-0.0000143-0.7492456-0.0000353-1.4984922,0.0000381-2.2477384
		c0.000001-0.019949,0.0010338-0.0398979,0.001585-0.0598469c0.022295,0.0013509,0.0281668,0.0216556,0.0388575,0.0352569
		c0.2357922,0.299973,0.4688625,0.6020699,0.7036915,0.9027953c0.0091057,0.0116606,0.0160551,0.0254879,0.04181,0.039228
		c-0.0002317-0.5275335,0.0003567-1.0485883-0.000597-1.5697536c-0.0051079-0.0865326-0.0012007-0.1730356-0.0013485-0.2594852
		c-0.0008917-0.5224581-0.0003815-1.0449171-0.0004749-1.5673761c-0.0000029-0.0133142-0.0000925-0.0266261,0.0015192-0.0398703
		c-0.0028791-0.147151-0.0014811-0.2943158-0.0005722-0.4414649c0.0001364-0.0220876-0.0071115-0.0512094,0.0272312-0.0591259
		c-0.0010147,0.0282383-0.0029135,0.0564766-0.0029182,0.0847149c-0.0002661,1.572659-0.0002356,3.1453185-0.0012836,4.717977
		c-0.0000248,0.0396814,0.0114326,0.0615816,0.0472317,0.0816774C11.810297,9.0321617,11.9651537,9.11975,12.122716,9.2025928
		c0.0747309,0.0392914,0.1468248,0.0836,0.2201138,0.1256371c-0.0011673,0.0187817,0.0123148,0.030179,0.0223064,0.0430193
		c0.3453369,0.4437885,0.6906109,0.8876257,1.0355549,1.3317213c0.0306196,0.0394201,0.0627251,0.0777941,0.0906467,0.1191254
		C13.5044146,10.8414555,13.5250835,10.8609381,13.5101442,10.8891029z"/>
	<path fill="#01BA9B" d="M15.999835,12.5070429c-0.0872746-0.1133728-0.157094-0.2382202-0.2344666-0.3580675
		c-0.157114-0.2433691-0.3059502-0.4923315-0.469882-0.7309628c-0.1043262-0.1518669-0.2294416-0.2894802-0.3456068-0.4331846
		c-0.3035316-0.3754883-0.6072702-0.7508106-0.9109259-1.1261997c-0.0384445-0.0475292-0.0768871-0.0950594-0.1153316-0.1425886
		c0.0839386,0.0443258,0.1725426,0.077651,0.2511454,0.1284456c0.0895844,0.0578909,0.1843901,0.1070719,0.2778502,0.1565838
		c0.2792645,0.1479464,0.5519857,0.3075676,0.830678,0.4564295c0.2199278,0.1174726,0.436986,0.2403126,0.6554651,0.3605032
		c0.0186291,0.0102482,0.0375776,0.0232496,0.0604792,0.0101423c0.0192842,0.0182858,0.0167723,0.0425949,0.0167952,0.065465
		c0.0004921,0.5120897,0.0003242,1.0241766,0.0003643,1.5362663C16.0163994,12.4569759,16.0114994,12.4826374,15.999835,12.5070429z
		"/>
	<path fill="#03ADBD" d="M21.2181225,6.6602573c-0.2714825,0.0733762-0.5429592,0.1467519-0.8144207,0.2201395
		c-0.0008297-0.0198841-0.0024185-0.0397806-0.0024223-0.0596776c-0.0001373-0.9000459-0.0001125-1.8000908-0.0003242-2.7001362
		c-0.0000038-0.0198298-0.0025101-0.039659-0.0038509-0.0594888c0.0155792-0.0077314,0.031004-0.0128417,0.0452442,0.002655
		c-0.0374641,0.0897222-0.013979,0.1834745-0.0179596,0.2753868c-0.0005207,0.0120053,0.0084095,0.020987,0.0160046,0.0301108
		c0.1893272,0.2274637,0.3646107,0.4659638,0.5482502,0.6979012c0.0658245,0.0831366,0.129055,0.1683598,0.2019024,0.2572083
		c0.0099468-0.0352721,0.0056629-0.0630727,0.0059872-0.0901356c0.000782-0.064837-0.0006237-0.1297045,0.0008202-0.1945243
		c0.0004005-0.0179543-0.0063324-0.0412374,0.020647-0.0489554c0.000555,0.1782689,0.0016346,0.3565369,0.0015583,0.5348053
		C21.2193985,5.9037838,21.2186375,6.282021,21.2181225,6.6602573z"/>
	<path fill="#01BC98" d="M13.5101442,10.8891029c-0.0248098-0.0803747-0.0869637-0.1358109-0.1358566-0.1995316
		c-0.2154264-0.2807674-0.4326162-0.5601845-0.6499624-0.8394728c-0.1239185-0.159235-0.2495842-0.3171101-0.373702-0.4761915
		c-0.009511-0.0121899-0.0302954-0.0263319-0.0078011-0.0456724c0.0489683,0.0396042,0.1064901,0.065361,0.160985,0.0952282
		c0.1632881,0.0894928,0.328927,0.1755142,0.4891529,0.2696199c0.112834,0.0662708,0.233161,0.1166306,0.345417,0.1841021
		c0.1062593,0.0638695,0.2161436,0.1238337,0.3270502,0.1807718c0.0783033,0.0402012,0.1545639,0.0843716,0.2319431,0.1263885
		c0.0687647,0.0373383,0.106205,0.1046724,0.1529388,0.1622009c0.3996449,0.4919405,0.7978544,0.9850473,1.1964092,1.4778738
		c0.0062571,0.0077391,0.0114346,0.0163507,0.0171165,0.0245552c-0.0079985,0.0063992-0.0162382,0.0061131-0.0246553,0.0008869
		c-0.0738249-0.0331678-0.1442032-0.0725374-0.2139988-0.1135502c-0.1085386-0.063777-0.2174597-0.1273699-0.3295231-0.1845646
		c-0.1441336-0.0735655-0.2815561-0.1587181-0.4234743-0.2359762c-0.1294613-0.0704794-0.2619667-0.135829-0.3881893-0.2116652
		C13.7606707,11.0300112,13.6289101,10.9708462,13.5101442,10.8891029z"/>
	<path fill="#818181" d="M15.999835,12.5070429c-0.0001955-0.5596285-0.000391-1.119256-0.0005894-1.6788912
		c0.11378-0.0619068,0.2252131-0.1279325,0.3400621-0.1881084c0.091095-0.0477314,0.179987-0.0998745,0.2708359-0.1484222
		c0.1304073-0.0696888,0.2585278-0.1436567,0.3875313-0.2159672c0.1334133-0.0747805,0.2652245-0.1525898,0.4004745-0.223875
		c0.1410904-0.0743647,0.2788315-0.1545448,0.4187412-0.2308016c0.0809345-0.0441132,0.1607246-0.0913763,0.2509785-0.1238823
		c-0.0569782,0.0699034-0.1136932,0.1400232-0.1709785,0.209672c-0.2916698,0.3546095-0.5832253,0.7093115-0.8753777,1.0635233
		c-0.1195965,0.1450014-0.2462635,0.2845926-0.3589497,0.4347248c-0.0754833,0.100565-0.1325798,0.2150164-0.1969185,0.3238382
		c-0.1464996,0.2477913-0.2922859,0.4960022-0.4388351,0.743763C16.0195045,12.4849663,16.014822,12.5003223,15.999835,12.5070429z"
		/>
	<path fill="#01B99D" d="M11.5996361,4.5602279c0.0000038,0.626574,0.0000086,1.2531476,0.0000134,1.8797216
		c-0.0240889,0.0139709-0.0377722-0.0049515-0.0493546-0.0188985c-0.0387917-0.0467043-0.0770845-0.0939932-0.1115541-0.1439791
		c-0.0102787-0.0149059-0.0316935-0.0355077,0.0011873-0.0518308c0.0435619,0.0002308,0.0870857-0.0007343,0.1186142,0.0001831
		c0.0186186-0.0022354,0.0079441-0.0111127,0.0117292-0.0056252c-0.0529633,0.0127263-0.1073866-0.0012956-0.1604786,0.0088291
		c-0.0180054-0.003684-0.0268936-0.0180836-0.0369778-0.0312958c-0.1774387-0.2324634-0.3594217-0.4613934-0.5391436-0.6920786
		c-0.0209312-0.026866-0.0287409-0.0529637-0.0288868-0.0861778c-0.0005331-0.1227713,0.0051765-0.2456145-0.002799-0.3683243
		c-0.0005465-0.2744751-0.0012426-0.5489502-0.0015917-0.8234253c-0.0002527-0.1979756-0.0001163-0.395952,0.0000591-0.5939279
		c0.0000191-0.0226674-0.0055294-0.049556,0.0307083-0.0506389c0.0167532,0.0017128,0.0263081,0.0135,0.0346498,0.0259902
		c0.1386862,0.2076719,0.3022738,0.3964133,0.4531441,0.5948162C11.4104948,4.323947,11.5017548,4.444747,11.5996361,4.5602279z"/>
	<path fill="#03ADBD" d="M19.7895126,3.722862c-0.1334324-0.06019-0.2570152-0.1387565-0.3859673-0.2073231
		c-0.1422291-0.0756242-0.2826748-0.1546199-0.4234123-0.233021c-0.1696491-0.0945067-0.3387241-0.1900504-0.5081978-0.2848735
		c-0.0404797-0.02265-0.0815639-0.0442255-0.1223698-0.0662949c-0.1062336-0.151118-0.2260303-0.2918677-0.3360004-0.4401019
		c-0.0143929-0.0194025-0.0445976-0.0345163-0.0298786-0.0672023c0.0019474-0.004323,0.0042114-0.0027032-0.0007076-0.0041544
		c-0.0685596-0.0202293-0.0910606-0.0864763-0.1293354-0.1350248c-0.2306519-0.2925622-0.4592514-0.5867519-0.6866589-0.8818583
		c-0.0110893-0.0143901-0.0245266-0.027846-0.0280647-0.0465528c-0.001646-0.0087068-0.0047817-0.0214964,0.0128422-0.0167893
		c0.0987759,0.057673,0.1966438,0.1162895,0.300251,0.1660947c0.050005,0.0240377,0.0956287,0.0619901,0.1463966,0.0889984
		c0.187933,0.0999829,0.3759174,0.1999005,0.5627861,0.3018526c0.1451302,0.0791805,0.2886505,0.1613141,0.4327698,0.2423426
		c0.0052872,0.0029726,0.0093441,0.0081346,0.0139732,0.0122759c0.0361691,0.0736041,0.0936108,0.1319485,0.1430683,0.195689
		c0.2438507,0.3142743,0.4878273,0.6284587,0.7326031,0.9420171c0.0891037,0.1141386,0.1778622,0.2285483,0.2665634,0.3429959
		C19.7704048,3.658035,19.8023968,3.6814444,19.7895126,3.722862z"/>
	<path fill="#04ABC1" d="M21.2179966,4.9907413c-0.0172348,0.0466056-0.0062199,0.0949059-0.0078144,0.142364
		c-0.0020142,0.0597839-0.0002174,0.1196895-0.0007439,0.1795359C21.209343,5.3234687,21.2149773,5.3381786,21.20154,5.3439746
		c-0.0136528,0.0058885-0.0204029-0.0075593-0.0271778-0.0162392c-0.0935783-0.1198859-0.1871357-0.2397909-0.2802448-0.3600411
		c-0.1447144-0.1868916-0.2851791-0.3772964-0.4362221-0.5589132c-0.0399055-0.0479827-0.0504036-0.0906363-0.0484066-0.1455998
		c0.0015087-0.0415092,0.0020466-0.0832143-0.0002708-0.1246486c-0.0017757-0.0317841,0.0043507-0.0583,0.0304489-0.0781803
		c-0.0033779-0.0205431,0.0145779-0.0238962,0.0263252-0.0309267c0.029911-0.017899,0.0597706-0.0358727,0.0911312-0.0513735
		c0.062315-0.0308015,0.0640659-0.0372336,0.02285-0.0900643c-0.2646427-0.3392069-0.5281181-0.6793213-0.7928371-1.0184684
		c-0.011261-0.0144265-0.0243263-0.0280788-0.0294685-0.0458035c-0.0041828-0.0144172-0.0084286-0.0332544,0.0192471-0.0230336
		c0.0716801,0.0401094,0.142992,0.0809,0.2151165,0.1201956c0.1864319,0.1015732,0.3743649,0.2004573,0.5593281,0.3046253
		c0.0779266,0.0438881,0.1611042,0.0796034,0.2349586,0.128206c0.0995274,0.0654998,0.2125092,0.1059945,0.3081417,0.1770298
		c0.0052872,0.0039265,0.0108852,0.0087605,0.0169983,0.010057c0.1043491,0.0221395,0.1112728,0.0939319,0.1102161,0.1854427
		c-0.004631,0.4014921-0.0019855,0.8030672-0.0020847,1.2046127C21.2195835,4.9508147,21.2185516,4.970778,21.2179966,4.9907413z"/>
	<path fill="#01BB98" d="M10.8019857,5.0507517c0.0133276,0.01404,0.0079117,0.0315619,0.0080824,0.0476465
		c0.0006018,0.0565972,0.0062227,0.1139789-0.0009766,0.1696515c-0.0165653,0.1280837,0.0245037,0.2290039,0.1083679,0.327558
		c0.1543589,0.181397,0.2966242,0.373095,0.4433374,0.5609636c0.0152102,0.0194788,0.0264091,0.0420904,0.0394697,0.0632477
		C11.3801012,6.2307663,11.3588982,6.22153,11.341258,6.224824c0.0274067,0.0038295,0.0590286-0.0057187,0.0890074,0.0054712
		c0.0432014,0.0806007,0.0920649,0.1566281,0.1693916,0.2096558c0.0001945,0.5146594,0.0004606,1.0293198,0.0002489,1.5439801
		c-0.0000057,0.013772,0.0083857,0.0341954-0.0093975,0.0399146c-0.0156927,0.0050459-0.0253887-0.0132256-0.0341082-0.0244899
		c-0.2006893-0.2592907-0.4007835-0.5190425-0.6015177-0.7782989c-0.0514774-0.0664864-0.1086216-0.1286283-0.152916-0.2005858
		c-0.0005312-0.2775826-0.0015392-0.5551667-0.001483-0.8327513C10.80056,5.8087301,10.8014479,5.4297414,10.8019857,5.0507517z"/>
	<path fill="#03AEBB" d="M17.151762,1.3396659c-0.014925,0.020059,0.0045815,0.0295172,0.0135822,0.041175
		c0.2031174,0.2630861,0.4064121,0.5260346,0.6099606,0.788788c0.0587292,0.0758138,0.1206913,0.1492591,0.1765118,0.2271304
		c0.0260048,0.0362751,0.0402451-0.0019295,0.0714188-0.0050089c-0.0428677,0.031379-0.034153,0.0513301-0.008831,0.0825009
		c0.1031837,0.127022,0.2017174,0.2578297,0.301403,0.3876739c0.0157681,0.0205402,0.0367947,0.0393744,0.0337582,0.0694227
		c-0.0891705-0.0479069-0.1787567-0.0950572-0.2674179-0.1438906c-0.1586971-0.0874097-0.3181896-0.1735048-0.4747486-0.2646189
		c-0.1118965-0.0651205-0.2319908-0.1157763-0.3375282-0.1919434c-0.0899887-0.0463059-0.1369762-0.1338081-0.1955891-0.2088737
		c-0.3391418-0.4343491-0.6759148-0.8705469-1.0163307-1.3039082c-0.0164318-0.0209177-0.0340652-0.0412363-0.0462627-0.0650449
		c-0.0071678-0.0139881-0.0172911-0.031269,0.0115852-0.0339903c0.0487633,0.0274077,0.0972576,0.0572998,0.1470661,0.080426
		c0.0924873,0.0429426,0.1759319,0.1010239,0.2657681,0.148113c0.1057701,0.055441,0.2137318,0.1079438,0.3165207,0.1700978
		C16.8828106,1.1964324,17.018465,1.2660969,17.151762,1.3396659z"/>
	<path fill="#03ACBF" d="M19.7769146,2.8006823c-0.0346165,0.0166786-0.0018368,0.0316303,0.0044441,0.0402467
		c0.0477486,0.0655055,0.0977554,0.129385,0.1477127,0.1932588c0.110117,0.1407933,0.2209435,0.2810307,0.3308678,0.421973
		c0.1150055,0.1474571,0.2292786,0.2954829,0.343895,0.4432449c0.0338058,0.0435805,0.0323467,0.0523441-0.0174999,0.0774968
		c-0.0503139,0.0253882-0.1000938,0.0515547-0.1466656,0.0834498c-0.0141563,0.0016723-0.0282326,0.0080414-0.0425549,0.0007405
		c-0.1307697-0.0715079-0.2611828-0.1436634-0.3924294-0.214272c-0.0729637-0.0392547-0.146244-0.0777986-0.2151737-0.1239686
		c-0.0223808-0.0720942-0.0795269-0.1209257-0.1226788-0.178524c-0.1099911-0.1468163-0.2246151-0.2901652-0.3375187-0.434798
		c-0.1719036-0.2202122-0.3440609-0.4402256-0.5158157-0.6605549c-0.0680943-0.0873559-0.1353302-0.1753826-0.2031403-0.2629619
		c-0.0088348-0.0114124-0.0152969-0.0222251-0.0024166-0.0347846c0.0854836,0.0515532,0.1785336,0.0913961,0.2620392,0.1435733
		c0.1381779,0.0863385,0.2882195,0.1489968,0.4265709,0.2338293c0.0743523,0.0455914,0.150898,0.0880349,0.2287006,0.1274655
		C19.6117859,2.6999533,19.6927357,2.7530208,19.7769146,2.8006823z"/>
	<path fill="#03AFB8" d="M16.0232735,0.7190777c-0.0271349,0.0232429,0.0038605,0.0372242,0.0120888,0.0482587
		c0.0702,0.0941384,0.1430035,0.1863436,0.2153912,0.2788416c0.1101036,0.1406944,0.2208824,0.2808616,0.3306828,0.4217913
		c0.1616383,0.2074658,0.3226032,0.415457,0.4839973,0.6231145c0.0497417,0.0639985,0.1015091,0.1265049,0.1490383,0.1920912
		c0.0155125,0.0214036,0.0455761,0.0221961,0.0553989,0.0477192c-0.0780296-0.0257714-0.143549-0.0753849-0.2148914-0.1137819
		c-0.2014008-0.1083953-0.4015465-0.2191287-0.6018238-0.3295988c-0.1393604-0.0768688-0.278389-0.1543479-0.4168873-0.2327527
		c-0.0233593-0.013224-0.0424232-0.0134183-0.0641308,0.0012431c-0.0219021,0.0147943-0.0438833,0.030112-0.0707541,0.0352242
		c-0.0216198,0.0114135-0.0292511-0.0061016-0.0391273-0.0189337c-0.1467886-0.1907307-0.2954788-0.3799832-0.4427986-0.5703
		c-0.0117817-0.0152185-0.0289011-0.0289966-0.0199862-0.052371c0.104579-0.0673522,0.2181997-0.1189348,0.3240089-0.1836997
		c0.0832262-0.0509426,0.1715269-0.0918196,0.2556601-0.1406349C15.9919767,0.7178413,16.0059776,0.7019184,16.0232735,0.7190777z"
		/>
	<path fill="#02B8A2" d="M11.5996361,4.5602279c-0.0578518-0.025959-0.0821056-0.0833778-0.1181107-0.1289825
		c-0.1738892-0.2202482-0.3463774-0.4416087-0.5181055-0.663548c-0.0463476-0.0598991-0.088295-0.123203-0.1322603-0.1849408
		c0.2745686-0.1563039,0.550087-0.3108923,0.8291311-0.459115c0.1155586,0.147553,0.2309561,0.2952371,0.3451195,0.4438665
		c0.0493441,0.06424,0.1044044,0.124208,0.1466179,0.1938453c-0.0376501,0.0398505-0.0924635,0.049938-0.1364994,0.0786884
		c-0.1135578,0.0741441-0.2408304,0.1239939-0.3536062,0.199646c-0.0146999,0.0098605-0.0331488,0.0141306-0.0498495,0.0209899
		c-0.0192461,0.0132346-0.0113811,0.0333314-0.0114727,0.0504727C11.5997953,4.2608404,11.599843,4.4105349,11.5996361,4.5602279z"
		/>
	<path fill="#02B6A6" d="M12.1520281,3.7613533c-0.0664577-0.0562756-0.1104736-0.1312108-0.1636791-0.1983805
		c-0.1048183-0.1323316-0.2070971-0.2666726-0.3110123-0.3997254c-0.0095558-0.0122359-0.018796-0.0231762-0.017046-0.039614
		c0.0786381-0.0518923,0.1691761-0.0850308,0.2448292-0.138864c0.0896301-0.0637772,0.198494-0.0904913,0.2829418-0.1617403
		c0.0192862-0.0162711,0.0478745-0.0215192,0.0721807-0.0318401c0.1598463,0.2064211,0.3206196,0.4121232,0.48067,0.618386
		c0.0051298,0.0066092,0.0101147,0.0132041,0.0111122,0.0218709C12.554781,3.5464256,12.3551207,3.6570089,12.1520281,3.7613533z"/>
	<path fill="#03B1B3" d="M14.3804436,1.6122866c0.1956921-0.1072385,0.3864355-0.2234446,0.5861616-0.32337
		c0.023675-0.0042143,0.0312004,0.0160221,0.0414562,0.0294373c0.1352501,0.1769105,0.2748671,0.3504201,0.4101124,0.527321
		c0.0212831,0.027837,0.0433722,0.0542907,0.0718269,0.0749662c-0.0849638,0.0477024-0.169591,0.0960218-0.2549772,0.1429564
		c-0.1145287,0.0629532-0.2296467,0.1248357-0.3445101,0.1871779c-0.0270529,0.0129378-0.0401373-0.0078919-0.0529089-0.0239842
		c-0.1464329-0.1844921-0.2904539-0.3708766-0.4350691-0.5567929C14.3898745,1.6537222,14.3731308,1.6370757,14.3804436,1.6122866z"
		/>
	<path fill="#02B4AB" d="M13.8527374,2.8216352c-0.0605745,0.0433669-0.126894,0.0770857-0.1919012,0.1128321
		c-0.1201649,0.0660768-0.2412596,0.1304629-0.3619661,0.1955531c-0.0222025,0.0134792-0.0296154-0.0067549-0.0385885-0.0185428
		c-0.1429157-0.1877711-0.2897959-0.3724661-0.433507-0.5596116c-0.0155935-0.0203063-0.0449657-0.043299-0.006443-0.0702999
		c0.0697021-0.0539324,0.1527481-0.0851517,0.2262535-0.1322315c0.1097994-0.0703259,0.2328405-0.1166406,0.3403177-0.1908557
		c0.006526-0.0045061,0.0153475-0.0056899,0.0230999-0.0084198c0.0976009,0.1398571,0.1876783,0.2846746,0.2810297,0.427326
		C13.744503,2.6590965,13.7980404,2.7407446,13.8527374,2.8216352z"/>
	<path fill="#03B2B0" d="M14.3804436,1.6122866c0.0639935,0.1045264,0.1469288,0.1948563,0.2200365,0.2925562
		c0.0800409,0.1069678,0.1638002,0.2111605,0.2463884,0.3162099c0.0110865,0.0141025,0.0226202,0.0293658,0.043644,0.0297225
		c-0.1304417,0.07267-0.2597494,0.1474962-0.3918085,0.2170987c-0.0660009,0.0347869-0.1239204,0.0848384-0.1973915,0.105478
		c-0.0533905-0.0387409-0.0854959-0.0960381-0.1250677-0.1463959c-0.1158514-0.1474273-0.2308044-0.2955766-0.3456383-0.4438094
		c-0.0164108-0.0211835-0.0302467-0.0417588-0.0006018-0.0630857c0.0201101-0.0297376,0.0555544-0.0347024,0.0839262-0.0506331
		c0.1240816-0.0696706,0.2486153-0.1386242,0.3746128-0.2047358C14.3199263,1.6482248,14.3383932,1.6092458,14.3804436,1.6122866z"
		/>
	<path fill="#02B5A8" d="M12.8203316,2.4815662c-0.0143614,0.0198762-0.0070057,0.0343695,0.0072203,0.0524821
		c0.1406784,0.1791029,0.2798262,0.3594077,0.4204111,0.5385845c0.0156536,0.0199473,0.0210781,0.0498252,0.050909,0.0573893
		c-0.1181688,0.0662949-0.2343931,0.136446-0.3552818,0.1973391c-0.0651083,0.0327966-0.1208868,0.0822287-0.1915712,0.1040809
		c-0.0534267-0.0408964-0.0854454-0.0999122-0.126195-0.1513052c-0.1168604-0.1473842-0.2310228-0.296906-0.3469105-0.4450679
		c-0.0106068-0.013561-0.0208654-0.0256259-0.018671-0.0438812c0.0453358-0.044029,0.1065321-0.0661664,0.1594391-0.0938725
		C12.5540562,2.6269436,12.6801291,2.5408065,12.8203316,2.4815662z"/>
	<path fill="#02B3AE" d="M13.8300047,1.9200609c-0.0117741,0.0195398-0.0082064,0.0343114,0.0066614,0.0532209
		c0.1359291,0.1728841,0.2703848,0.3469285,0.4051142,0.520754c0.0202465,0.0261197,0.0397024,0.0528507,0.0595293,0.0793071
		c-0.1446257,0.0916243-0.2967768,0.1696484-0.4485807,0.2482886c-0.016449-0.0010993-0.025547-0.0105689-0.0344458-0.0242958
		c-0.1275492-0.196734-0.2559958-0.3928862-0.3836231-0.5895703c-0.0113182-0.0174415-0.028739-0.0332718-0.0246572-0.0577049
		C13.5497484,2.072928,13.6860609,1.9895269,13.8300047,1.9200609z"/>
	<path fill="#03B0B6" d="M15.4900007,1.9206413c-0.0229816,0.003185-0.0379305-0.0100421-0.0504627-0.0261604
		c-0.11975-0.1540139-0.23909-0.3083471-0.3588915-0.4623218c-0.0374708-0.0481603-0.0759859-0.0955105-0.1140318-0.1432371
		c0.1234913-0.0867664,0.2647858-0.1421313,0.39221-0.2220199c0.0123177-0.0077226,0.0270414-0.0116098,0.0406485-0.017278
		c0.0486069,0.0791099,0.1111517,0.1477816,0.1668301,0.221581c0.1024885,0.135846,0.2077169,0.2696251,0.3112984,0.4046535
		c0.0066519,0.008669,0.013133,0.014401,0.0237761,0.0153672C15.7662859,1.7713387,15.6292849,1.8480359,15.4900007,1.9206413z"/>
	<path fill="#0C937F" d="M15.2391796,11.8498621c0.0082054-0.0002966,0.0164108-0.0005932,0.0246363-0.0008879
		c0.0097399,0.00595,0.0171328,0.0135927,0.0220842,0.0337725C15.2664003,11.8690224,15.2527895,11.8594427,15.2391796,11.8498621z"
		/>
	<path fill="#5E5E65" d="M16.739645,11.858983c0.0035553,0.0035763,0.0071125,0.0071535,0.0106697,0.0107327
		c-0.0092964,0.0087795-0.0185928,0.0175562-0.0293808,0.0277376C16.7129421,11.8755646,16.7276382,11.8679552,16.739645,11.858983z
		"/>
	<path fill="#282839" d="M15.1859407,7.8438764c0.0051985-0.1580229-0.0080557-0.3164968,0.0120745-0.4741001
		c0.0429554-0.336288,0.2478333-0.5436435,0.5857248-0.5891304c0.1742334-0.0234556,0.3486528-0.0249639,0.5208616,0.0181251
		c0.292244,0.0731239,0.4728279,0.2767344,0.4948673,0.5777898c0.0229874,0.313993,0.0240231,0.6293206-0.0009708,0.9432197
		c-0.026598,0.3340349-0.234478,0.5411949-0.5798912,0.5889273c-0.2011547,0.0277987-0.4016123,0.0246267-0.597578-0.0389881
		c-0.2539921-0.0824509-0.3876104-0.2618122-0.4214163-0.5217724C15.1778221,8.1803913,15.1909342,8.0119047,15.1859407,7.8438764z"
		/>
	<path fill="#282839" d="M15.1898699,4.8761101c0.0001402-0.1362343-0.0067911-0.2725329,0.0160398-0.4083347
		c0.0448685-0.2668686,0.1997566-0.4324207,0.4574785-0.5014882c0.244915-0.065635,0.4908781-0.0638874,0.7323847,0.016789
		c0.22826,0.0762534,0.3556633,0.2403803,0.3947773,0.4758945c0.0340805,0.2051868,0.0164452,0.4119587,0.0197411,0.6180868
		c0.0014172,0.0886908-0.0093555,0.1761193-0.0342922,0.2611871c-0.0650139,0.2217684-0.2187004,0.3530788-0.4364986,0.4091206
		c-0.2277451,0.0586028-0.4584322,0.059041-0.6858549-0.0026984c-0.2884731-0.0783124-0.451582-0.288074-0.4632158-0.588901
		C15.1868286,5.0626788,15.1898699,4.9693356,15.1898699,4.8761101z"/>
	<path fill="#1BAF96" d="M11.4302654,6.2302952c-0.0326548,0-0.0653095,0-0.0979633,0
		c-0.0001011-0.0034904-0.0002041-0.0069809-0.0003052-0.0104709c0.0227566,0,0.0455141,0,0.0682697-0.0000029
		c0.0592175-0.0000024,0.1184349-0.0000024,0.1776524-0.0000024c0.0000734,0.0034919,0.000145,0.0069842,0.0002184,0.0104761
		C11.5288467,6.2302952,11.4795551,6.2302952,11.4302654,6.2302952z"/>
	<path fill="#1AB095" d="M11.0022116,6.212285c0.0790462,0,0.1580925,0,0.2371378,0
		c0.0000153,0.0016823,0.0000305,0.0033655,0.0000458,0.0050478c-0.0787086,0-0.1574163,0-0.2361259,0
		C11.0029173,6.2156506,11.0025644,6.2139673,11.0022116,6.212285z"/>
</g>
</svg>
