<?xml version="1.0" encoding="utf-8"?>
<!-- Generator: Adobe Illustrator 24.1.1, SVG Export Plug-In . SVG Version: 6.00 Build 0)  -->
<svg version="1.1" id="Слой_1" xmlns="http://www.w3.org/2000/svg" xmlns:xlink="http://www.w3.org/1999/xlink" x="0px" y="0px"
	 viewBox="0 0 32 13" enable-background="new 0 0 32 13" xml:space="preserve" width="32" height="13">
<g>
	<path fill="#282839" d="M21.5196781,6.4886031c0,1.0347748-0.0002193,2.06955,0.0008965,3.1043239
		c0.0000401,0.0369539-0.0095863,0.0563498-0.0429878,0.0750093c-0.1747551,0.0976391-0.3472309,0.1993513-0.5211182,0.2985668
		c-0.1142311,0.065177-0.2300453,0.1275797-0.3441849,0.1929102c-0.1720676,0.098484-0.3453732,0.1950769-0.5160885,0.2954741
		c-0.0779419,0.0458393-0.1588993,0.0865545-0.2363777,0.1334009c-0.1754475,0.1060848-0.356451,0.202939-0.5335522,0.3060026
		c-0.0795727,0.0463057-0.1651096,0.0828028-0.2401199,0.1362076c-0.0762711,0.0543003-0.162632,0.0897951-0.2417774,0.1382847
		c-0.1746635,0.1070137-0.3568783,0.2008858-0.5324821,0.3060026c-0.0783825,0.0469189-0.1604023,0.0867815-0.2382221,0.1342134
		c-0.1619396,0.0987043-0.3309288,0.1851454-0.4938374,0.2817926c-0.1728802,0.1025639-0.3504963,0.1966801-0.5225201,0.3002892
		c-0.0797062,0.0480061-0.163168,0.0887136-0.2423134,0.1371689c-0.1747017,0.1069603-0.3576756,0.1995888-0.5324535,0.306056
		c-0.0849819,0.0517683-0.1763401,0.0914707-0.258955,0.1467161c-0.0129337,0.008647-0.0220146,0.0097618-0.0355253,0.0015965
		c-0.0691872-0.0418148-0.1438532-0.0745678-0.2124023-0.1164627c-0.1695127-0.1036024-0.3446331-0.1969147-0.51653-0.2959595
		c-0.085906-0.0494947-0.1740313-0.0952988-0.2586746-0.1467581c-0.1676893-0.1019468-0.3406219-0.1944695-0.5106287-0.2921066
		c-0.1636086-0.0939646-0.3280277-0.1865282-0.4913044-0.2809534c-0.1739082-0.1005754-0.3490696-0.1990004-0.5222197-0.300786
		c-0.0759068-0.0446215-0.1550846-0.0831442-0.229908-0.1289949c-0.1719542-0.1053772-0.3502188-0.1995945-0.5238438-0.3018694
		c-0.0654392-0.0385466-0.1318455-0.0749826-0.1980371-0.1120529c-0.1366739-0.076539-0.2716799-0.1560793-0.4066792-0.2355614
		c-0.0139847-0.008234-0.0278997-0.0159731-0.0424623-0.0230865c-0.1264982-0.0617895-0.2442017-0.1394148-0.3666162-0.2084589
		c-0.0876541-0.0494394-0.1765757-0.0972481-0.2635298-0.1482496c-0.1473331-0.0864162-0.2959671-0.1706076-0.4438381-0.2561092
		c-0.0992966-0.057416-0.2006254-0.1114807-0.2998114-0.168582c-0.0640163-0.0368538-0.129425-0.0728579-0.1923294-0.1123848
		c-0.0122719-0.0077114-0.021245-0.0129328-0.0191965-0.0290499c0.0014591-0.0114784,0.0002737-0.0232925,0.0002737-0.034956
		c-0.0000019-2.067884,0.0001431-4.1357684-0.0010185-6.2036514c-0.0000238-0.0420177,0.0118713-0.0633607,0.0500317-0.081722
		c0.1213713-0.0583999,0.236311-0.1297648,0.3517408-0.1982615c0.0877304-0.0520599,0.1800508-0.0952365,0.2665339-0.1489959
		c0.1638651-0.1018615,0.3344212-0.1921191,0.5013475-0.2885702c0.1628056-0.0940711,0.3286161-0.1830957,0.4891682-0.2805543
		c0.0892458-0.0541742,0.1833115-0.0986319,0.2720327-0.1529732c0.1636868-0.1002557,0.3348846-0.1877913,0.4984198-0.2876168
		c0.0886602-0.0541209,0.1829681-0.0964665,0.2708225-0.1511792c0.1624098-0.1011417,0.3311396-0.1914395,0.497117-0.286467
		c0.1687832-0.0966334,0.3384562-0.1917126,0.5069199-0.2888011c0.1647825-0.0949653,0.3317289-0.1861607,0.4957018-0.2822418
		c0.1747847-0.1024159,0.3520384-0.2003367,0.5268259-0.3025115c0.078783-0.0460548,0.1606436-0.0865182,0.2380352-0.1346421
		c0.1701698-0.1058139,0.3483772-0.1975251,0.5206728-0.2995471c0.0222349-0.0131667,0.0411644-0.0105392,0.063015,0.0012935
		c0.1477966,0.0800339,0.2929382,0.1649402,0.4386272,0.248507c0.1798477,0.1031595,0.3607502,0.2045188,0.5399208,0.3088404
		c0.0655804,0.0381851,0.1337185,0.0722085,0.1977634,0.1121792c0.127367,0.0794886,0.2630291,0.1442847,0.3891163,0.2256682
		c0.0109158,0.0070461,0.0211792,0.015612,0.0329266,0.0207903c0.1385555,0.0610759,0.2627392,0.1481656,0.395216,0.2203301
		c0.1649075,0.0898283,0.3268089,0.1857172,0.4901962,0.2786969c0.1731529,0.098537,0.3454952,0.1983497,0.5194607,0.2955019
		c0.0828705,0.0462809,0.1667194,0.0925422,0.2482376,0.1418459c0.1670704,0.1010461,0.3390713,0.1932454,0.5081978,0.290431
		c0.1663818,0.095608,0.3340702,0.1889756,0.4997673,0.2855763c0.170208,0.0992317,0.3429089,0.1941366,0.5119171,0.295177
		c0.0840187,0.0502317,0.1724892,0.0919085,0.2554569,0.1431553c0.1421719,0.0878174,0.2878685,0.1692827,0.4343948,0.2493539
		c0.0156612,0.0085573,0.0217571,0.0179288,0.0208969,0.0344415c-0.0006065,0.0116322-0.0001068,0.0233221-0.0001068,0.0349863
		C21.5196781,4.4223852,21.5196781,5.4554939,21.5196781,6.4886031z"/>
	<path fill="#818181" d="M16.7396412,11.8589783c0.3013821-0.3662519,0.6028347-0.7324476,0.9041138-1.0987854
		c0.147995-0.1799526,0.2956047-0.3602238,0.4435654-0.540205c0.0201492-0.0245104,0.0430183-0.0450449,0.071806-0.0606718
		c0.1227722-0.0666513,0.2443371-0.1355209,0.3665504-0.203207c0.1003036-0.0555525,0.201088-0.1102419,0.3013306-0.1659079
		c0.1976814-0.1097755,0.3948059-0.2205601,0.5927963-0.3297739c0.1294994-0.0714331,0.2607365-0.1397161,0.3900776-0.211422
		c0.1832218-0.1015778,0.3647423-0.2062464,0.5486355-0.3065758c0.0356426-0.0194473,0.042902-0.0422745,0.0428619-0.0789766
		c-0.0008831-0.7998648-0.0006733-1.59973-0.0006733-2.3995957c0-0.7732034-0.0004139-1.5464072,0.0009136-2.3196082
		c0.0000916-0.0526552-0.0095654-0.0839605-0.0626793-0.1118503c-0.2029495-0.1065688-0.4012127-0.2220292-0.601881-0.3329856
		c-0.1761341-0.0973911-0.3547192-0.1904478-0.5292931-0.2905283c-0.155756-0.089293-0.314352-0.1732199-0.4713764-0.2600899
		c-0.2181797-0.1207032-0.4381714-0.2382474-0.6542625-0.3625729c-0.1772728-0.1019921-0.3565598-0.2005968-0.5360775-0.29809
		c-0.2029896-0.1102393-0.4035816-0.2250254-0.607748-0.3332946c-0.0993271-0.0526733-0.1969967-0.1107893-0.295433-0.1659433
		c-0.1144123-0.0641055-0.2301216-0.1263005-0.3451824-0.1894815c-0.0859985-0.0472215-0.1720238-0.0943965-0.2576885-0.1422151
		c-0.019577-0.0109278-0.036335-0.0187802-0.0598764-0.0062202c-0.1994772,0.1064154-0.3946772,0.2205149-0.5939932,0.3273289
		c-0.2241116,0.1201025-0.4453897,0.2456611-0.6674767,0.3695391c-0.1102009,0.0614705-0.2228413,0.1186838-0.3312531,0.18363
		c-0.095479,0.0571973-0.1946001,0.1083109-0.2920914,0.1621523c-0.2241936,0.1238151-0.448163,0.2480371-0.6726255,0.3713634
		c-0.1776295,0.0975959-0.35641,0.193114-0.5336685,0.2913764c-0.175951,0.0975358-0.350234,0.198076-0.5260191,0.2959142
		c-0.1263924,0.0703475-0.2543106,0.1379464-0.3810663,0.2076473c-0.1164627,0.0640402-0.2321329,0.1295199-0.3485498,0.1936457
		c-0.0164433,0.0090575-0.0258722,0.0195079-0.0242462,0.0389342c0.0009689,0.0115829,0.0001621,0.0233145,0.0001621,0.0349789
		c-0.0000019,1.5597377,0.0000067,3.1194758-0.0000553,4.679213c-0.000001,0.0332365-0.000802,0.0664711-0.0012293,0.0997066
		c-0.0290785-0.032548-0.054141-0.019208-0.0849028,0.0016832c-0.2195797,0.1491165-0.4396648,0.297492-0.6592274,0.4466419
		c-0.0184498,0.0125332-0.0353918,0.0316811-0.0620632,0.0252037c-0.0005035-0.0199718-0.0014524-0.0399446-0.0014534-0.0599165
		c-0.0000658-1.8880157,0.000124-3.776032-0.0010948-5.6640468c-0.0000324-0.0485198,0.0162821-0.0689392,0.0590696-0.0928216
		c0.1195126-0.0667086,0.24331-0.1258655,0.3582058-0.2013478c0.0606747-0.0398607,0.1298542-0.0665307,0.1936712-0.1019032
		c0.1362543-0.0755215,0.2711487-0.1534905,0.4073019-0.2291968c0.104063-0.0578618,0.2094841-0.1132741,0.3137951-0.1706934
		c0.1591644-0.0876138,0.31814-0.17558,0.4767332-0.2642229c0.1415281-0.0791051,0.282011-0.1600904,0.4237547-0.2388062
		c0.1026449-0.0570033,0.207345-0.1103194,0.3098021-0.1676524c0.1717472-0.0961058,0.3404846-0.1977636,0.514163-0.2901813
		c0.1478653-0.0786818,0.294364-0.1601616,0.4403067-0.2418807c0.1178608-0.0659944,0.2389545-0.1263529,0.3549242-0.1960769
		c0.1119242-0.0672915,0.2290964-0.125787,0.3422756-0.1910715c0.1651917-0.0952865,0.3352184-0.1818318,0.5005159-0.27666
		c0.1623592-0.0931427,0.3279676-0.1801561,0.4910927-0.2717578c0.0180855-0.0101556,0.0329342-0.0088537,0.0510349,0.0003506
		c0.1463146,0.0743965,0.2885418,0.1564975,0.4325123,0.2350665C16.6313,1.0460045,16.7939816,1.1355788,16.9556065,1.226737
		c0.1585388,0.0894184,0.3176727,0.1776711,0.4764175,0.2666448c0.0794373,0.0445228,0.1628113,0.081918,0.2399826,0.129452
		c0.1987476,0.122421,0.4068069,0.2281775,0.6091404,0.3441167c0.1075134,0.0616075,0.2190609,0.1182913,0.3257866,0.1810528
		c0.1052952,0.0619192,0.2163963,0.112504,0.3206825,0.1769269c0.1064739,0.0657723,0.2187042,0.1243589,0.3300686,0.1829915
		c0.1113434,0.0586221,0.2222977,0.1189885,0.3305016,0.1820798c0.1039639,0.060621,0.2159786,0.1071606,0.3144569,0.1775873
		c0.027977,0.0200093,0.0631695,0.0296092,0.0929146,0.0475292c0.1147747,0.0691426,0.2344761,0.1294401,0.3492565,0.1988025
		c0.1191177,0.0719841,0.2441254,0.1341801,0.3660545,0.2015688c0.1270714,0.0702305,0.2535439,0.141546,0.3802719,0.212394
		c0.0173759,0.0097125,0.0336533,0.0238738,0.0522823,0.0284119c0.0687904,0.0167565,0.0777454,0.0615163,0.0776863,0.1255848
		c-0.0017433,1.8846817-0.0015736,3.7693644-0.0004005,5.654047c0.0000267,0.0423536-0.0121689,0.0630493-0.0501995,0.0831833
		c-0.1886635,0.0998888-0.3764763,0.2015638-0.5618839,0.3073549c-0.1625481,0.0927505-0.3269024,0.1822062-0.4895,0.274725
		c-0.0749474,0.0426455-0.1564064,0.0749655-0.2260494,0.1242819c-0.0939941,0.0665627-0.2001152,0.1094227-0.2984066,0.1671734
		c-0.1312733,0.0771284-0.2662296,0.1490488-0.3997898,0.2228689c-0.1377239,0.0761232-0.2752419,0.1526337-0.4135189,0.227746
		c-0.1088428,0.059123-0.2159863,0.1212397-0.3251362,0.1799183c-0.1677418,0.0901747-0.333004,0.18507-0.4994869,0.2776556
		c-0.148901,0.0828066-0.3009853,0.1603212-0.4470787,0.2474728c-0.1789379,0.1067438-0.3692589,0.1928673-0.5431938,0.308609
		c-0.0672779,0.0447683-0.1438236,0.0756149-0.2161484,0.1128044
		C16.7398815,11.8729744,16.7372379,11.8684845,16.7396412,11.8589783z"/>
	<path fill="#FEFEFD" d="M16.7599564,6.4795327c0,1.1147714-0.0002766,2.2295432,0.0010109,3.3443131
		c0.0000515,0.044466-0.0096741,0.0570517-0.0558987,0.0568466c-0.4416046-0.0019646-0.8832216-0.001174-1.3248348-0.001174
		c-0.0669689,0-0.0669756-0.0000029-0.0669756-0.0646925c-0.000001-1.6846542-0.0002422-3.3693089,0.0011501-5.0539622
		c0.0000429-0.0509877-0.0112486-0.0655942-0.0641041-0.065177c-0.3366051,0.0026565-0.6732435,0.0007372-1.0098629,0.002193
		c-0.0384951,0.0001669-0.050621-0.0086679-0.05023-0.0491509c0.0021238-0.2199345,0.0019999-0.4399085,0.0000801-0.6598465
		c-0.0003395-0.0389245,0.009285-0.0496178,0.0490198-0.0495355c0.2474327,0.0005121,0.489893-0.0343347,0.7298994-0.0963869
		c0.3014059-0.0779271,0.5187492-0.2613678,0.6810341-0.5184524c0.04072-0.064508,0.0761347-0.1326363,0.1100216-0.2010651
		c0.0151825-0.0306585,0.0315113-0.0429888,0.0671968-0.0427868c0.2949562,0.0016696,0.5899296,0.0018177,0.884882-0.0000761
		c0.0403023-0.0002587,0.048502,0.0114989,0.0484447,0.0496418c-0.0011215,0.7448456-0.0008316,1.4896932-0.0008316,2.2345405
		C16.7599583,5.736352,16.7599564,6.1079426,16.7599564,6.4795327z"/>
	<path fill="#818181" d="M15.9923677,10.828126c0.1804972-0.0991106,0.3599806-0.2001247,0.5417814-0.2967825
		c0.1732044-0.0920868,0.3421745-0.1917028,0.5158424-0.2830601c0.1764145-0.092803,0.3473015-0.1960564,0.5215607-0.2930241
		c0.1277275-0.0710754,0.2569637-0.1394434,0.3855934-0.2088976c0.0346088-0.0186863,0.0649223-0.0458145,0.1180782-0.0579872
		c-0.0663853,0.0810785-0.1253853,0.1533947-0.1846581,0.2254877c-0.3191566,0.3881922-0.6381645,0.7765074-0.957716,1.1643744
		c-0.0899258,0.1091499-0.1865387,0.2132006-0.2706814,0.3265676c-0.0631599,0.0850983-0.1117973,0.1810551-0.1659794,0.2727194
		c-0.1566849,0.2650709-0.3128071,0.5304737-0.4696178,0.7954702c-0.0072994,0.0123339-0.0119209,0.0278139-0.0272179,0.0342026
		c-0.0083094-0.0218267-0.01548-0.0437908-0.0154324-0.0676527c0.0005388-0.2663631-0.0018892-0.5327311,0.0012026-0.7990837
		c-0.0018606-0.1627913-0.0023155-0.3255911,0.0000944-0.4883738c-0.0020075-0.0916214-0.0003099-0.1832685-0.0009537-0.2749071
		C15.9841452,10.8602457,15.9874525,10.8441105,15.9923677,10.828126z"/>
	<path fill="#3DF4D5" d="M10.8018169,9.3799362c0.2379818-0.1602535,0.4759645-0.320509,0.7139502-0.4807577
		c0.008255-0.0055571,0.0165119-0.0111132,0.0248442-0.0165529c0.0483484-0.0315599,0.0549116-0.0292234,0.0673971,0.0238314
		c0.0356388,0.0435066,0.0879526,0.0634642,0.1345587,0.0896149c0.2072639,0.1162958,0.416995,0.228179,0.625102,0.3429852
		c0.1424694,0.0785961,0.2837334,0.1593761,0.4255371,0.2391806c-0.0142984,0.0230112-0.0380096,0.0249081-0.0613308,0.0265036
		c-0.0298939,0.0020447-0.0598869,0.000989-0.0898361,0.0009918c-0.4409857,0.0000391-0.8819714,0.0000362-1.322957,0.0000019
		c-0.0366135-0.0000029-0.0731964,0.0002403-0.1095047,0.0058241c-0.1399813-0.0631456-0.2681026-0.1483593-0.4046412-0.2179346
		C10.8022642,9.3922625,10.8027849,9.3846388,10.8018169,9.3799362z"/>
	<path fill="#3DF4D9" d="M11.2095776,9.6115589c0.0065203-0.0333872,0.0333929-0.0214882,0.052392-0.0215273
		c0.322876-0.0006609,0.6457529-0.000474,0.9686308-0.000474c0.1581116,0,0.3162222-0.0003529,0.4743309,0.000308
		c0.0302057,0.0001268,0.0596218-0.0017939,0.0882702-0.0116262c0.0774117,0.0408278,0.1561956,0.079277,0.2319317,0.1230001
		c0.1432667,0.0827093,0.2872896,0.1638956,0.4343834,0.2396345c0.0141516,0.007287,0.0304375,0.0132961,0.0387373,0.0290709
		c-0.0173378,0.0314617-0.0483665,0.0250435-0.0753765,0.0251894c-0.1830149,0.000988-0.3660383,0.0005789-0.549058,0.0004635
		c-0.3194275-0.0002031-0.638855,0.0006475-0.9582825-0.0003767c-0.0050106-0.0000162-0.0099077,0.0011301-0.0148411,0.0018663
		c-0.1466656-0.0634155-0.2786913-0.1540031-0.4202795-0.2270947c-0.0845375-0.0436411-0.1634884-0.0982838-0.2513237-0.1365728
		C11.2209568,9.6298733,11.2160063,9.6190195,11.2095776,9.6115589z"/>
	<path fill="#3DF4E3" d="M15.9923677,10.828126c0.0162268,0.0550861,0.0052891,0.1114311,0.0071526,0.1671467
		c0.0017138,0.0512886-0.0006008,0.1027145-0.0011406,0.1540794c-0.0237961,0.0213652-0.0532732,0.0156231-0.0808849,0.0156822
		c-0.232564,0.000514-0.4651279,0.0005341-0.6976919,0.0000391c-0.0399084-0.0000849-0.0796165,0.0035372-0.1194706,0.0035563
		c-0.1433287-0.1754589-0.2866716-0.3509064-0.4298382-0.5264959c-0.0018444-0.002265-0.0014381-0.0063629-0.0020819-0.0096064
		c0.0047359-0.0342607,0.033391-0.0272856,0.0538445-0.0281229c0.0662975-0.0027113,0.132719-0.0010214,0.1990938-0.0010624
		c0.1609612-0.0000963,0.3219328-0.0011015,0.482873,0.0006819c0.0432301,0.0004778,0.0854111-0.0135078,0.128684-0.0059948
		c0.1364841,0.073864,0.2728519,0.1479445,0.4096165,0.2212858C15.9574776,10.8273335,15.9727249,10.8427782,15.9923677,10.828126z"
		/>
	<path fill="#3DF4E0" d="M14.0008593,10.2891884c0.1111412,0.1301308,0.2187624,0.2631092,0.322813,0.3989763
		c-0.0251637,0.0336523-0.0624447,0.026845-0.0963593,0.026927c-0.3077517,0.0007467-0.6155062,0.0002184-0.9232607,0.0006504
		c-0.0347242,0.0000486-0.0697432-0.0031624-0.1041851,0.0046053c-0.0945663-0.0498676-0.1900501-0.0980864-0.2834711-0.1500139
		c-0.1201248-0.0667715-0.2385597-0.1365852-0.3578072-0.2049389c-0.0327005-0.0187454-0.0657005-0.0369654-0.0985632-0.0554256
		c0.0022354-0.0230389,0.0212879-0.0225019,0.0368414-0.0249062c0.0213709-0.0033045,0.0431356-0.0018454,0.0647392-0.0018482
		c0.4372091-0.0000458,0.8744183-0.000493,1.3116236,0.0007219C13.9156113,10.2840528,13.9592476,10.2674007,14.0008593,10.2891884z
		"/>
	<path fill="#3DF4DC" d="M14.0008593,10.2891884c-0.2419195,0.0226641-0.4843893,0.0067711-0.7265816,0.0096073
		c-0.2525759,0.0029593-0.5052137,0.0004835-0.757822,0.0010166c-0.0189543,0.000041-0.0403051-0.0077648-0.0564289,0.0101557
		c-0.0385838-0.0002251-0.0580387-0.034421-0.0881462-0.0501347c-0.141408-0.073802-0.2816992-0.1497545-0.4219151-0.2258129
		c-0.0178509-0.0096827-0.0329151-0.024497-0.0492697-0.0369329c0.0156193-0.0256186,0.0411825-0.0172939,0.0633192-0.0173101
		c0.4904232-0.0003595,0.9808474-0.0002518,1.4712706-0.0003519c0.0213814-0.0000038,0.0434771,0.0035791,0.0629683-0.0094805
		c0.1371174,0.0741186,0.2743492,0.1480265,0.4112825,0.2224846C13.9502869,10.2145872,13.9764233,10.2512589,14.0008593,10.2891884
		z"/>
	<path fill="#3DF4DF" d="M15.5329075,10.5980291c-0.033288,0.0170918-0.0684929,0.0219564-0.1058998,0.0218182
		c-0.2344627-0.0008621-0.4689274-0.0006084-0.7033911-0.0001106c-0.0188503,0.0000401-0.0406466-0.0077553-0.0552044,0.0127897
		c-0.1389084-0.1700859-0.2780991-0.339942-0.4166298-0.510335c-0.1100378-0.1353445-0.2192659-0.271347-0.3261805-0.4110727
		c0.077879,0.0468321,0.1606321,0.0831604,0.2394724,0.1271544c0.1465158,0.0817566,0.2939587,0.16185,0.4405203,0.2435274
		c0.2467775,0.1375265,0.4930458,0.2759695,0.7398081,0.4135265C15.4076414,10.5300217,15.4738274,10.5575361,15.5329075,10.5980291
		z"/>
	<path fill="#3DF4E3" d="M13.1998672,10.7203474c0.0072689-0.0332451,0.0342321-0.0203571,0.0529699-0.020401
		c0.3275414-0.0007582,0.6550817-0.0007458,0.9826241-0.0002184c0.0302038,0.0000486,0.0594997-0.0023584,0.0882092-0.0115623
		c0.0976782,0.1204224,0.1953554,0.2408466,0.2930317,0.36127c-0.0252447,0.0292711-0.0601377,0.0250444-0.0928354,0.0251665
		c-0.1948433,0.0007324-0.3896914,0.0004244-0.5845375,0.0002327c-0.0285578-0.0000277-0.0568838-0.0005407-0.0805016,0.0193348
		c-0.0166502-0.0217524-0.0415869-0.0341148-0.0645618-0.0441294c-0.1177454-0.051321-0.2219925-0.1269903-0.3375893-0.1824932
		C13.3679667,10.8249512,13.2852497,10.7698736,13.1998672,10.7203474z"/>
	<path fill="#3DF4E7" d="M15.1003323,11.1686296c0.0141134-0.0274096,0.0399466-0.0189886,0.0619459-0.019021
		c0.2787027-0.0004091,0.5574045-0.0002623,0.8361044-0.0002565c-0.0000038,0.163311-0.0000048,0.3266201-0.0000067,0.4899302
		c-0.0126429,0.0131798-0.029357,0.015069-0.0460052,0.0152092c-0.1577692,0.0013304-0.3155422,0.0008774-0.4733152,0.0002737
		c-0.0099468-0.0000391-0.019455-0.0042601-0.0294838-0.0045214c-0.0680017-0.0918484-0.1203022-0.1942987-0.1916876-0.2838621
		C15.2053547,11.3004732,15.1528492,11.2345476,15.1003323,11.1686296z"/>
	<path fill="#3DF4E6" d="M13.8588276,11.0941696c-0.0081806-0.0341854,0.0113344-0.0353937,0.0378284-0.0352821
		c0.1990194,0.000844,0.3980436,0.0003538,0.5970659,0.0005484c0.0413113,0.0000401,0.0826492,0.0015173,0.1229801-0.0100002
		c0.1837463,0.2259007,0.3675871,0.4517241,0.5511522,0.6777716c0.032486,0.0400047,0.0638113,0.0809498,0.0956707,0.1214619
		c-0.0078173,0.006753-0.0159121,0.0065155-0.0242186,0.0009642c-0.07201-0.0321894-0.1411676-0.0693159-0.208395-0.1108932
		c-0.0589933-0.0364857-0.1221132-0.0662537-0.1830053-0.0997229c-0.1684837-0.0926008-0.3378782-0.1836376-0.5045452-0.2794113
		c-0.0633945-0.0364285-0.12819-0.0697107-0.1922798-0.1045742C14.0534096,11.2019024,13.9595375,11.1418409,13.8588276,11.0941696z
		"/>
	<path fill="#3DF4EB" d="M15.4495716,11.6502438c0.0141001-0.0173655,0.033761-0.010644,0.0511322-0.0106926
		c0.1658907-0.0004702,0.3317833-0.0002737,0.4976749-0.0002689c0.0003195,0.2893085,0.0006418,0.5786171,0.0009689,0.8679209
		c-0.0515776-0.0609446-0.0887251-0.1315527-0.131876-0.1980858c-0.1317034-0.2030792-0.2622375-0.4069176-0.3928843-0.6106787
		C15.4648571,11.6832657,15.4578457,11.6663504,15.4495716,11.6502438z"/>
	<path fill="#5E5E65" d="M16.7396412,11.8589783c0.0035591,0.0035791,0.0071163,0.0071592,0.0106754,0.0107403
		c-0.0093307,0.0088091-0.0186634,0.0176163-0.0293846,0.0277348
		C16.7129326,11.8755617,16.7276363,11.8679562,16.7396412,11.8589783z"/>
	<path fill="#39CDC9" d="M15.2393064,11.8496332c0.0080709-0.0003223,0.01614-0.0006437,0.0242147-0.0009642
		c0.0087214,0.0052032,0.0162849,0.0111828,0.0152512,0.0281916C15.2642698,11.8668556,15.2517872,11.8582449,15.2393064,11.8496332
		z"/>
</g>
</svg>
